<svg width="54" height="54" viewBox="0 0 54 54" fill="none" xmlns="http://www.w3.org/2000/svg">
<g clip-path="url(#clip0)">
<path d="M32.1799 38.2545C26.8858 41.1146 21.2925 42.1397 16.5514 41.5272C11.8086 40.9145 7.99679 38.6827 6.06033 35.0983C4.12387 31.5139 4.34669 27.1024 6.434 22.7997C8.52054 18.4987 12.4439 14.3824 17.7381 11.5223C23.0322 8.66222 28.6255 7.6371 33.3666 8.24961C38.1094 8.86235 41.9212 11.0941 43.8576 14.6786C45.7941 18.263 45.5713 22.6744 43.484 26.9771C41.3974 31.2782 37.474 35.3944 32.1799 38.2545Z" stroke="url(#paint0_linear)" stroke-width="1.90246"/>
<path d="M35.3834 42.444C30.6342 45.0098 25.6201 45.9273 21.3749 45.3789C17.128 44.8302 13.7289 42.8341 12.0043 39.6419C10.2797 36.4496 10.4734 32.5125 12.3425 28.6597C14.2108 24.8085 17.7267 21.1177 22.4759 18.552C27.2252 15.9863 32.2393 15.0687 36.4845 15.6172C40.7314 16.1658 44.1305 18.1619 45.8551 21.3542C47.5797 24.5465 47.386 28.4836 45.5169 32.3364C43.6486 36.1875 40.1327 39.8783 35.3834 42.444Z" stroke="url(#paint1_linear)" stroke-width="1.90246"/>
<path d="M16.4691 43.0298C13.6159 44.5712 10.6171 45.1145 8.09756 44.789C5.57626 44.4633 3.61303 43.2873 2.62559 41.4596C1.63815 39.6318 1.73076 37.3452 2.84038 35.0579C3.94923 32.7721 6.04745 30.5618 8.90065 29.0204C11.7538 27.479 14.7527 26.9357 17.2722 27.2612C19.7935 27.5869 21.7568 28.7629 22.7442 30.5906C23.7316 32.4184 23.639 34.705 22.5294 36.9923C21.4206 39.278 19.3223 41.4884 16.4691 43.0298Z" stroke="url(#paint2_linear)" stroke-width="1.90246"/>
<path d="M12.9163 38.1663C11.0639 39.167 9.13687 39.525 7.54212 39.3374C5.944 39.1495 4.76858 38.4348 4.19547 37.3739C3.62236 36.3131 3.66888 34.9382 4.38771 33.4986C5.10503 32.062 6.4607 30.6464 8.31315 29.6457C10.1656 28.6449 12.0926 28.287 13.6874 28.4745C15.2855 28.6624 16.4609 29.3772 17.034 30.438C17.6071 31.4988 17.5606 32.8737 16.8418 34.3134C16.1245 35.75 14.7688 37.1655 12.9163 38.1663Z" stroke="url(#paint3_linear)" stroke-width="1.90246"/>
</g>
<defs>
<linearGradient id="paint0_linear" x1="44.6945" y1="14.2264" x2="5.22342" y2="35.5504" gradientUnits="userSpaceOnUse">
<stop stop-color="#6542DC" stop-opacity="0"/>
<stop offset="0.337112" stop-color="#6542DC"/>
</linearGradient>
<linearGradient id="paint1_linear" x1="46.692" y1="20.9021" x2="11.1674" y2="40.094" gradientUnits="userSpaceOnUse">
<stop stop-color="#6542DC"/>
<stop offset="1" stop-color="#6542DC" stop-opacity="0"/>
</linearGradient>
<linearGradient id="paint2_linear" x1="23.5811" y1="30.1385" x2="1.78869" y2="41.9117" gradientUnits="userSpaceOnUse">
<stop stop-color="#6542DC"/>
<stop offset="1" stop-color="#6542DC" stop-opacity="0"/>
</linearGradient>
<linearGradient id="paint3_linear" x1="17.8709" y1="29.9859" x2="3.35857" y2="37.8261" gradientUnits="userSpaceOnUse">
<stop stop-color="#6542DC"/>
<stop offset="1" stop-color="#6542DC" stop-opacity="0"/>
</linearGradient>
<clipPath id="clip0">
<rect width="53" height="53" fill="white" transform="translate(0.425781 0.359375)"/>
</clipPath>
</defs>
</svg>
