<svg width="198" height="200" viewBox="0 0 198 200" fill="none" xmlns="http://www.w3.org/2000/svg">
<g clip-path="url(#clip0)">
<rect width="197" height="200" transform="translate(0.574219 -0.03125)" fill="#F8F7FF"/>
<path d="M72.5276 18.8496C85.4801 18.8496 97.902 23.9949 107.061 33.1537C116.22 42.3124 121.365 54.7344 121.365 67.6868L72.5276 67.6868V18.8496Z" fill="#FFF2D4"/>
<path d="M69.9235 119.129C56.9711 119.129 44.5492 113.984 35.3904 104.825C26.2317 95.6661 21.0863 83.2442 21.0863 70.2917L37.6036 70.2917C37.6036 78.8635 41.0087 87.0842 47.0699 93.1454C53.131 99.2066 61.3517 102.612 69.9235 102.612L69.9235 119.129Z" fill="#745EF9"/>
<mask id="path-3-inside-1" fill="white">
<path d="M126.574 69.6406C126.574 82.5965 122.082 95.1516 113.863 105.167C105.644 115.182 94.2062 122.037 81.4993 124.565C68.7923 127.092 55.6021 125.136 44.176 119.028C32.7499 112.921 23.795 103.041 18.837 91.0709C13.879 79.1012 13.2247 65.7827 16.9856 53.3847C20.7465 40.9867 28.6898 30.2762 39.4623 23.0783C50.2347 15.8804 63.1697 12.6404 76.0632 13.9103C88.9567 15.1802 101.011 20.8814 110.172 30.0426L70.5742 69.6406H126.574Z"/>
</mask>
<path d="M126.574 69.6406C126.574 82.5965 122.082 95.1516 113.863 105.167C105.644 115.182 94.2062 122.037 81.4993 124.565C68.7923 127.092 55.6021 125.136 44.176 119.028C32.7499 112.921 23.795 103.041 18.837 91.0709C13.879 79.1012 13.2247 65.7827 16.9856 53.3847C20.7465 40.9867 28.6898 30.2762 39.4623 23.0783C50.2347 15.8804 63.1697 12.6404 76.0632 13.9103C88.9567 15.1802 101.011 20.8814 110.172 30.0426L70.5742 69.6406H126.574Z" stroke="black" stroke-width="2" mask="url(#path-3-inside-1)"/>
<path opacity="0.76" d="M187.074 77.4688L158.074 186.641L104.574 102.469L59.0742 170.969L36.5742 154.641L13.5742 192.969" stroke="#D9D2FB" stroke-width="13" stroke-linecap="round" stroke-linejoin="round"/>
<path d="M58.5742 0.640625V45.6406" stroke="black" stroke-opacity="0.8" stroke-width="2" stroke-linecap="round" stroke-linejoin="round" stroke-dasharray="1 9"/>
<path d="M188.574 72.9688L158.074 191.641L104.074 108.969L58.0742 174.969L31.5742 154.469L9.57422 190.969" stroke="#745EF9" stroke-opacity="0.8" stroke-width="2" stroke-linecap="round" stroke-linejoin="round" stroke-dasharray="1 9"/>
</g>
<defs>
<clipPath id="clip0">
<rect width="197" height="200" fill="white" transform="translate(0.574219 -0.03125)"/>
</clipPath>
</defs>
</svg>
