<svg width="214" height="201" viewBox="0 0 214 201" fill="none" xmlns="http://www.w3.org/2000/svg">
<rect width="197" height="200" transform="translate(16.5742 0.96875)" fill="#F8F7FF"/>
<g clip-path="url(#clip0)">
<g filter="url(#filter0_f)">
<path fill-rule="evenodd" clip-rule="evenodd" d="M79.7219 86.9799C95.6058 86.6979 112.683 91.7342 117.674 105.1C122.728 118.633 112.606 131.884 99.6449 140.327C86.4007 148.954 68.8055 154.123 55.4449 145.637C41.8843 137.025 40.433 120.249 46.1777 106.369C51.2597 94.0897 64.9658 87.2418 79.7219 86.9799Z" fill="url(#paint0_linear)"/>
<path fill-rule="evenodd" clip-rule="evenodd" d="M79.7219 86.9799C95.6058 86.6979 112.683 91.7342 117.674 105.1C122.728 118.633 112.606 131.884 99.6449 140.327C86.4007 148.954 68.8055 154.123 55.4449 145.637C41.8843 137.025 40.433 120.249 46.1777 106.369C51.2597 94.0897 64.9658 87.2418 79.7219 86.9799Z" fill="url(#paint1_linear)"/>
</g>
<g filter="url(#filter1_f)">
<path fill-rule="evenodd" clip-rule="evenodd" d="M79.7219 86.9799C95.6058 86.6979 112.683 91.7342 117.674 105.1C122.728 118.633 112.606 131.884 99.6449 140.327C86.4007 148.954 68.8055 154.123 55.4449 145.637C41.8843 137.025 40.433 120.249 46.1777 106.369C51.2597 94.0897 64.9658 87.2418 79.7219 86.9799Z" fill="url(#paint2_linear)"/>
</g>
<g filter="url(#filter2_f)">
<path fill-rule="evenodd" clip-rule="evenodd" d="M105.722 6.97991C121.606 6.69794 138.683 11.7342 143.674 25.0996C148.728 38.6326 138.606 51.8837 125.645 60.3268C112.401 68.9545 94.8055 74.1229 81.4449 65.6373C67.8843 57.0247 66.433 40.2491 72.1777 26.3688C77.2597 14.0897 90.9658 7.24185 105.722 6.97991Z" fill="url(#paint3_linear)"/>
<path fill-rule="evenodd" clip-rule="evenodd" d="M105.722 6.97991C121.606 6.69794 138.683 11.7342 143.674 25.0996C148.728 38.6326 138.606 51.8837 125.645 60.3268C112.401 68.9545 94.8055 74.1229 81.4449 65.6373C67.8843 57.0247 66.433 40.2491 72.1777 26.3688C77.2597 14.0897 90.9658 7.24185 105.722 6.97991Z" fill="url(#paint4_linear)"/>
</g>
</g>
<path d="M39.0742 38.4688V18.4688H59.0742L39.0742 38.4688Z" stroke="#745EF9" stroke-opacity="0.8" stroke-width="2" stroke-linecap="round" stroke-linejoin="round" stroke-dasharray="1 6"/>
<rect opacity="0.32" x="64.5742" y="43.9688" width="134" height="11" rx="5.5" fill="#745EF9"/>
<rect opacity="0.32" x="77.5742" y="65.9688" width="121" height="11" rx="5.5" fill="#745EF9"/>
<rect x="90.5742" y="87.9688" width="108" height="11" rx="5.5" fill="#FFF2D4"/>
<path d="M164.074 124.969C164.074 133.56 157.552 140.469 149.574 140.469C141.596 140.469 135.074 133.56 135.074 124.969C135.074 116.377 141.596 109.469 149.574 109.469C157.552 109.469 164.074 116.377 164.074 124.969Z" fill="black" stroke="#F8F7FF"/>
<path d="M179.071 174.469H120.078C120.328 157.273 133.468 143.469 149.574 143.469C165.681 143.469 178.82 157.273 179.071 174.469Z" fill="black" stroke="#F8F7FF"/>
<rect x="48.0742" y="26.4688" width="95" height="127" stroke="black"/>
<circle cx="146.574" cy="124.969" r="14.5" fill="#F8F7FF" stroke="black"/>
<path d="M176.07 173.469H117.078C117.345 157.407 130.449 144.469 146.574 144.469C162.7 144.469 175.803 157.407 176.07 173.469Z" fill="#F8F7FF" stroke="black"/>
<g filter="url(#filter3_f)">
<path fill-rule="evenodd" clip-rule="evenodd" d="M54.397 118.979C69.0269 118.715 84.7555 123.432 89.3529 135.948C94.0079 148.622 84.6849 161.032 72.7472 168.939C60.5485 177.019 44.3425 181.859 32.0366 173.912C19.5466 165.847 18.2098 150.136 23.5011 137.137C28.1819 125.638 40.8058 119.225 54.397 118.979Z" fill="url(#paint5_linear)"/>
</g>
<defs>
<filter id="filter0_f" x="-57" y="-13.0312" width="276" height="263" filterUnits="userSpaceOnUse" color-interpolation-filters="sRGB">
<feFlood flood-opacity="0" result="BackgroundImageFix"/>
<feBlend mode="normal" in="SourceGraphic" in2="BackgroundImageFix" result="shape"/>
<feGaussianBlur stdDeviation="50" result="effect1_foregroundBlur"/>
</filter>
<filter id="filter1_f" x="-57" y="-13.0312" width="276" height="263" filterUnits="userSpaceOnUse" color-interpolation-filters="sRGB">
<feFlood flood-opacity="0" result="BackgroundImageFix"/>
<feBlend mode="normal" in="SourceGraphic" in2="BackgroundImageFix" result="shape"/>
<feGaussianBlur stdDeviation="50" result="effect1_foregroundBlur"/>
</filter>
<filter id="filter2_f" x="-31" y="-93.0312" width="276" height="263" filterUnits="userSpaceOnUse" color-interpolation-filters="sRGB">
<feFlood flood-opacity="0" result="BackgroundImageFix"/>
<feBlend mode="normal" in="SourceGraphic" in2="BackgroundImageFix" result="shape"/>
<feGaussianBlur stdDeviation="50" result="effect1_foregroundBlur"/>
</filter>
<filter id="filter3_f" x="0.574219" y="98.9688" width="110" height="99" filterUnits="userSpaceOnUse" color-interpolation-filters="sRGB">
<feFlood flood-opacity="0" result="BackgroundImageFix"/>
<feBlend mode="normal" in="SourceGraphic" in2="BackgroundImageFix" result="shape"/>
<feGaussianBlur stdDeviation="10" result="effect1_foregroundBlur"/>
</filter>
<linearGradient id="paint0_linear" x1="81" y1="86.9688" x2="81" y2="149.969" gradientUnits="userSpaceOnUse">
<stop stop-color="#FF08AB"/>
<stop offset="1" stop-color="#F58A25" stop-opacity="0"/>
<stop offset="1" stop-color="#7061A3" stop-opacity="0"/>
</linearGradient>
<linearGradient id="paint1_linear" x1="81" y1="86.9688" x2="81" y2="149.969" gradientUnits="userSpaceOnUse">
<stop stop-color="#745EF9"/>
<stop offset="1" stop-color="#745EF9" stop-opacity="0.46"/>
</linearGradient>
<linearGradient id="paint2_linear" x1="81" y1="86.9688" x2="81" y2="149.969" gradientUnits="userSpaceOnUse">
<stop stop-color="#FF08AB"/>
<stop offset="1" stop-color="#F58A25" stop-opacity="0"/>
<stop offset="1" stop-color="#7061A3" stop-opacity="0"/>
</linearGradient>
<linearGradient id="paint3_linear" x1="107" y1="6.96875" x2="107" y2="69.9688" gradientUnits="userSpaceOnUse">
<stop stop-color="#FF08AB"/>
<stop offset="1" stop-color="#F58A25" stop-opacity="0"/>
<stop offset="1" stop-color="#7061A3" stop-opacity="0"/>
</linearGradient>
<linearGradient id="paint4_linear" x1="107" y1="6.96875" x2="107" y2="69.9688" gradientUnits="userSpaceOnUse">
<stop stop-color="#FFF2D4"/>
<stop offset="1" stop-color="#FFF2D4"/>
</linearGradient>
<linearGradient id="paint5_linear" x1="55.5742" y1="118.969" x2="55.5742" y2="177.969" gradientUnits="userSpaceOnUse">
<stop stop-color="#745EF9"/>
<stop offset="1" stop-color="#745EF9" stop-opacity="0"/>
</linearGradient>
<clipPath id="clip0">
<rect width="96" height="128" fill="white" transform="translate(42.5742 21.9688)"/>
</clipPath>
</defs>
</svg>
