<svg width="78" height="78" viewBox="0 0 78 78" fill="none" xmlns="http://www.w3.org/2000/svg">
<path d="M28.2019 59.0311C32.1924 59.0294 36.0405 57.5472 39.0014 54.8715C43.9793 59.3458 51.1983 60.2932 57.1628 57.2554C63.1272 54.2176 66.6058 47.8216 65.9141 41.1642C65.2224 34.5063 60.5038 28.962 54.0423 27.2148C56.7466 20.4528 54.6061 12.7174 48.81 8.30729C43.0143 3.89757 34.988 3.89757 29.1924 8.30729C23.3967 12.7174 21.2557 20.4528 23.9605 27.2148C16.1236 29.336 11.0705 36.9338 12.1432 44.9811C13.2159 53.0285 20.0833 59.0364 28.2019 59.0311ZM35.4016 42.8319C35.3994 40.9049 35.7861 38.9978 36.5388 37.2242C38.1687 37.5011 39.8337 37.5011 41.4635 37.2242C43.6203 42.3111 42.6623 48.185 39.0014 52.3236C36.6829 49.7055 35.4024 46.3293 35.4016 42.8319ZM40.5961 35.5421C39.5366 35.6669 38.4662 35.6669 37.4067 35.5421C37.8677 34.7595 38.4016 34.0221 39.0014 33.3396C39.6008 34.0221 40.1347 34.7595 40.5961 35.5421ZM40.2722 32.0692C43.3013 29.3491 47.3511 28.0576 51.3956 28.5226C49.434 31.8469 46.2226 34.2466 42.4786 35.1866C41.8687 34.063 41.1278 33.0153 40.2722 32.0657V32.0692ZM35.5237 35.1936C31.7789 34.2523 28.567 31.8495 26.6072 28.5226C30.6504 28.0559 34.7002 29.3443 37.7306 32.0618C36.8741 33.014 36.1337 34.0643 35.5237 35.1901V35.1936ZM64.2003 42.8319C64.21 48.4975 60.8905 53.6406 55.7236 55.9657C50.5563 58.2907 44.5057 57.3635 40.2722 53.598C44.3761 49.0389 45.5283 42.5418 43.2419 36.8498C47.5383 35.6779 51.1658 32.7947 53.2773 28.8741C59.6864 30.4741 64.1875 36.2258 64.2003 42.8319ZM39.0014 6.83343C43.829 6.83343 48.3354 9.25295 51.0028 13.2768C53.6697 17.3007 54.1434 22.3938 52.2631 26.8404C47.4706 26.0556 42.5828 27.5123 39.0014 30.7922C35.42 27.5123 30.5322 26.0556 25.7393 26.8404C23.8594 22.3938 24.3327 17.3007 27 13.2768C29.6674 9.25295 34.1738 6.83343 39.0014 6.83343ZM24.7242 28.8741C26.8361 32.7947 30.4636 35.6779 34.76 36.8498C32.4732 42.5418 33.6254 49.0389 37.7297 53.598C33.2593 57.5617 26.804 58.3496 21.5119 55.5768C16.2194 52.8044 13.1921 47.0491 13.9058 41.1172C14.6194 35.1853 18.9254 30.3124 24.7242 28.8741Z" fill="black"/>
<path d="M39 0L72.775 58.5H5.22501L39 0Z" fill="#4FCC64" fill-opacity="0.2"/>
</svg>
