<svg width="78" height="78" viewBox="0 0 78 78" fill="none" xmlns="http://www.w3.org/2000/svg">
<path d="M50.5658 30.1894H47.904C47.7414 29.6735 47.5347 29.1741 47.2852 28.6949L49.1672 26.8128C49.4024 26.5776 49.5319 26.2648 49.5319 25.9321C49.5319 25.5993 49.4024 25.2865 49.1672 25.0513L46.9523 22.8362C46.4667 22.351 45.6766 22.3507 45.1908 22.8364L43.3087 24.7185C42.8295 24.469 42.3299 24.2622 41.8142 24.0998V21.4378C41.8141 20.7511 41.2553 20.1923 40.5685 20.1923H37.436C36.7492 20.1923 36.1905 20.751 36.1905 21.4378V24.0998C35.6746 24.2623 35.1752 24.469 34.6959 24.7185L32.8136 22.8362C32.328 22.3509 31.5379 22.351 31.0523 22.8364L28.8375 25.0512C28.6021 25.2864 28.4725 25.5992 28.4725 25.932C28.4725 26.2647 28.6021 26.5774 28.8373 26.8126L30.7195 28.6948C30.47 29.174 30.2632 29.6735 30.1007 30.1893H27.4388C26.7521 30.1893 26.1934 30.748 26.1934 31.4349V34.5674C26.1934 35.2541 26.7521 35.8129 27.4388 35.8129H30.1007C30.2633 36.3286 30.47 36.8283 30.7195 37.3074L28.8373 39.1895C28.3517 39.6751 28.3517 40.4653 28.8373 40.951L31.0523 43.1659C31.5379 43.6517 32.3282 43.6515 32.8137 43.1659L34.6959 41.2838C35.1751 41.5333 35.6748 41.7401 36.1905 41.9025V44.5644C36.1905 45.2511 36.7492 45.8099 37.436 45.8099H40.5685C41.2552 45.8099 41.8141 45.2511 41.8141 44.5644V41.9025C42.3297 41.7401 42.8294 41.5333 43.3086 41.2838L45.1907 43.1659C45.6765 43.6517 46.4667 43.6515 46.9523 43.1659L49.1671 40.951C49.4023 40.7158 49.5318 40.403 49.5318 40.0703C49.5318 39.7376 49.4023 39.4248 49.1671 39.1895L47.285 37.3074C47.5345 36.8282 47.7413 36.3286 47.9037 35.8129H50.5656C51.2524 35.8129 51.8112 35.2541 51.8112 34.5674V31.4349C51.8113 30.7481 51.2525 30.1894 50.5658 30.1894ZM50.0536 34.0551H47.2342C46.826 34.0551 46.4715 34.3362 46.3784 34.7338C46.191 35.5348 45.8765 36.2945 45.4435 36.9917C45.228 37.3385 45.2799 37.7881 45.5685 38.0769L47.562 40.0704L46.0716 41.5608L44.0781 39.5673C43.7894 39.2786 43.3399 39.2265 42.9928 39.4422C42.2955 39.8752 41.5358 40.1897 40.735 40.3772C40.3374 40.4701 40.0563 40.8246 40.0563 41.233V44.0526H37.9487V41.233C37.9487 40.8247 37.6675 40.4702 37.2699 40.3772C36.4692 40.1899 35.7094 39.8754 35.0121 39.4422C34.6653 39.227 34.2157 39.2786 33.9268 39.5673L31.9333 41.5608L30.4429 40.0704L32.4364 38.0769C32.7251 37.7882 32.7769 37.3387 32.5616 36.9917C32.1285 36.2944 31.814 35.5347 31.6266 34.7338C31.5337 34.3362 31.1791 34.0551 30.7708 34.0551H27.9514V31.9474H30.7708C31.1791 31.9474 31.5336 31.6663 31.6266 31.2687C31.814 30.4678 32.1285 29.7081 32.5616 29.0108C32.7769 28.664 32.7251 28.2144 32.4364 27.9256L30.4429 25.9321L31.9333 24.4417L33.9268 26.4352C34.2153 26.7239 34.6651 26.7758 35.0121 26.5603C35.7092 26.1273 36.4689 25.8128 37.2699 25.6254C37.6675 25.5325 37.9487 25.178 37.9487 24.7696V21.9501H40.0563V24.7696C40.0563 25.1779 40.3374 25.5324 40.735 25.6254C41.5359 25.8128 42.2955 26.1273 42.9929 26.5603C43.3395 26.7756 43.7893 26.7237 44.0781 26.4352L46.0716 24.4417L47.562 25.9321L45.5685 27.9256C45.2798 28.2143 45.228 28.6639 45.4435 29.0108C45.8764 29.7079 46.1909 30.4676 46.3784 31.2687C46.4715 31.6663 46.8258 31.9474 47.2342 31.9474H50.0536V34.0551Z" fill="black"/>
<path d="M39.0016 28.2924C36.4052 28.2924 34.293 30.4047 34.293 33.0009C34.293 35.5972 36.4053 37.7095 39.0016 37.7095C41.5978 37.7095 43.7101 35.5972 43.7101 33.0009C43.7101 30.4047 41.598 28.2924 39.0016 28.2924ZM39.0016 35.9517C37.3745 35.9517 36.0508 34.628 36.0508 33.0009C36.0508 31.3739 37.3745 30.0502 39.0016 30.0502C40.6286 30.0502 41.9523 31.3739 41.9523 33.0009C41.9523 34.628 40.6286 35.9517 39.0016 35.9517Z" fill="black"/>
<path d="M18.7948 32.1219H15.8789C15.3935 32.1219 15 32.5155 15 33.0009C15 33.4862 15.3935 33.8798 15.8789 33.8798H18.7948C19.2802 33.8798 19.6737 33.4862 19.6737 33.0009C19.6737 32.5155 19.2802 32.1219 18.7948 32.1219Z" fill="black"/>
<path d="M62.1229 32.1219H59.207C58.7215 32.1219 58.3281 32.5155 58.3281 33.0009C58.3281 33.4862 58.7215 33.8798 59.207 33.8798H62.1229C62.6084 33.8798 63.0018 33.4862 63.0018 33.0009C63.0018 32.5155 62.6083 32.1219 62.1229 32.1219Z" fill="black"/>
<path d="M25.3337 46.6672C24.9906 46.324 24.4341 46.324 24.0907 46.6672L22.0289 48.729C21.6857 49.0723 21.6857 49.6288 22.0289 49.972C22.3722 50.3153 22.9287 50.3153 23.2719 49.972L25.3337 47.9102C25.677 47.567 25.677 47.0105 25.3337 46.6672Z" fill="black"/>
<path d="M55.9725 16.0298C55.6291 15.6865 55.0727 15.6865 54.7294 16.0298L52.6676 18.0916C52.3243 18.4348 52.3243 18.9913 52.6676 19.3346C53.0109 19.6778 53.5674 19.6777 53.9107 19.3346L55.9725 17.2728C56.3157 16.9294 56.3157 16.3729 55.9725 16.0298Z" fill="black"/>
<path d="M39.002 9C38.5164 9 38.123 9.39352 38.123 9.87891V12.7948C38.123 13.2802 38.5164 13.6737 39.002 13.6737C39.4875 13.6737 39.8809 13.2802 39.8809 12.7948V9.87891C39.8809 9.39352 39.4875 9 39.002 9Z" fill="black"/>
<path d="M55.9725 48.729L53.9107 46.6672C53.5674 46.324 53.0109 46.324 52.6676 46.6672C52.3243 47.0105 52.3243 47.5671 52.6676 47.9102L54.7294 49.972C55.0727 50.3153 55.6291 50.3153 55.9725 49.972C56.3157 49.6288 56.3157 49.0723 55.9725 48.729Z" fill="black"/>
<path d="M25.3337 18.0916L23.2719 16.0298C22.9287 15.6865 22.3722 15.6865 22.0289 16.0298C21.6857 16.373 21.6857 16.9295 22.0289 17.2728L24.0907 19.3346C24.434 19.6778 24.9905 19.6778 25.3337 19.3346C25.677 18.9912 25.677 18.4347 25.3337 18.0916Z" fill="black"/>
<path d="M56.5367 30.8476C55.5909 22.7764 49.1928 16.3777 41.1594 15.3985C40.6783 15.3393 40.2392 15.6828 40.1804 16.1645C40.1217 16.6464 40.4647 17.0847 40.9465 17.1435C48.2423 18.0327 53.9352 23.7523 54.7906 31.0523C54.843 31.4996 55.2228 31.8289 55.6623 31.8289C55.6966 31.8289 55.731 31.8269 55.7658 31.8229C56.2482 31.7665 56.5932 31.3299 56.5367 30.8476Z" fill="black"/>
<path d="M55.7541 34.1796C55.2717 34.1182 54.8326 34.4596 54.7717 34.9412C54.1725 39.6742 51.5011 43.8504 47.4424 46.3986C45.6927 47.4973 44.6482 49.3774 44.6482 51.428V55.0452H33.3533V51.3479C33.3533 49.3623 32.3157 47.4864 30.6454 46.4524C25.922 43.5286 23.102 38.4711 23.1019 32.9236C23.1019 24.9136 29.1017 18.1301 37.0579 17.1445C37.5396 17.0849 37.8817 16.6459 37.8221 16.1642C37.7624 15.6825 37.3237 15.3395 36.8417 15.4C28.0509 16.489 21.3436 24.0488 21.3438 32.9236C21.3438 35.9861 22.1403 39.0034 23.6474 41.6495C25.1084 44.2147 27.2083 46.3923 29.7198 47.947C30.8766 48.663 31.5951 49.9662 31.5951 51.3478V55.1731C30.7014 55.4837 30.057 56.3324 30.057 57.3304V58.5834C30.057 59.1139 30.2403 59.6015 30.5446 59.9898C30.2401 60.378 30.057 60.8655 30.057 61.3961V62.649C30.057 63.9091 31.0823 64.9343 32.3423 64.9343H35.1055V66.9212C35.1055 68.0674 36.038 68.9998 37.1841 68.9998H40.8165C41.9628 68.9998 42.8951 68.0674 42.8951 66.9212V64.9343H45.6584C46.9185 64.9343 47.9436 63.909 47.9436 62.649V61.3961C47.9436 60.8656 47.7604 60.378 47.4559 59.9898C47.7604 59.6015 47.9436 59.114 47.9436 58.5834V57.3304C47.9436 56.3322 47.2993 55.4837 46.4056 55.1731V51.4278C46.4056 49.9858 47.1423 48.6623 48.3767 47.8874C52.883 45.058 55.8495 40.4197 56.515 35.162C56.5765 34.6804 56.2356 34.2405 55.7541 34.1796ZM41.1375 66.9211C41.1375 67.0948 40.9907 67.2418 40.8169 67.2418H37.1844C37.0106 67.2418 36.8638 67.095 36.8638 66.9211V64.9342H41.1375V66.9211ZM46.1862 62.6489C46.1862 62.9347 45.9447 63.1762 45.6588 63.1762C44.1073 63.1762 33.8067 63.1762 32.3426 63.1762C32.0568 63.1762 31.8153 62.9347 31.8153 62.6489V61.396C31.8153 61.1102 32.0568 60.8687 32.3426 60.8687H45.6588C45.9447 60.8687 46.1862 61.1102 46.1862 61.396V62.6489ZM46.1862 58.5833C46.1862 58.8691 45.9447 59.1106 45.6588 59.1106H32.3426C32.0568 59.1106 31.8153 58.8691 31.8153 58.5833V57.3303C31.8153 57.0445 32.0568 56.803 32.3426 56.803H45.6588C45.9447 56.803 46.1862 57.0445 46.1862 57.3303V58.5833Z" fill="black"/>
<path d="M39 0L72.775 58.5H5.22501L39 0Z" fill="#4FCC64" fill-opacity="0.2"/>
</svg>
