<svg width="78" height="78" viewBox="0 0 78 78" fill="none" xmlns="http://www.w3.org/2000/svg">
<path d="M33.1215 49.733C32.9289 49.733 32.7348 49.6667 32.5765 49.5319L27.128 44.8925C26.9401 44.7323 26.832 44.4983 26.832 44.2512C26.832 44.0045 26.9406 43.7705 27.128 43.6103L32.5765 38.9709C32.9303 38.6693 33.4617 38.7121 33.7633 39.0659C34.0645 39.4201 34.0222 39.9515 33.668 40.2527L28.9727 44.2512L33.668 48.2496C34.0222 48.5513 34.0645 49.0827 33.7633 49.4365C33.5965 49.6324 33.3597 49.733 33.1215 49.733Z" fill="black"/>
<path d="M43.8795 49.733C43.6413 49.733 43.4045 49.6324 43.2382 49.4365C42.9365 49.0827 42.9793 48.5513 43.3331 48.2496L48.0283 44.2512L43.3331 40.2527C42.9793 39.9515 42.9365 39.4201 43.2382 39.0659C43.5393 38.7121 44.0712 38.6693 44.4245 38.9709L49.873 43.6103C50.0609 43.7705 50.169 44.0045 50.169 44.2512C50.169 44.4983 50.0609 44.7323 49.873 44.8925L44.4245 49.5319C44.2662 49.6667 44.0721 49.733 43.8795 49.733Z" fill="black"/>
<path d="M36.5699 53.2126C36.5121 53.2126 36.4538 53.2065 36.3951 53.1943C35.9403 53.0985 35.649 52.6516 35.7448 52.1968L39.1405 36.0747C39.2363 35.6198 39.6827 35.3285 40.138 35.4244C40.5928 35.5202 40.8841 35.9666 40.7882 36.4219L37.3926 52.544C37.309 52.9406 36.9594 53.2126 36.5699 53.2126Z" fill="black"/>
<path d="M58.3467 61.9962H18.6533C15.5363 61.9962 13 59.4604 13 56.3429V22.6533C13 19.5363 15.5363 17 18.6533 17H58.3467C61.4637 17 64 19.5363 64 22.6533V56.3429C64 59.4604 61.4637 61.9962 58.3467 61.9962ZM18.6533 18.684C16.4647 18.684 14.684 20.4647 14.684 22.6533V56.3429C14.684 58.5315 16.4647 60.3122 18.6533 60.3122H58.3467C60.5353 60.3122 62.316 58.5315 62.316 56.3429V22.6533C62.316 20.4647 60.5353 18.684 58.3467 18.684H18.6533Z" fill="black"/>
<path d="M63.158 30.4828H13.842C13.3768 30.4828 13 30.106 13 29.6408C13 29.1761 13.3768 28.7988 13.842 28.7988H63.158C63.6232 28.7988 64 29.1761 64 29.6408C64 30.106 63.6232 30.4828 63.158 30.4828Z" fill="black"/>
<path d="M27.3853 26.4537C25.9165 26.4537 24.7207 25.258 24.7207 23.7892C24.7207 22.3199 25.9165 21.1246 27.3853 21.1246C28.8545 21.1246 30.0498 22.3199 30.0498 23.7892C30.0498 25.258 28.8545 26.4537 27.3853 26.4537ZM27.3853 22.8086C26.8449 22.8086 26.4047 23.2484 26.4047 23.7892C26.4047 24.33 26.8449 24.7698 27.3853 24.7698C27.9261 24.7698 28.3658 24.33 28.3658 23.7892C28.3658 23.2484 27.9261 22.8086 27.3853 22.8086Z" fill="black"/>
<path d="M19.1997 26.428C17.7305 26.428 16.5352 25.2327 16.5352 23.7634C16.5352 22.2942 17.7305 21.0989 19.1997 21.0989C20.6689 21.0989 21.8643 22.2942 21.8643 23.7634C21.8643 25.2327 20.6689 26.428 19.1997 26.428ZM19.1997 22.7828C18.6594 22.7828 18.2191 23.2231 18.2191 23.7634C18.2191 24.3042 18.6594 24.744 19.1997 24.744C19.7405 24.744 20.1803 24.3042 20.1803 23.7634C20.1803 23.2231 19.7405 22.7828 19.1997 22.7828Z" fill="black"/>
<path d="M35.5723 26.479C34.1035 26.479 32.9082 25.2837 32.9082 23.8145C32.9082 22.3457 34.1035 21.1504 35.5723 21.1504C37.0415 21.1504 38.2368 22.3457 38.2368 23.8145C38.2368 25.2837 37.0415 26.479 35.5723 26.479ZM35.5723 22.8339C35.032 22.8339 34.5922 23.2737 34.5922 23.8145C34.5922 24.3553 35.032 24.7951 35.5723 24.7951C36.1131 24.7951 36.5529 24.3553 36.5529 23.8145C36.5529 23.2737 36.1131 22.8339 35.5723 22.8339Z" fill="black"/>
<path d="M39 0L72.775 58.5H5.22501L39 0Z" fill="#4FCC64" fill-opacity="0.2"/>
</svg>
