<svg width="78" height="78" viewBox="0 0 78 78" fill="none" xmlns="http://www.w3.org/2000/svg">
<path d="M39 42.2933C38.774 42.2933 38.5523 42.3853 38.3924 42.5451C38.2326 42.705 38.1406 42.9267 38.1406 43.1527C38.1406 43.3787 38.2325 43.6004 38.3924 43.7603C38.5524 43.9201 38.774 44.0121 39 44.0121C39.226 44.0121 39.4477 43.9201 39.6075 43.7603C39.7673 43.6004 39.8594 43.3787 39.8594 43.1527C39.8594 42.9267 39.7674 42.705 39.6075 42.5451C39.4477 42.3853 39.226 42.2933 39 42.2933Z" fill="black"/>
<path d="M39 32.7668C42.7909 32.7668 45.875 29.6827 45.875 25.8918C45.875 22.101 42.7909 19.0168 39 19.0168C35.2091 19.0168 32.125 22.101 32.125 25.8918C32.125 29.6827 35.2091 32.7668 39 32.7668ZM39 20.7356C41.8432 20.7356 44.1562 23.0487 44.1562 25.8918C44.1562 28.735 41.8432 31.0481 39 31.0481C36.1568 31.0481 33.8438 28.735 33.8438 25.8918C33.8438 23.0487 36.1568 20.7356 39 20.7356Z" fill="black"/>
<path d="M57.3906 17.6406H48.98L46.5242 15.1848C46.363 15.0237 46.1444 14.9331 45.9165 14.9331C45.6886 14.9331 45.47 15.0237 45.3088 15.1848L44.3935 16.1002C43.6684 15.6998 42.9041 15.383 42.1091 15.1536V13.8594C42.1091 13.3847 41.7243 13 41.2498 13H36.7503C36.2758 13 35.891 13.3847 35.891 13.8594V15.1536C35.096 15.383 34.3316 15.6998 33.6066 16.1002L32.6912 15.1848C32.5301 15.0237 32.3115 14.9331 32.0836 14.9331C31.8557 14.9331 31.6371 15.0237 31.4759 15.1848L29.02 17.6406H20.6094C18.6191 17.6406 17 19.2598 17 21.25V45.4844C17 47.4746 18.6191 49.0938 20.6094 49.0938H35.011V51.7805C35.011 53.2652 34.2605 54.6231 33.0033 55.4129C32.679 55.6167 32.5286 56.0104 32.6346 56.3785C32.7406 56.7466 33.0774 57 33.4604 57H44.5396C44.9226 57 45.2594 56.7466 45.3654 56.3785C45.4714 56.0104 45.321 55.6167 44.9967 55.4129C43.7395 54.6231 42.989 53.2652 42.989 51.7805V49.0938H57.3906C59.3809 49.0938 61 47.4746 61 45.4844V21.25C61 19.2598 59.3809 17.6406 57.3906 17.6406ZM32.0835 17.0078L32.8629 17.7873C33.1477 18.072 33.592 18.1209 33.9318 17.9048C34.8573 17.3162 35.8683 16.8974 36.9369 16.6597C37.33 16.5722 37.6097 16.2236 37.6097 15.8208V14.7188H40.3904V15.8208C40.3904 16.2236 40.6701 16.5722 41.0632 16.6597C42.1318 16.8974 43.1428 17.3163 44.0683 17.9048C44.4079 18.1208 44.8523 18.0721 45.1371 17.7873L45.9166 17.0078L47.8828 18.9741L47.1037 19.7532C46.819 20.038 46.7701 20.4824 46.9864 20.8222C47.5753 21.7477 47.9944 22.7588 48.2323 23.8275C48.3197 24.2206 48.6684 24.5002 49.0711 24.5002H50.1719V27.2809H49.0716C48.6688 27.2809 48.3201 27.5606 48.2327 27.9539C47.995 29.023 47.576 30.0345 46.9873 30.9603C46.7711 31.3 46.82 31.7443 47.1047 32.0291L47.8828 32.8072L45.9165 34.7735L45.1388 33.9957C44.8539 33.7109 44.4094 33.6621 44.0698 33.8783C43.144 34.4674 42.1324 34.8867 41.0632 35.1245C40.6701 35.2119 40.3904 35.5607 40.3904 35.9634V37.0625H37.6097V35.9634C37.6097 35.5607 37.33 35.212 36.9369 35.1246C35.8677 34.8867 34.8561 34.4675 33.9303 33.8784C33.5907 33.6622 33.1462 33.711 32.8613 33.9958L32.0836 34.7736L30.1173 32.8073L30.8954 32.0292C31.1801 31.7444 31.229 31.3001 31.0128 30.9603C30.424 30.0346 30.005 29.0231 29.7674 27.954C29.68 27.5607 29.3313 27.281 28.9285 27.281H27.8281V24.5003H28.9291C29.3318 24.5003 29.6804 24.2207 29.7679 23.8276C30.0059 22.7588 30.425 21.7478 31.0137 20.8223C31.23 20.4825 31.1811 20.0381 30.8964 19.7533L30.1173 18.9742L32.0835 17.0078ZM42.3902 55.2812H35.6098C36.3297 54.2786 36.7297 53.0634 36.7297 51.7805V49.0938H41.2703V51.7805C41.2703 53.0634 41.6703 54.2786 42.3902 55.2812ZM57.3906 47.375H20.6094C19.5669 47.375 18.7188 46.5269 18.7188 45.4844V44.0123H35.1442C35.6188 44.0123 36.0036 43.6275 36.0036 43.1529C36.0036 42.6783 35.6188 42.2935 35.1442 42.2935H18.7188V21.25C18.7188 20.2075 19.5669 19.3594 20.6094 19.3594H28.1341C28.1743 19.4396 28.2272 19.5149 28.2942 19.5818L29.2091 20.4967C28.8085 21.2218 28.4915 21.9863 28.2619 22.7815H26.9688C26.4942 22.7815 26.1094 23.1662 26.1094 23.6409V28.1403C26.1094 28.6149 26.4942 28.9997 26.9688 28.9997H28.2611C28.4906 29.7952 28.8075 30.56 29.2082 31.2855L28.2942 32.1995C27.9586 32.5351 27.9586 33.0792 28.2942 33.4149L31.4757 36.5965C31.8114 36.932 32.3554 36.932 32.6912 36.5965L33.6047 35.6829C34.3302 36.0838 35.0953 36.4009 35.891 36.6306V37.9219C35.891 38.3965 36.2758 38.7812 36.7503 38.7812H41.2498C41.7243 38.7812 42.1091 38.3965 42.1091 37.9219V36.6306C42.9048 36.401 43.6698 36.0838 44.3954 35.6829L45.3089 36.5965C45.6446 36.932 46.1886 36.932 46.5243 36.5965L49.7059 33.4149C50.0415 33.0793 50.0415 32.5351 49.7059 32.1995L48.7919 31.2855C49.1925 30.56 49.5095 29.7952 49.739 28.9997H51.0312C51.5058 28.9997 51.8906 28.6149 51.8906 28.1403V23.6409C51.8906 23.1662 51.5058 22.7815 51.0312 22.7815H49.7381C49.5084 21.9864 49.1915 21.2219 48.7909 20.4967L49.7058 19.5818C49.7727 19.5149 49.8257 19.4396 49.8659 19.3594H57.3906C58.4331 19.3594 59.2812 20.2075 59.2812 21.25V42.2935H42.8784C42.4039 42.2935 42.0191 42.6783 42.0191 43.1529C42.0191 43.6275 42.4039 44.0123 42.8784 44.0123H59.2812V45.4844C59.2812 46.5269 58.4331 47.375 57.3906 47.375Z" fill="black"/>
<path d="M39 0L72.775 58.5H5.22501L39 0Z" fill="#4FCC64" fill-opacity="0.2"/>
</svg>
