<svg width="78" height="78" viewBox="0 0 78 78" fill="none" xmlns="http://www.w3.org/2000/svg">
<path d="M39 13C26.8483 13 17 22.85 17 35C17 47.15 26.8483 57 39 57C51.1517 57 61 47.15 61 35C61 22.85 51.1517 13 39 13ZM39.8919 55.1937V51.6487C39.8919 51.1557 39.4923 50.7567 39 50.7567C38.5077 50.7567 38.1081 51.1557 38.1081 51.6487V55.1937C27.6687 54.7375 19.2624 46.3306 18.8064 35.8919H22.3513C22.8437 35.8919 23.2433 35.4923 23.2433 35C23.2433 34.5071 22.8437 34.1081 22.3513 34.1081H18.8064C19.2625 23.6694 27.6689 15.2624 38.1081 14.8064V18.3513C38.1081 18.8437 38.5077 19.2433 39 19.2433C39.4923 19.2433 39.8919 18.8437 39.8919 18.3513V14.8064C50.3313 15.2625 58.7377 23.6694 59.1937 34.1081H55.6487C55.1563 34.1081 54.7567 34.5071 54.7567 35.0001C54.7567 35.4924 55.1563 35.892 55.6487 35.892H59.1937C58.7375 46.3306 50.3311 54.7375 39.8919 55.1937Z" fill="black"/>
<path d="M50.582 22.6071C50.3739 22.6071 50.1289 22.6564 49.8549 22.7599L35.3848 28.2266C34.1612 28.6886 32.7823 30.0687 32.3203 31.2917L26.8542 45.7618C26.495 46.7114 26.79 47.2988 27.5112 47.2988C27.7194 47.2988 27.9644 47.2495 28.2383 47.146L42.7084 41.6793C43.9321 41.2173 45.3109 39.8372 45.7729 38.6141L51.2391 24.144C51.5982 23.1945 51.304 22.6071 50.582 22.6071ZM42.0782 40.0109L29.078 44.9223L33.9895 31.9221C34.049 31.7657 34.1453 31.5974 34.2588 31.4267L35.9634 33.132C35.6287 33.6755 35.4319 34.3141 35.4319 35.0002C35.4319 36.9706 37.029 38.5677 39.0001 38.5677C39.6857 38.5677 40.3243 38.3709 40.8677 38.0355L42.5737 39.7414C42.4034 39.8551 42.2346 39.952 42.0782 40.0109ZM37.2156 35.0002C37.2156 34.0167 38.016 33.2164 39 33.2164C39.9828 33.2164 40.7832 34.0167 40.7832 35.0002C40.7832 35.9837 39.9828 36.784 39 36.784C38.016 36.784 37.2156 35.9837 37.2156 35.0002ZM44.1046 37.9839C44.045 38.1403 43.9488 38.309 43.8345 38.4797L42.1061 36.7506C42.3981 36.2332 42.5669 35.6368 42.5669 35.0001C42.5669 33.0296 40.9698 31.4326 38.9999 31.4326C38.3631 31.4326 37.7661 31.6015 37.2482 31.8934L35.5203 30.1649C35.6908 30.0507 35.8592 29.9545 36.0161 29.8949L49.0157 24.9835L44.1046 37.9839Z" fill="black"/>
<path d="M39 0L72.775 58.5H5.22501L39 0Z" fill="#4FCC64" fill-opacity="0.2"/>
</svg>
