<svg width="78" height="78" viewBox="0 0 78 78" fill="none" xmlns="http://www.w3.org/2000/svg">
<path d="M67.9541 56.6585V51.5549H62.5102V48.1525H60.6956V45.3172H62.5102V40.2136H48.9412V41.9148H60.809V43.616H25.6104V45.3172H58.9943V48.1525H21.965C21.1832 48.1525 20.5473 47.5166 20.5473 46.7349C20.5473 45.9531 21.1832 45.3172 21.965 45.3172H23.9092V43.616H21.965C20.2453 43.616 18.8461 45.0151 18.8461 46.7349C18.8461 48.4547 20.2453 49.8537 21.965 49.8537H60.8089V51.5549H31.4917V53.2561H66.2527V54.9573H18.2223C15.5645 54.9573 13.4023 57.1195 13.4023 59.7774C13.4023 62.4352 15.5645 64.5974 18.2223 64.5974H58.2894V62.8962H18.2224C16.5026 62.8962 15.1036 61.4972 15.1036 59.7774C15.1036 58.0576 16.5026 56.6585 18.2224 56.6585H64.4383V59.4938H26.7284V61.195H64.4383V62.8962H59.9908V64.5974H66.2529V66.2986H18.2224C14.6266 66.2986 11.7012 63.3732 11.7012 59.7774C11.7012 56.1815 14.6266 53.2561 18.2224 53.2561H29.7906V51.5549H21.9651C19.3072 51.5549 17.145 49.3927 17.145 46.7349C17.145 44.077 19.3072 41.9148 21.9651 41.9148H47.24V40.2136H21.9651C18.3692 40.2136 15.4438 43.139 15.4438 46.7349C15.4438 48.6563 16.2796 50.3859 17.6062 51.5804C13.3593 51.897 10 55.451 10 59.7774C10 64.3113 13.6885 67.9998 18.2224 67.9998H67.9541V62.8962H66.1394V56.6585H67.9541Z" fill="black"/>
<path d="M23.3262 59.4941H25.0274V61.1953H23.3262V59.4941Z" fill="black"/>
<path d="M25.6512 35.2819L26.03 35.5345C26.1776 35.6329 29.7526 37.9456 38.9772 37.9456C48.2018 37.9456 51.7768 35.6329 51.9244 35.5345L52.3032 35.2819V20.9608L57.4068 19.2596V27.2903C56.0994 27.6616 55.1386 28.8655 55.1386 30.2903V34.5433H61.3763V30.2903C61.3763 28.8655 60.4154 27.6616 59.108 27.2903V18.6925L62.0814 17.7014L53.1483 14.7237L52.6102 16.3375L56.7017 17.7013L38.9772 23.6096L21.2527 17.7014L38.9772 11.7933L50.9964 15.7997L51.5344 14.1858L38.9772 10L15.873 17.7014L25.6512 20.9608V35.2819ZM59.6751 30.2903V32.8421H56.8398V30.2903C56.8398 29.5085 57.4757 28.8726 58.2574 28.8726C59.0392 28.8726 59.6751 29.5085 59.6751 30.2903ZM27.3524 21.5279L38.9772 25.4028L50.602 21.5279V28.1921H48.5039V29.8933H50.602V31.5945H46.9161V33.2957H50.602V34.3212C49.5058 34.855 45.9788 36.2445 38.9772 36.2445C31.9703 36.2445 28.4432 34.8529 27.3524 34.3216V21.5279Z" fill="black"/>
<path d="M19.9238 59.4941H21.625V61.1953H19.9238V59.4941Z" fill="black"/>
<path d="M43.5137 31.5945H45.2149V33.2957H43.5137V31.5945Z" fill="black"/>
<path d="M39 0L72.775 58.5H5.22501L39 0Z" fill="#4FCC64" fill-opacity="0.2"/>
</svg>
