<svg width="78" height="78" viewBox="0 0 78 78" fill="none" xmlns="http://www.w3.org/2000/svg">
<path d="M39 0L72.775 58.5H5.22501L39 0Z" fill="#4FCC64" fill-opacity="0.2"/>
<path d="M52.2791 13.2236H26.8509C25.2788 13.2236 24 14.5026 24 16.0746V53.3623C24 54.9344 25.279 56.2132 26.8509 56.2132H52.2791C53.8512 56.2132 55.13 54.9342 55.13 53.3618V16.0746C55.1302 14.5026 53.8512 13.2236 52.2791 13.2236ZM53.6473 53.3618C53.6473 54.1164 53.0332 54.7305 52.2786 54.7305H26.8507C26.0961 54.7305 25.482 54.1164 25.482 53.3618V16.0746C25.482 15.32 26.0961 14.7059 26.8507 14.7059H52.2786C53.0332 14.7059 53.6473 15.32 53.6473 16.0746V53.3618Z" fill="black"/>
<path d="M51.4225 16.1885H45.4928C45.0837 16.1885 44.7517 16.5205 44.7517 16.9296C44.7517 17.3387 45.0837 17.6707 45.4928 17.6707H50.6812V51.7659H28.4451V17.671H33.6335C34.0426 17.671 34.3746 17.3389 34.3746 16.9298C34.3746 16.5207 34.0426 16.1887 33.6335 16.1887H27.704C27.2949 16.1887 26.9629 16.5207 26.9629 16.9298V52.5075C26.9629 52.9166 27.2949 53.2486 27.704 53.2486H51.4225C51.8316 53.2486 52.1636 52.9166 52.1636 52.5075V16.9298C52.1639 16.5207 51.8316 16.1885 51.4225 16.1885Z" fill="black"/>
<path d="M43.38 13.2236H42.4365C42.1062 11.9466 40.9442 11 39.5653 11C38.1864 11 37.0245 11.9466 36.6942 13.2236H35.7507C34.1757 13.2236 32.8945 14.5048 32.8945 16.0798V16.2969C32.8945 17.8719 34.1757 19.1531 35.7507 19.1531H43.3798C44.9548 19.1531 46.2359 17.8719 46.2359 16.2969V16.0798C46.2361 14.5048 44.955 13.2236 43.38 13.2236ZM44.7537 16.2969C44.7537 17.0543 44.1374 17.6708 43.3798 17.6708H35.7507C34.9933 17.6708 34.3768 17.0545 34.3768 16.2969V16.0798C34.3768 15.3223 34.9931 14.7059 35.7507 14.7059H37.3417C37.7508 14.7059 38.0829 14.3738 38.0829 13.9647C38.0829 13.1472 38.7478 12.4823 39.5653 12.4823C40.3829 12.4823 41.0478 13.1472 41.0478 13.9647C41.0478 14.3738 41.3798 14.7059 41.7889 14.7059H43.38C44.1374 14.7059 44.7539 15.3221 44.7539 16.0798V16.2969H44.7537Z" fill="black"/>
<path d="M47.7176 40.6478H31.411C31.0019 40.6478 30.6699 40.9798 30.6699 41.389C30.6699 41.7981 31.0019 42.1301 31.411 42.1301H47.7174C48.1265 42.1301 48.4585 41.7981 48.4585 41.389C48.4587 40.9798 48.1267 40.6478 47.7176 40.6478Z" fill="black"/>
<path d="M43.2702 43.6128H31.411C31.0019 43.6128 30.6699 43.9448 30.6699 44.3539C30.6699 44.763 31.0019 45.0951 31.411 45.0951H43.2702C43.6793 45.0951 44.0113 44.763 44.0113 44.3539C44.0113 43.9448 43.6795 43.6128 43.2702 43.6128Z" fill="black"/>
<path d="M43.2702 48.8013H31.411C31.0019 48.8013 30.6699 49.1333 30.6699 49.5424C30.6699 49.9515 31.0019 50.2835 31.411 50.2835H43.2702C43.6793 50.2835 44.0113 49.9515 44.0113 49.5424C44.0113 49.1333 43.6795 48.8013 43.2702 48.8013Z" fill="black"/>
<path d="M39.5652 19.8943C34.2518 19.8943 29.9297 24.2166 29.9297 29.5298C29.9297 34.843 34.252 39.1654 39.5652 39.1654C44.8784 39.1654 49.2008 34.843 49.2008 29.5298C49.2008 24.2166 44.8784 19.8943 39.5652 19.8943ZM39.5652 37.6831C35.0694 37.6831 31.4119 34.0257 31.4119 29.5298C31.4119 25.034 35.0694 21.3765 39.5652 21.3765C44.0611 21.3765 47.7185 25.034 47.7185 29.5298C47.7185 34.0257 44.0609 37.6831 39.5652 37.6831Z" fill="black"/>
<path d="M43.7438 24.5133C43.4292 24.2512 42.9619 24.2936 42.7002 24.6082L38.9942 29.0554C38.7321 29.3696 38.7744 29.8369 39.089 30.099C39.2276 30.2148 39.3959 30.271 39.5631 30.271C39.7755 30.271 39.9863 30.1802 40.1327 30.0041L43.8387 25.5569C44.1008 25.2427 44.0585 24.7754 43.7438 24.5133Z" fill="black"/>
</svg>
