<svg width="78" height="78" viewBox="0 0 78 78" fill="none" xmlns="http://www.w3.org/2000/svg">
<path d="M38.6478 55.9071C39.1053 55.9071 39.476 55.5364 39.476 55.079C39.476 54.6216 39.1053 54.2508 38.6478 54.2508H35.0621C34.6047 54.2508 34.234 54.6216 34.234 55.079C34.234 55.5364 34.6047 55.9071 35.0621 55.9071H38.6478Z" fill="black" stroke="black" stroke-width="0.2"/>
<path d="M55.8351 32.5262L55.905 32.5977L55.8351 32.5262C54.2964 34.0288 52.2764 34.9012 50.1474 34.9834C49.19 35.0203 48.2447 34.9017 47.3365 34.6313L47.3365 34.6313C46.922 34.508 46.4826 34.6296 46.19 34.9485L46.19 34.9485C45.6977 35.4852 45.1329 35.9397 44.642 36.2869C44.6656 35.3926 44.6725 34.5647 44.6622 33.8156C44.6578 33.4912 44.512 33.1851 44.262 32.9752L44.2619 32.9752C42.2714 31.3068 41.1443 28.8619 41.1696 26.2671C41.1913 24.0214 42.0813 21.8973 43.6764 20.2854C45.2716 18.6734 47.3862 17.7616 49.6311 17.7174L49.6311 17.7174C52.0452 17.6678 54.3008 18.5931 55.9858 20.3182C57.6703 22.0429 58.54 24.3223 58.4352 26.7382C58.3852 27.89 58.109 29.0012 57.614 30.0413L57.7043 30.0843L57.6139 30.0414C57.4174 30.4544 57.593 30.9485 58.0059 31.145C58.4183 31.3414 58.9129 31.1661 59.1095 30.7531L59.0192 30.7101L59.1095 30.7531C59.7004 29.5114 60.0303 28.1847 60.0899 26.81C60.2147 23.9328 59.1778 21.2158 57.1707 19.1608C56.7459 18.7258 56.2902 18.3338 55.8089 17.9863V12.2406C55.8089 10.3986 54.3103 8.9 52.4683 8.9H29.5552C29.0978 8.9 28.727 9.27073 28.727 9.72815C28.727 10.1856 29.0978 10.5563 29.5552 10.5563H52.4683C53.3969 10.5563 54.1526 11.312 54.1526 12.2406V17.013C53.5692 16.741 52.9608 16.5259 52.334 16.369V14.2042C52.334 13.177 51.4985 12.3416 50.4714 12.3416H23.2376C22.2104 12.3416 21.3749 13.177 21.3749 14.2042V50.6031C21.3749 51.6302 22.2104 52.4657 23.2376 52.4657H50.4714C51.4985 52.4657 52.334 51.6302 52.334 50.6031V36.3307C52.9597 36.1717 53.5686 35.9541 54.1526 35.6807V55.4936C54.1526 56.4222 53.3969 57.1779 52.4683 57.1779H21.2406C20.312 57.1779 19.5563 56.4222 19.5563 55.4936V12.2406C19.5563 11.312 20.312 10.5563 21.2406 10.5563H26.1903C26.6478 10.5563 27.0185 10.1856 27.0185 9.72815C27.0185 9.27073 26.6478 8.9 26.1903 8.9H21.2406C19.3986 8.9 17.9 10.3986 17.9 12.2406V55.4936C17.9 57.3356 19.3986 58.8342 21.2406 58.8342H52.4683C54.3103 58.8342 55.8089 57.3356 55.8089 55.4936V34.7038C56.2241 34.4044 56.6205 34.0744 56.9924 33.7113L56.9225 33.6397L56.9924 33.7112C57.3195 33.3916 57.3259 32.8673 57.0063 32.5401C56.6868 32.2129 56.1624 32.2066 55.8351 32.5262ZM49.5983 16.0611L49.5983 16.0611C46.9199 16.1142 44.3986 17.2009 42.4991 19.1201L42.5702 19.1905L42.4991 19.1201C40.6 21.0393 39.5393 23.5719 39.5133 26.2508C39.4841 29.2599 40.7553 32.1002 43.0088 34.082C43.0168 35.0234 42.9981 36.0889 42.9534 37.2536C42.9378 37.6625 43.1461 38.0469 43.4971 38.2568L43.4972 38.2568C43.6737 38.3623 43.8721 38.4151 44.0706 38.4151C44.2666 38.4151 44.4629 38.3635 44.6382 38.2603L44.6382 38.2603C45.2083 37.9245 46.26 37.2437 47.1824 36.308C48.1666 36.567 49.1835 36.6782 50.2113 36.6384C50.3674 36.6323 50.5228 36.6225 50.6777 36.6093V50.6031C50.6777 50.7168 50.5851 50.8094 50.4714 50.8094H23.2376C23.1238 50.8094 23.0312 50.7168 23.0312 50.6031V14.2042C23.0312 14.0905 23.1239 13.9979 23.2376 13.9979H50.4714C50.5851 13.9979 50.6777 14.0904 50.6777 14.2042V16.0955C50.391 16.0717 50.1018 16.0591 49.8101 16.0591C49.7397 16.0591 49.669 16.0598 49.5983 16.0611Z" fill="black" stroke="black" stroke-width="0.2"/>
<path d="M49.8057 32.2246C50.4731 32.2246 51.0141 31.6836 51.0141 31.0162C51.0141 30.3489 50.4731 29.8078 49.8057 29.8078C49.1383 29.8078 48.5973 30.3489 48.5973 31.0162C48.5973 31.6836 49.1383 32.2246 49.8057 32.2246Z" fill="black" stroke="black" stroke-width="0.2"/>
<path d="M49.9888 21.4179C49.0312 21.3242 48.1782 21.9916 48.0463 22.937L48.0463 22.9371C48.0348 23.0191 48.029 23.1029 48.029 23.186C48.029 23.6435 47.6582 24.0142 47.2008 24.0142C46.7434 24.0142 46.3727 23.6435 46.3727 23.186C46.3727 23.0264 46.3837 22.8658 46.4059 22.708C46.4059 22.708 46.4059 22.708 46.4059 22.708L46.5049 22.7219L49.9888 21.4179ZM49.9888 21.4179C50.8334 21.5009 51.5176 22.2047 51.5785 23.0535C51.632 23.801 51.209 24.5073 50.5265 24.811L50.5265 24.811C49.5865 25.2292 48.978 26.1543 48.978 27.1692V28.1524C48.978 28.6098 49.3487 28.9805 49.8061 28.9805C50.2635 28.9805 50.6343 28.6098 50.6343 28.1524V27.1692C50.6343 26.8109 50.8544 26.478 51.1997 26.3243L49.9888 21.4179Z" fill="black" stroke="black" stroke-width="0.2"/>
<path d="M26.0465 31.8443H36.6846C37.1421 31.8443 37.5128 31.4735 37.5128 31.0161C37.5128 30.5587 37.1421 30.188 36.6846 30.188H26.0465C25.5891 30.188 25.2184 30.5587 25.2184 31.0161C25.2184 31.4735 25.5891 31.8443 26.0465 31.8443Z" fill="black" stroke="black" stroke-width="0.2"/>
<path d="M36.6855 33.5688H33.5602C33.1028 33.5688 32.732 33.9396 32.732 34.397C32.732 34.8544 33.1028 35.2251 33.5602 35.2251H36.6855C37.1429 35.2251 37.5137 34.8544 37.5137 34.397C37.5137 33.9396 37.1429 33.5688 36.6855 33.5688Z" fill="black" stroke="black" stroke-width="0.2"/>
<path d="M26.0465 35.2251H30.2426C30.7001 35.2251 31.0708 34.8544 31.0708 34.397C31.0708 33.9396 30.7001 33.5688 30.2426 33.5688H26.0465C25.5891 33.5688 25.2184 33.9396 25.2184 34.397C25.2184 34.8544 25.5891 35.2251 26.0465 35.2251Z" fill="black" stroke="black" stroke-width="0.2"/>
<path d="M26.0465 38.606H36.6846C37.1421 38.606 37.5128 38.2353 37.5128 37.7778C37.5128 37.3204 37.1421 36.9497 36.6846 36.9497H26.0465C25.5891 36.9497 25.2184 37.3204 25.2184 37.7778C25.2184 38.2353 25.5891 38.606 26.0465 38.606Z" fill="black" stroke="black" stroke-width="0.2"/>
<path d="M39.0328 41.1583C39.0328 41.6158 39.4035 41.9865 39.861 41.9865H47.6626C48.12 41.9865 48.4908 41.6158 48.4908 41.1583C48.4908 40.7009 48.12 40.3302 47.6626 40.3302H39.861C39.4035 40.3302 39.0328 40.7009 39.0328 41.1583Z" fill="black" stroke="black" stroke-width="0.2"/>
<path d="M26.0465 41.9865H36.5021C36.9596 41.9865 37.3303 41.6158 37.3303 41.1583C37.3303 40.7009 36.9596 40.3302 36.5021 40.3302H26.0465C25.5891 40.3302 25.2184 40.7009 25.2184 41.1583C25.2184 41.6158 25.5891 41.9865 26.0465 41.9865Z" fill="black" stroke="black" stroke-width="0.2"/>
<path d="M47.662 43.7109H31.2223C30.7649 43.7109 30.3941 44.0816 30.3941 44.5391C30.3941 44.9965 30.7649 45.3672 31.2223 45.3672H47.6621C48.1196 45.3672 48.4903 44.9965 48.4903 44.5391C48.4903 44.0816 48.1195 43.7109 47.662 43.7109Z" fill="black" stroke="black" stroke-width="0.2"/>
<path d="M26.0465 45.3672H27.8575C28.315 45.3672 28.6857 44.9965 28.6857 44.5391C28.6857 44.0816 28.315 43.7109 27.8575 43.7109H26.0465C25.5891 43.7109 25.2184 44.0816 25.2184 44.5391C25.2184 44.9965 25.5891 45.3672 26.0465 45.3672Z" fill="black" stroke="black" stroke-width="0.2"/>
<path d="M43.236 47.0918H47.6622C48.1196 47.0918 48.4904 47.4625 48.4903 47.9199L43.236 47.0918ZM43.236 47.0918C42.7785 47.0918 42.4078 47.4625 42.4078 47.9199M43.236 47.0918L42.4078 47.9199M42.4078 47.9199C42.4078 48.3774 42.7785 48.7481 43.236 48.7481M42.4078 47.9199L43.236 48.7481M43.236 48.7481H47.6622M43.236 48.7481H47.6622M47.6622 48.7481C48.1196 48.7481 48.4903 48.3774 48.4903 47.92L47.6622 48.7481Z" fill="black" stroke="black" stroke-width="0.2"/>
<path d="M26.0465 47.0918H39.91C40.3675 47.0918 40.7382 47.4625 40.7381 47.9199L26.0465 47.0918ZM26.0465 47.0918C25.5891 47.0918 25.2184 47.4625 25.2184 47.9199M26.0465 47.0918L25.2184 47.9199M25.2184 47.9199C25.2184 48.3774 25.5891 48.7481 26.0465 48.7481M25.2184 47.9199L26.0465 48.7481M26.0465 48.7481H39.91M26.0465 48.7481H39.91M39.91 48.7481C40.3674 48.7481 40.7381 48.3774 40.7381 47.92L39.91 48.7481Z" fill="black" stroke="black" stroke-width="0.2"/>
<path d="M39 0L72.775 58.5H5.22501L39 0Z" fill="#4FCC64" fill-opacity="0.2"/>
</svg>
