<svg width="78" height="78" viewBox="0 0 78 78" fill="none" xmlns="http://www.w3.org/2000/svg">
<path d="M39 0L72.775 58.5H5.22501L39 0Z" fill="#4FCC64" fill-opacity="0.2"/>
<path d="M25.6629 15.7776H25.4674V13.7597C25.4674 12.2379 24.2294 11 22.7008 11C21.179 11 19.9411 12.2379 19.9411 13.7597V15.7776C17.8756 15.6747 16 17.1669 16 19.3211V30.3995C16 32.5563 17.8752 34.04 19.941 33.9428V54.2498C19.941 55.7715 21.1789 57.0095 22.7077 57.0095C24.2294 57.0095 25.4673 55.7715 25.4673 54.2498V33.9428C27.4632 34.013 29.2062 32.4246 29.2062 30.3995V26.546C29.2062 25.6982 27.8512 25.6579 27.8512 26.5462C27.8512 27.83 27.8582 29.1151 27.8582 30.3995C27.8582 31.61 26.8734 32.5949 25.6628 32.5949H19.5434C18.3328 32.5949 17.3479 31.61 17.3479 30.3995V19.3211C17.3479 18.1104 18.3327 17.1255 19.5434 17.1255H25.6629C26.8734 17.1255 27.8583 18.1104 27.8583 19.3211C27.8583 20.5311 27.8513 21.742 27.8513 22.9517C27.8513 23.8017 29.2062 23.8385 29.2062 22.952V19.3211C29.2062 17.3672 27.6167 15.7776 25.6629 15.7776ZM24.1195 54.2498C24.1195 55.0282 23.4862 55.6615 22.7008 55.6615C21.9223 55.6615 21.289 55.0282 21.289 54.2498V33.9428H24.1195V54.2498ZM21.289 13.7597C21.289 12.9813 21.9223 12.3479 22.7078 12.3479C23.4862 12.3479 24.1195 12.9813 24.1195 13.7597V15.7776H21.289V13.7597Z" fill="black"/>
<path d="M41.6101 33.9233H41.3135V13.7597C41.3135 12.2379 40.0756 11 38.5468 11C37.0251 11 35.7872 12.2379 35.7872 13.7597V33.9233C33.7559 33.8345 31.9473 35.3781 31.9473 37.4667V48.5452C31.9473 50.6433 33.7551 52.1633 35.7872 52.0886V54.2499C35.7872 55.7716 37.0252 57.0095 38.5538 57.0095C40.0756 57.0095 41.3135 55.7716 41.3135 54.2499V52.0886C43.3448 52.1774 45.1534 50.6338 45.1534 48.5452V37.4666C45.1534 35.5128 43.5638 33.9233 41.6101 33.9233ZM37.135 13.7597C37.135 12.9813 37.7684 12.3479 38.5538 12.3479C39.3322 12.3479 39.9655 12.9813 39.9655 13.7597V33.9233H37.135V13.7597ZM39.9656 54.2498C39.9656 55.0282 39.3323 55.6615 38.5468 55.6615C37.7684 55.6615 37.1351 55.0282 37.1351 54.2498V52.0885H39.9656V54.2498ZM43.8055 48.5452C43.8055 49.7558 42.8206 50.7407 41.6101 50.7407H35.4905C34.28 50.7407 33.2951 49.7558 33.2951 48.5452V37.4666C33.2951 36.256 34.2799 35.2712 35.4905 35.2712H41.6101C42.8206 35.2712 43.8055 36.256 43.8055 37.4666V48.5452Z" fill="black"/>
<path d="M57.4577 23.508H57.1612V13.7597C57.1612 12.2379 55.9232 11 54.3945 11C52.8728 11 51.6348 12.2379 51.6348 13.7597V23.508C49.6036 23.4192 47.7949 24.9629 47.7949 27.0515V38.1299C47.7949 40.228 49.6028 41.748 51.6348 41.6733V54.2498C51.6348 55.7715 52.8729 57.0095 54.4015 57.0095C55.9232 57.0095 57.1612 55.7715 57.1612 54.2498V50.2698C57.1612 49.3984 55.8132 49.3984 55.8132 50.2698V54.2498C55.8132 55.0282 55.18 55.6615 54.3945 55.6615C53.616 55.6615 52.9828 55.0282 52.9828 54.2498V41.6733H55.8132V46.4057C55.8132 47.2771 57.1612 47.2771 57.1612 46.4057V41.6733C59.1924 41.7621 61.0011 40.2185 61.0011 38.1299V27.0515C61.0011 25.0977 59.4115 23.508 57.4577 23.508ZM52.9827 13.7597C52.9827 12.9813 53.616 12.3479 54.4014 12.3479C55.1799 12.3479 55.8131 12.9813 55.8131 13.7597V23.508H52.9827V13.7597ZM59.6531 38.1299C59.6531 39.3405 58.6682 40.3254 57.4577 40.3254H51.3382C50.1277 40.3254 49.1428 39.3405 49.1428 38.1299V27.0515C49.1428 25.8408 50.1276 24.8559 51.3382 24.8559H57.4577C58.6682 24.8559 59.6531 25.8408 59.6531 27.0515V38.1299Z" fill="black"/>
<path d="M24.6922 20.0297H20.5138C20.1416 20.0297 19.8398 20.3313 19.8398 20.7036C19.8398 21.0759 20.1416 21.3776 20.5138 21.3776H24.6922C25.0644 21.3776 25.3662 21.0759 25.3662 20.7036C25.3662 20.3313 25.0644 20.0297 24.6922 20.0297Z" fill="black"/>
<path d="M24.6922 24.1862H20.5138C20.1416 24.1862 19.8398 24.4878 19.8398 24.8601C19.8398 25.2324 20.1416 25.5341 20.5138 25.5341H24.6922C25.0644 25.5341 25.3662 25.2324 25.3662 24.8601C25.3662 24.4878 25.0644 24.1862 24.6922 24.1862Z" fill="black"/>
<path d="M24.6922 28.3428H20.5138C20.1416 28.3428 19.8398 28.6444 19.8398 29.0167C19.8398 29.389 20.1416 29.6907 20.5138 29.6907H24.6922C25.0644 29.6907 25.3662 29.389 25.3662 29.0167C25.3662 28.6444 25.0644 28.3428 24.6922 28.3428Z" fill="black"/>
<path d="M40.6395 38.1755H36.4611C36.0889 38.1755 35.7871 38.4772 35.7871 38.8495C35.7871 39.2218 36.0889 39.5235 36.4611 39.5235H40.6395C41.0117 39.5235 41.3135 39.2218 41.3135 38.8495C41.3135 38.4772 41.0117 38.1755 40.6395 38.1755Z" fill="black"/>
<path d="M40.6395 42.3319H36.4611C36.0889 42.3319 35.7871 42.6336 35.7871 43.0059C35.7871 43.3782 36.0889 43.6798 36.4611 43.6798H40.6395C41.0117 43.6798 41.3135 43.3782 41.3135 43.0059C41.3135 42.6336 41.0117 42.3319 40.6395 42.3319Z" fill="black"/>
<path d="M40.6395 46.4884H36.4611C36.0889 46.4884 35.7871 46.7901 35.7871 47.1624C35.7871 47.5347 36.0889 47.8363 36.4611 47.8363H40.6395C41.0117 47.8363 41.3135 47.5347 41.3135 47.1624C41.3135 46.7901 41.0117 46.4884 40.6395 46.4884Z" fill="black"/>
<path d="M56.4852 27.7603H52.3068C51.9346 27.7603 51.6328 28.0619 51.6328 28.4342C51.6328 28.8065 51.9346 29.1082 52.3068 29.1082H56.4852C56.8574 29.1082 57.1592 28.8065 57.1592 28.4342C57.1592 28.0619 56.8574 27.7603 56.4852 27.7603Z" fill="black"/>
<path d="M56.4852 31.9166H52.3068C51.9346 31.9166 51.6328 32.2183 51.6328 32.5906C51.6328 32.9629 51.9346 33.2646 52.3068 33.2646H56.4852C56.8574 33.2646 57.1592 32.9629 57.1592 32.5906C57.1592 32.2183 56.8574 31.9166 56.4852 31.9166Z" fill="black"/>
<path d="M56.4852 36.0732H52.3068C51.9346 36.0732 51.6328 36.3749 51.6328 36.7472C51.6328 37.1195 51.9346 37.4212 52.3068 37.4212H56.4852C56.8574 37.4212 57.1592 37.1195 57.1592 36.7472C57.1592 36.3749 56.8574 36.0732 56.4852 36.0732Z" fill="black"/>
</svg>
