<svg width="78" height="78" viewBox="0 0 78 78" fill="none" xmlns="http://www.w3.org/2000/svg">
<path d="M59.9604 41.2439C59.3018 40.6363 58.4058 40.261 57.5021 40.214C56.4759 40.161 55.5145 40.5269 54.7984 41.2433L49.906 46.0843C49.8093 45.9168 49.6989 45.7587 49.575 45.612C48.9731 44.8973 48.0929 44.5039 47.0969 44.5039H40.2481C38.9566 44.5039 37.6968 44.3364 36.5037 44.0064C33.3932 43.146 30.4216 43.7744 27.9096 45.8248C26.8881 46.6587 26.1428 47.5657 25.6715 48.2271L24.4436 47.0354C24.2821 46.8786 24.0632 46.7896 23.838 46.7896C23.836 46.7896 23.8343 46.7896 23.8323 46.7896C23.599 46.7913 23.3734 46.8883 23.2116 47.0562L17.2419 53.2534C17.0821 53.4193 16.9952 53.6422 17.0002 53.8724C17.0052 54.1031 17.1016 54.3219 17.2684 54.4807L27.3651 64.0947C27.5326 64.2541 27.7475 64.3337 27.962 64.3337C28.1872 64.3337 28.4125 64.2461 28.582 64.0722L34.4959 58.0048C34.6574 57.839 34.747 57.6124 34.7427 57.3808C34.7383 57.1525 34.6426 56.9323 34.4788 56.7732L33.9639 56.2737L35.1425 56.1411C35.8555 56.0582 36.5806 56.0162 37.2983 56.0162H47.7186C49.4119 56.0162 50.85 55.6459 51.9934 54.9154C52.0028 54.9094 52.0121 54.903 52.0215 54.8966C52.4311 54.612 52.8027 54.2746 53.1256 53.8943L60.1477 45.6332C61.3495 44.2195 61.2743 42.4555 59.9604 41.2439ZM27.9395 62.2514L19.0926 53.8275L23.8584 48.8797L32.6536 57.4147L27.9395 62.2514ZM58.8288 44.5119L51.8067 52.7734C51.5838 53.0356 51.3283 53.2685 51.0467 53.4659C50.1883 54.0094 49.0688 54.2853 47.7186 54.2853H37.298C36.5141 54.2853 35.7216 54.3313 34.9458 54.4216L32.3549 54.7124L26.9301 49.448C27.307 48.8891 28.0002 47.9857 29.0043 47.1659C31.0917 45.462 33.4597 44.9601 36.0421 45.6748C37.3856 46.0464 38.8006 46.2351 40.2481 46.2351H47.0969C48.3269 46.2351 48.6552 47.3006 48.6552 47.93C48.6552 48.3899 48.5075 48.8276 48.25 49.1311C47.9707 49.4597 47.5736 49.6262 47.0697 49.6262H41.1078C40.6298 49.6262 40.2424 50.014 40.2424 50.492C40.2424 50.97 40.6298 51.3574 41.1078 51.3574H47.0697C48.0761 51.3574 48.9637 50.9647 49.5693 50.2516C50.0732 49.6588 50.3605 48.8793 50.3847 48.0461L56.0193 42.4706C56.8247 41.6652 58.0828 41.8673 58.7868 42.5166C59.1507 42.8523 59.6401 43.5576 58.8288 44.5119Z" fill="black"/>
<path d="M38.4095 50.2614C38.3004 49.7958 37.8348 49.5074 37.3692 49.6162C36.9039 49.7253 36.6149 50.1909 36.7243 50.6565L36.7324 50.6918C36.826 51.0906 37.1815 51.3598 37.5743 51.3598C37.6398 51.3598 37.7062 51.3524 37.7727 51.337C38.2383 51.2279 38.527 50.7619 38.4179 50.2967L38.4095 50.2614Z" fill="black"/>
<path d="M22.8496 39.2618H31.2836C31.7429 39.2618 32.1679 39.1127 32.5136 38.861C32.8594 39.1127 33.2844 39.2618 33.7436 39.2618H42.1779C42.6372 39.2618 43.0622 39.1127 43.4079 38.861C43.7537 39.1127 44.1787 39.2618 44.6379 39.2618H53.0719C54.2274 39.2618 55.1673 38.3215 55.1673 37.166V33.233C55.1673 31.4666 54.1787 29.9322 52.6989 29.1752C53.416 28.3104 53.8477 27.2013 53.8477 25.9928C53.8477 23.2398 51.6079 21 48.8549 21C46.1019 21 43.8621 23.2398 43.8621 25.9928C43.8621 27.2013 44.2938 28.3108 45.0109 29.1752C44.3714 29.5028 43.8238 29.9758 43.4079 30.5495C42.992 29.9755 42.4445 29.5025 41.8046 29.1752C42.5217 28.3108 42.9534 27.2013 42.9534 25.9928C42.9534 23.2398 40.7136 21 37.9606 21C35.2076 21 32.9678 23.2398 32.9678 25.9928C32.9678 27.2013 33.3999 28.3108 34.1169 29.1755C33.4771 29.5028 32.9296 29.9758 32.5136 30.5498C32.0977 29.9758 31.5502 29.5028 30.9103 29.1752C31.6274 28.3108 32.0591 27.2013 32.0591 25.9931C32.0591 23.2398 29.8193 21 27.0663 21C24.3136 21 22.0739 23.2398 22.0739 25.9931C22.0739 27.2013 22.5056 28.3108 23.2226 29.1755C21.7429 29.9325 20.7539 31.4673 20.7539 33.2334V37.166C20.7539 38.3215 21.6942 39.2618 22.8496 39.2618ZM48.8552 22.7312C50.6536 22.7312 52.1168 24.1941 52.1168 25.9928C52.1168 27.7911 50.6536 29.2544 48.8552 29.2544C47.0566 29.2544 45.5936 27.7914 45.5936 25.9928C45.5933 24.1941 47.0566 22.7312 48.8552 22.7312ZM46.6064 30.4485C47.2828 30.7912 48.0465 30.9856 48.8549 30.9856C49.6636 30.9856 50.4273 30.7912 51.1034 30.4485C52.4485 30.6828 53.4365 31.8419 53.4365 33.233V37.166C53.4365 37.3671 53.273 37.5306 53.0719 37.5306H44.6379C44.4372 37.5306 44.2737 37.3671 44.2737 37.166V33.233C44.2733 31.8423 45.2616 30.6828 46.6064 30.4485ZM37.9609 22.7312C39.7593 22.7312 41.2225 24.1941 41.2225 25.9928C41.2225 27.7911 39.7593 29.2544 37.9609 29.2544C36.1623 29.2544 34.6993 27.7914 34.6993 25.9928C34.6993 24.1941 36.1623 22.7312 37.9609 22.7312ZM35.7125 30.4485C36.3885 30.7912 37.1523 30.9856 37.9609 30.9856C38.7696 30.9856 39.533 30.7912 40.2094 30.4485C41.5542 30.6828 42.5425 31.8419 42.5425 33.233V37.166C42.5425 37.3671 42.379 37.5306 42.1779 37.5306H33.7439C33.5429 37.5306 33.3794 37.3671 33.3794 37.166V33.233C33.3794 31.8423 34.3677 30.6828 35.7125 30.4485ZM27.0666 22.7312C28.865 22.7312 30.3283 24.1941 30.3283 25.9928C30.3283 27.7911 28.865 29.2544 27.0666 29.2544C25.2683 29.2544 23.805 27.7911 23.805 25.9928C23.805 24.1941 25.2683 22.7312 27.0666 22.7312ZM22.4851 33.233C22.4851 31.8423 23.4734 30.6828 24.8182 30.4485C25.4946 30.7912 26.258 30.9856 27.0666 30.9856C27.8753 30.9856 28.6387 30.7912 29.3151 30.4485C30.6603 30.6828 31.6482 31.8419 31.6482 33.233V37.166C31.6482 37.3671 31.4847 37.5306 31.2836 37.5306H22.8496C22.6486 37.5306 22.4851 37.3671 22.4851 37.166V33.233Z" fill="black"/>
<path d="M39 0L72.775 58.5H5.22501L39 0Z" fill="#4FCC64" fill-opacity="0.2"/>
</svg>
