<svg width="79" height="78" viewBox="0 0 79 78" fill="none" xmlns="http://www.w3.org/2000/svg">
<path d="M39.5 0L73.275 58.5H5.72501L39.5 0Z" fill="#4FCC64" fill-opacity="0.2"/>
<path d="M51.2237 47.5398C51.1232 47.5398 51.0237 47.5197 50.931 47.4807C50.8383 47.4418 50.7543 47.3848 50.6839 47.3129C50.3448 46.968 49.9702 46.6598 49.5663 46.3935C49.4086 46.2792 49.3011 46.1085 49.2662 45.9169C49.2312 45.7253 49.2716 45.5276 49.3788 45.365C49.486 45.2024 49.6519 45.0875 49.8417 45.0441C50.0316 45.0008 50.2309 45.0324 50.3981 45.1323C50.8897 45.4578 51.3458 45.8339 51.7591 46.2544C51.8633 46.3607 51.9338 46.4955 51.9618 46.6417C51.9897 46.7879 51.9739 46.9392 51.9162 47.0765C51.8586 47.2137 51.7617 47.3309 51.6377 47.4134C51.5137 47.4958 51.3681 47.5398 51.2192 47.5398H51.2237Z" fill="black" stroke="black" stroke-width="0.5"/>
<path d="M53.3579 59.0253H24.6858C24.4853 59.0253 24.293 58.9457 24.1512 58.8039C24.0094 58.6621 23.9297 58.4697 23.9297 58.2692V52.0312C23.9321 49.8361 24.8052 47.7316 26.3574 46.1794C27.9095 44.6272 30.0141 43.7541 32.2092 43.7517H45.8042C46.0048 43.7517 46.1971 43.8314 46.3389 43.9732C46.4807 44.115 46.5603 44.3073 46.5603 44.5078C46.5603 44.7084 46.4807 44.9007 46.3389 45.0425C46.1971 45.1843 46.0048 45.2639 45.8042 45.2639H32.2092C30.415 45.2659 28.6949 45.9796 27.4262 47.2482C26.1575 48.5169 25.4439 50.237 25.4419 52.0312V57.5131H52.6017V52.0312C52.6032 51.5031 52.5418 50.9766 52.4188 50.463C52.3926 50.3658 52.3861 50.2642 52.3997 50.1644C52.4132 50.0646 52.4466 49.9685 52.4979 49.8818C52.5491 49.795 52.6172 49.7194 52.6981 49.6594C52.779 49.5993 52.871 49.556 52.9689 49.532C53.0667 49.508 53.1684 49.5039 53.2678 49.5197C53.3673 49.5356 53.4626 49.5711 53.5482 49.6243C53.6337 49.6775 53.7078 49.7473 53.766 49.8295C53.8242 49.9117 53.8654 50.0048 53.8871 50.1031C54.0387 50.7336 54.1149 51.3798 54.114 52.0282V58.2692C54.114 58.4697 54.0343 58.6621 53.8925 58.8039C53.7507 58.9457 53.5584 59.0253 53.3579 59.0253Z" fill="black" stroke="black" stroke-width="0.5"/>
<path d="M39.0179 40.8741C37.4506 40.8741 35.9186 40.4094 34.6155 39.5387C33.3124 38.668 32.2967 37.4304 31.6969 35.9824C31.0972 34.5345 30.9403 32.9412 31.246 31.4041C31.5518 29.867 32.3065 28.455 33.4147 27.3468C34.5229 26.2386 35.9348 25.4839 37.472 25.1781C39.0091 24.8724 40.6024 25.0293 42.0503 25.6291C43.4983 26.2288 44.7358 27.2445 45.6066 28.5476C46.4773 29.8507 46.942 31.3828 46.942 32.95C46.9398 35.0509 46.1042 37.0652 44.6187 38.5508C43.1331 40.0364 41.1188 40.8719 39.0179 40.8741ZM39.0179 26.5381C37.7497 26.5381 36.5101 26.9142 35.4556 27.6187C34.4012 28.3233 33.5794 29.3247 33.0941 30.4963C32.6088 31.6679 32.4818 32.9571 32.7292 34.2009C32.9766 35.4447 33.5873 36.5872 34.484 37.4839C35.3807 38.3806 36.5232 38.9913 37.767 39.2387C39.0108 39.4861 40.3 39.3591 41.4716 38.8738C42.6432 38.3885 43.6446 37.5667 44.3492 36.5123C45.0537 35.4578 45.4298 34.2182 45.4298 32.95C45.428 31.25 44.7519 29.6202 43.5498 28.4181C42.3477 27.216 40.7179 26.5399 39.0179 26.5381Z" fill="black" stroke="black" stroke-width="0.5"/>
<path d="M46.3838 59.0254H31.6546C31.454 59.0254 31.2617 58.9458 31.1199 58.804C30.9781 58.6622 30.8984 58.4699 30.8984 58.2693V53.9534C30.8984 53.7528 30.9781 53.5605 31.1199 53.4187C31.2617 53.2769 31.454 53.1973 31.6546 53.1973C31.8551 53.1973 32.0474 53.2769 32.1892 53.4187C32.331 53.5605 32.4107 53.7528 32.4107 53.9534V57.5132H45.6276V53.9534C45.6276 53.7528 45.7073 53.5605 45.8491 53.4187C45.9909 53.2769 46.1832 53.1973 46.3838 53.1973C46.5843 53.1973 46.7766 53.2769 46.9184 53.4187C47.0602 53.5605 47.1399 53.7528 47.1399 53.9534V58.2693C47.1399 58.4699 47.0602 58.6622 46.9184 58.804C46.7766 58.9458 46.5843 59.0254 46.3838 59.0254Z" fill="black" stroke="black" stroke-width="0.5"/>
<path d="M62.1117 27.3444C61.9892 27.3444 61.8685 27.3145 61.7601 27.2575L57.8532 25.2039L53.9471 27.2575C53.8222 27.3233 53.6814 27.3529 53.5405 27.3429C53.3997 27.3328 53.2645 27.2835 53.1502 27.2006C53.036 27.1176 52.9472 27.0043 52.894 26.8736C52.8408 26.7428 52.8253 26.5997 52.8492 26.4605L53.5955 22.1106L50.4357 19.0271C50.3346 18.9287 50.2631 18.804 50.2292 18.667C50.1953 18.5301 50.2004 18.3864 50.2439 18.2522C50.2874 18.118 50.3676 17.9987 50.4753 17.9076C50.5831 17.8166 50.7142 17.7576 50.8538 17.7372L55.2219 17.102L57.175 13.1445C57.2445 13.0265 57.3437 12.9286 57.4626 12.8606C57.5816 12.7926 57.7162 12.7568 57.8532 12.7568C57.9902 12.7568 58.1249 12.7926 58.2438 12.8606C58.3628 12.9286 58.4619 13.0265 58.5315 13.1445L60.4845 17.102L64.8526 17.7372C64.9923 17.7575 65.1235 17.8164 65.2313 17.9074C65.3392 17.9984 65.4195 18.1177 65.4631 18.2519C65.5067 18.3861 65.5118 18.5299 65.478 18.6669C65.4441 18.8039 65.3726 18.9287 65.2715 19.0271L62.1109 22.1076L62.8572 26.4575C62.8758 26.5661 62.8705 26.6774 62.8416 26.7836C62.8127 26.8899 62.761 26.9886 62.69 27.0728C62.6189 27.157 62.5304 27.2246 62.4305 27.271C62.3306 27.3174 62.2218 27.3415 62.1117 27.3414V27.3444ZM57.8532 23.5933C57.9758 23.5931 58.0965 23.623 58.2048 23.6803L61.1076 25.2061L60.5526 21.976C60.5319 21.855 60.5409 21.7307 60.579 21.614C60.6171 21.4973 60.683 21.3916 60.7711 21.3061L63.1188 19.0173L59.8736 18.5462C59.7522 18.5286 59.637 18.4818 59.5378 18.4097C59.4387 18.3377 59.3585 18.2426 59.3042 18.1326L57.8532 15.1921L56.4022 18.1296C56.348 18.2395 56.2678 18.3346 56.1686 18.4067C56.0694 18.4787 55.9542 18.5256 55.8329 18.5432L52.5876 19.0143L54.9361 21.303C55.0241 21.3887 55.0898 21.4944 55.1278 21.6111C55.1657 21.7278 55.1747 21.852 55.1539 21.973L54.5989 25.2046L57.5016 23.6788C57.6099 23.6215 57.7307 23.5916 57.8532 23.5918V23.5933Z" fill="black" stroke="black" stroke-width="0.5"/>
<path d="M43.3213 20.7154C43.1989 20.7153 43.0783 20.6858 42.9698 20.6292L39.0629 18.5733L35.156 20.6277C35.0311 20.6934 34.8904 20.7228 34.7497 20.7126C34.609 20.7024 34.4739 20.6531 34.3598 20.5702C34.2456 20.4873 34.1569 20.3741 34.1038 20.2434C34.0506 20.1128 34.035 19.9698 34.0589 19.8308L34.8052 15.48L31.6446 12.3996C31.5435 12.3012 31.472 12.1764 31.4381 12.0394C31.4042 11.9024 31.4094 11.7586 31.453 11.6244C31.4966 11.4902 31.5768 11.3708 31.6847 11.2799C31.7926 11.1889 31.9238 11.13 32.0635 11.1097L36.4316 10.4753L38.3824 6.51927C38.4519 6.40121 38.551 6.30335 38.67 6.23535C38.789 6.16736 38.9236 6.13159 39.0606 6.13159C39.1976 6.13159 39.3323 6.16736 39.4512 6.23535C39.5702 6.30335 39.6693 6.40121 39.7389 6.51927L41.6942 10.4768L46.0623 11.1112C46.2019 11.1315 46.3331 11.1904 46.441 11.2814C46.5489 11.3724 46.6292 11.4917 46.6728 11.6259C46.7164 11.7601 46.7215 11.9039 46.6877 12.0409C46.6538 12.1779 46.5823 12.3027 46.4812 12.4011L43.3206 15.4816L44.0669 19.8323C44.0854 19.9408 44.08 20.052 44.051 20.1582C44.0221 20.2644 43.9703 20.3629 43.8993 20.447C43.8283 20.5311 43.7398 20.5987 43.64 20.6451C43.5401 20.6914 43.4314 20.7154 43.3213 20.7154ZM39.0629 16.9651C39.1853 16.9649 39.306 16.9945 39.4145 17.0513L42.3142 18.5771L41.7592 15.3455C41.7385 15.2246 41.7476 15.1006 41.7855 14.984C41.8234 14.8674 41.8891 14.7618 41.977 14.6763L44.3255 12.3875L41.0832 11.9195C40.9618 11.9018 40.8466 11.8548 40.7474 11.7826C40.6482 11.7104 40.568 11.6152 40.5139 11.5051L39.0629 8.56231L37.6119 11.5021C37.5577 11.6122 37.4776 11.7074 37.3784 11.7796C37.2792 11.8518 37.1639 11.8988 37.0425 11.9165L33.7973 12.3875L36.1458 14.6763C36.2336 14.7618 36.2993 14.8674 36.3372 14.984C36.3752 15.1006 36.3842 15.2246 36.3635 15.3455L35.8116 18.5771L38.7143 17.0513C38.8219 16.995 38.9415 16.9654 39.0629 16.9651Z" fill="black" stroke="black" stroke-width="0.5"/>
<path d="M24.5341 27.3441C24.4113 27.3441 24.2904 27.3143 24.1818 27.2571L20.2756 25.2035L16.3688 27.2556C16.2439 27.3212 16.1032 27.3507 15.9625 27.3405C15.8217 27.3303 15.6867 27.281 15.5725 27.1981C15.4584 27.1152 15.3697 27.002 15.3165 26.8713C15.2634 26.7406 15.2478 26.5977 15.2717 26.4586L16.0179 22.1087L12.8574 19.0267C12.7576 18.9281 12.6872 18.8037 12.6541 18.6673C12.6211 18.531 12.6266 18.3881 12.67 18.2547C12.7135 18.1213 12.7932 18.0027 12.9003 17.912C13.0073 17.8213 13.1375 17.7622 13.2763 17.7413L17.6444 17.1062L19.5974 13.1487C19.6669 13.0306 19.7661 12.9327 19.885 12.8647C20.004 12.7968 20.1386 12.761 20.2756 12.761C20.4127 12.761 20.5473 12.7968 20.6663 12.8647C20.7852 12.9327 20.8844 13.0306 20.9539 13.1487L22.9069 17.1062L27.275 17.7413C27.4146 17.7617 27.5457 17.8208 27.6535 17.9118C27.7613 18.0028 27.8415 18.1222 27.885 18.2564C27.9285 18.3906 27.9336 18.5343 27.8997 18.6712C27.8658 18.8081 27.7943 18.9329 27.6932 19.0313L24.5334 22.1117L25.2796 26.4617C25.2983 26.5702 25.2929 26.6815 25.264 26.7878C25.2352 26.8941 25.1834 26.9928 25.1124 27.0769C25.0414 27.1611 24.9528 27.2288 24.8529 27.2752C24.7531 27.3216 24.6442 27.3456 24.5341 27.3456V27.3441ZM20.2756 23.5929C20.3982 23.5927 20.5189 23.6226 20.6272 23.6799L23.53 25.2057L22.975 21.9756C22.9542 21.8547 22.9632 21.7305 23.0011 21.6137C23.039 21.497 23.1048 21.3913 23.1928 21.3057L25.5413 19.0169L22.296 18.5459C22.1747 18.5282 22.0595 18.4814 21.9603 18.4093C21.8611 18.3373 21.7809 18.2422 21.7266 18.1323L20.2756 15.1917L18.8247 18.1323C18.7704 18.2422 18.6902 18.3373 18.591 18.4093C18.4918 18.4814 18.3766 18.5282 18.2553 18.5459L15.01 19.0169L17.354 21.3057C17.4428 21.3908 17.5094 21.4964 17.5481 21.6131C17.5869 21.7299 17.5965 21.8543 17.5763 21.9756L17.0213 25.2042L19.9241 23.6784C20.0324 23.6211 20.1531 23.5912 20.2756 23.5914V23.5929Z" fill="black" stroke="black" stroke-width="0.5"/>
</svg>
