<svg width="24" height="16" viewBox="0 0 24 16" fill="none" xmlns="http://www.w3.org/2000/svg">
<path d="M18.8855 6.04C18.5636 4.33772 17.6853 2.80486 16.4007 1.70325C15.116 0.601633 13.5046 -0.000392242 11.8418 1.91737e-07C9.07221 1.91737e-07 6.6668 1.64 5.46888 4.04C4.06035 4.19883 2.75776 4.89521 1.81139 5.99532C0.865019 7.09543 0.341632 8.52168 0.341797 10C0.341797 13.31 2.91971 16 6.0918 16H18.5501C21.1951 16 23.3418 13.76 23.3418 11C23.3418 8.36 21.3772 6.22 18.8855 6.04ZM9.92513 13L6.57096 9.5L7.92221 8.09L9.92513 10.17L14.8893 5L16.2405 6.41L9.92513 13Z" fill="#745EF9"/>
</svg>
