<svg width="19" height="21" viewBox="0 0 19 21" fill="none" xmlns="http://www.w3.org/2000/svg">
<path d="M2.5918 1.85938C2.39288 1.85938 2.20212 1.93839 2.06147 2.07904C1.92081 2.2197 1.8418 2.41046 1.8418 2.60938V18.1094C1.8418 18.5234 2.1778 18.8594 2.5918 18.8594H6.3718C6.26847 19.3755 6.36497 19.9117 6.6418 20.3594H2.5918C1.99506 20.3594 1.42276 20.1223 1.00081 19.7004C0.57885 19.2784 0.341797 18.7061 0.341797 18.1094V2.60938C0.341797 2.01264 0.57885 1.44034 1.00081 1.01838C1.42276 0.596428 1.99506 0.359375 2.5918 0.359375H8.6778C9.1418 0.359375 9.5868 0.543375 9.9148 0.872375L15.8288 6.78638C16.1578 7.11438 16.3418 7.55937 16.3418 8.02337V8.35938H16.2118C16.1012 8.35384 15.9904 8.35384 15.8798 8.35938H10.3418C9.81136 8.35938 9.30266 8.14866 8.92758 7.77359C8.55251 7.39852 8.3418 6.88981 8.3418 6.35938V1.85938H2.5918ZM9.8418 2.91937V6.35938C9.8418 6.49198 9.89447 6.61916 9.98824 6.71293C10.082 6.8067 10.2092 6.85938 10.3418 6.85938H13.7818L9.8418 2.91937Z" fill="#745EF9"/>
<path d="M16.0552 9.35938H16.0572C16.5091 9.35975 16.9508 9.49406 17.3264 9.74534C17.702 9.99661 17.9947 10.3536 18.1675 10.7711C18.3404 11.1887 18.3855 11.6481 18.2974 12.0914C18.2092 12.5346 17.9917 12.9417 17.6722 13.2614L11.7702 19.1634C11.4263 19.5077 10.9953 19.7521 10.5232 19.8704L8.69219 20.3274C8.51012 20.3728 8.31937 20.3704 8.13852 20.3203C7.95767 20.2702 7.79287 20.1741 7.66017 20.0414C7.52747 19.9087 7.43139 19.7439 7.38127 19.563C7.33116 19.3822 7.32872 19.1914 7.37419 19.0094L7.83119 17.1794C7.94919 16.7064 8.19319 16.2754 8.53819 15.9314L14.4402 10.0294C14.652 9.81684 14.9037 9.64824 15.1809 9.53326C15.458 9.41828 15.7551 9.35919 16.0552 9.35938Z" fill="#745EF9"/>
</svg>
