<svg width="18" height="19" viewBox="0 0 18 19" fill="none" xmlns="http://www.w3.org/2000/svg">
<path d="M10.2914 0H4.59141C4.08749 0 3.60422 0.200178 3.2479 0.556497C2.89158 0.912816 2.69141 1.39609 2.69141 1.9V9.5H3.26331L4.49261 6.69465C5.04646 5.4321 6.76311 5.37605 7.43761 6.50085L7.46516 6.54645L7.54591 6.71365L9.18751 10.8119L9.51621 10.3274C9.64022 10.1138 9.8103 9.93044 10.0141 9.79076C10.2178 9.65108 10.4502 9.55856 10.6942 9.51995L10.7455 9.51235L10.9203 9.5H12.8536C13.2727 9.5002 13.6762 9.65867 13.9835 9.94371C14.2907 10.2287 14.479 10.6193 14.5106 11.0372C14.5421 11.4551 14.4147 11.8695 14.1538 12.1975C13.8929 12.5255 13.5177 12.7428 13.1034 12.806L13.054 12.8136L12.8859 12.825H11.8979L10.3161 15.2979C9.68531 16.4265 8.08266 16.416 7.44046 15.3387L7.41386 15.295L7.33501 15.1316L5.94611 11.6612L5.87201 11.8303C5.76091 12.0838 5.58829 12.3056 5.36981 12.4754C5.15133 12.6453 4.89389 12.758 4.62086 12.8032L4.56766 12.8117L4.38431 12.825H2.69141V17.1C2.69141 17.6039 2.89158 18.0872 3.2479 18.4435C3.60422 18.7998 4.08749 19 4.59141 19H15.9914C16.4953 19 16.9786 18.7998 17.3349 18.4435C17.6912 18.0872 17.8914 17.6039 17.8914 17.1V7.6H12.1914C11.6882 7.6 11.2055 7.40034 10.8492 7.04485C10.493 6.68935 10.2924 6.20705 10.2914 5.7038V0Z" fill="#745EF9"/>
<path d="M12.1908 6.17461C12.0648 6.17461 11.944 6.12457 11.8549 6.03549C11.7659 5.94641 11.7158 5.82559 11.7158 5.69961V0.474609L17.4158 6.17461H12.1908Z" fill="#745EF9"/>
<path d="M3.88255 10.4504H1.5028L1.40495 10.457L1.39545 10.4589C1.21842 10.4866 1.0583 10.5799 0.947025 10.7204C0.835744 10.8608 0.781466 11.038 0.795007 11.2167C0.808549 11.3954 0.888915 11.5624 1.02009 11.6845C1.15127 11.8065 1.32362 11.8747 1.5028 11.8754H4.34805L4.4535 11.8678L4.4649 11.8659C4.58203 11.8466 4.69248 11.7983 4.78622 11.7255C4.87995 11.6526 4.95401 11.5575 5.00165 11.4488L5.98395 9.20492L8.2041 14.7482L8.25065 14.8441L8.2554 14.8536C8.32086 14.9616 8.41385 15.0503 8.52485 15.1106C8.63586 15.1708 8.76089 15.2005 8.88713 15.1965C9.01337 15.1926 9.1363 15.1551 9.2433 15.088C9.35031 15.0209 9.43756 14.9266 9.4961 14.8147L11.3762 11.8754H12.8525L12.9503 11.8687L12.9598 11.8668C13.1368 11.8392 13.297 11.7458 13.4082 11.6054C13.5195 11.4649 13.5738 11.2877 13.5602 11.109C13.5467 10.9303 13.4663 10.7633 13.3352 10.6413C13.204 10.5192 13.0316 10.451 12.8525 10.4504H10.9525L10.8518 10.457L10.8423 10.4589C10.7331 10.4761 10.6293 10.5184 10.5393 10.5825C10.4493 10.6467 10.3754 10.7309 10.3236 10.8285L8.9679 12.8235L6.67555 7.09687L6.62805 6.99902L6.62235 6.98952C6.55445 6.87836 6.45737 6.78794 6.34167 6.72809C6.22597 6.66824 6.09607 6.64126 5.96611 6.65007C5.83614 6.65889 5.71108 6.70316 5.60452 6.77808C5.49796 6.853 5.41398 6.95571 5.3617 7.07502L3.88255 10.4504Z" fill="#745EF9"/>
</svg>
