<svg width="24" height="18" viewBox="0 0 24 18" fill="none" xmlns="http://www.w3.org/2000/svg">
<path d="M23.3418 17.25C23.3418 17.4489 23.261 17.6397 23.1172 17.7803C22.9735 17.921 22.7785 18 22.5751 18H1.10846C0.905131 18 0.710126 17.921 0.566348 17.7803C0.422571 17.6397 0.341797 17.4489 0.341797 17.25C0.341797 17.0511 0.422571 16.8603 0.566348 16.7197C0.710126 16.579 0.905131 16.5 1.10846 16.5H22.5751C22.7785 16.5 22.9735 16.579 23.1172 16.7197C23.261 16.8603 23.3418 17.0511 23.3418 17.25ZM1.1375 6.95426C1.09202 6.79713 1.10022 6.62977 1.16085 6.47762C1.22148 6.32546 1.33122 6.19683 1.4734 6.11125L11.4401 0.11124C11.5609 0.0385085 11.7 0 11.8418 0C11.9837 0 12.1228 0.0385085 12.2436 0.11124L22.2103 6.11125C22.3524 6.19684 22.4622 6.32548 22.5228 6.47763C22.5834 6.62978 22.5916 6.79712 22.5461 6.95425C22.5007 7.11137 22.404 7.24968 22.2709 7.34818C22.1377 7.44667 21.9754 7.49997 21.8085 7.49998H19.5085V13.5H21.0418C21.2451 13.5 21.4401 13.579 21.5839 13.7197C21.7277 13.8603 21.8085 14.0511 21.8085 14.25C21.8085 14.4489 21.7277 14.6397 21.5839 14.7803C21.4401 14.921 21.2451 15 21.0418 15H2.6418C2.43846 15 2.24346 14.921 2.09968 14.7803C1.9559 14.6397 1.87513 14.4489 1.87513 14.25C1.87513 14.0511 1.9559 13.8603 2.09968 13.7197C2.24346 13.579 2.43846 13.5 2.6418 13.5H4.17513V7.49998H1.87513C1.70821 7.49998 1.54585 7.44669 1.41272 7.34819C1.27958 7.24969 1.18295 7.11138 1.1375 6.95426ZM13.3751 12.75C13.3751 12.9489 13.4559 13.1397 13.5997 13.2803C13.7435 13.421 13.9385 13.5 14.1418 13.5C14.3451 13.5 14.5401 13.421 14.6839 13.2803C14.8277 13.1397 14.9085 12.9489 14.9085 12.75V8.24998C14.9085 8.05106 14.8277 7.8603 14.6839 7.71965C14.5401 7.57899 14.3451 7.49998 14.1418 7.49998C13.9385 7.49998 13.7435 7.57899 13.5997 7.71965C13.4559 7.8603 13.3751 8.05106 13.3751 8.24998V12.75ZM8.77513 12.75C8.77513 12.9489 8.8559 13.1397 8.99968 13.2803C9.14346 13.421 9.33846 13.5 9.5418 13.5C9.74513 13.5 9.94013 13.421 10.0839 13.2803C10.2277 13.1397 10.3085 12.9489 10.3085 12.75V8.24998C10.3085 8.05106 10.2277 7.8603 10.0839 7.71965C9.94013 7.57899 9.74513 7.49998 9.5418 7.49998C9.33846 7.49998 9.14346 7.57899 8.99968 7.71965C8.8559 7.8603 8.77513 8.05106 8.77513 8.24998V12.75Z" fill="#745EF9"/>
</svg>
