<svg width="18" height="21" viewBox="0 0 18 21" fill="none" xmlns="http://www.w3.org/2000/svg">
<path d="M9.74805 5.90625V0H5.1543C4.63215 0 4.13139 0.207421 3.76218 0.576634C3.39297 0.945846 3.18555 1.44661 3.18555 1.96875V16.4062C3.18555 16.9284 3.39297 17.4292 3.76218 17.7984C4.13139 18.1676 4.63215 18.375 5.1543 18.375H15.6543C16.1764 18.375 16.6772 18.1676 17.0464 17.7984C17.4156 17.4292 17.623 16.9284 17.623 16.4062V7.875H11.7168C11.1947 7.875 10.6939 7.66758 10.3247 7.29837C9.95547 6.92915 9.74805 6.42839 9.74805 5.90625Z" fill="#745EF9"/>
<path d="M11.0605 5.90625V0.328125L17.2949 6.5625H11.7168C11.5427 6.5625 11.3758 6.49336 11.2528 6.37029C11.1297 6.24722 11.0605 6.0803 11.0605 5.90625Z" fill="#745EF9"/>
<path d="M0.560547 3.9375C0.560547 3.5894 0.698828 3.25556 0.944969 3.00942C1.19111 2.76328 1.52495 2.625 1.87305 2.625V16.4062C1.87305 17.2765 2.21875 18.1111 2.8341 18.7264C3.44946 19.3418 4.28406 19.6875 5.1543 19.6875H14.998C14.998 20.0356 14.8598 20.3694 14.6136 20.6156C14.3675 20.8617 14.0336 21 13.6855 21H5.2173C3.98225 21 2.79779 20.5094 1.92448 19.6361C1.05117 18.7628 0.560547 17.5783 0.560547 16.3432V3.9375Z" fill="#745EF9"/>
</svg>
