<svg width="25" height="25" viewBox="0 0 25 25" fill="none" xmlns="http://www.w3.org/2000/svg">
<path d="M19.5 3.35938H15.32C14.9 2.19938 13.8 1.35938 12.5 1.35938C11.2 1.35938 10.1 2.19938 9.68 3.35938H5.5C4.4 3.35938 3.5 4.25937 3.5 5.35938V19.3594C3.5 20.4594 4.4 21.3594 5.5 21.3594H19.5C20.6 21.3594 21.5 20.4594 21.5 19.3594V5.35938C21.5 4.25937 20.6 3.35938 19.5 3.35938ZM12.5 3.35938C13.05 3.35938 13.5 3.80937 13.5 4.35938C13.5 4.90938 13.05 5.35938 12.5 5.35938C11.95 5.35938 11.5 4.90938 11.5 4.35938C11.5 3.80937 11.95 3.35938 12.5 3.35938ZM14.5 17.3594H7.5V15.3594H14.5V17.3594ZM17.5 13.3594H7.5V11.3594H17.5V13.3594ZM17.5 9.35938H7.5V7.35938H17.5V9.35938Z" fill="#745EF9"/>
</svg>
