<svg width="26" height="20" viewBox="0 0 26 20" fill="none" xmlns="http://www.w3.org/2000/svg">
<path d="M1.58333 3.52604C1.58333 3.10612 1.75015 2.70339 2.04708 2.40646C2.34401 2.10952 2.74674 1.94271 3.16667 1.94271H3.95833C4.1683 1.94271 4.36966 1.8593 4.51813 1.71083C4.66659 1.56237 4.75 1.361 4.75 1.15104C4.75 0.941079 4.66659 0.739715 4.51813 0.591249C4.36966 0.442783 4.1683 0.359375 3.95833 0.359375H3.16667C2.32681 0.359375 1.52136 0.693005 0.927495 1.28687C0.33363 1.88074 0 2.68619 0 3.52604V4.31771C0 4.52767 0.0834077 4.72903 0.231874 4.8775C0.38034 5.02597 0.581704 5.10938 0.791667 5.10938C1.00163 5.10938 1.20299 5.02597 1.35146 4.8775C1.49993 4.72903 1.58333 4.52767 1.58333 4.31771V3.52604Z" fill="#745EF9"/>
<path d="M3.16667 17.776C2.74674 17.776 2.34401 17.6092 2.04708 17.3123C1.75015 17.0154 1.58333 16.6126 1.58333 16.1927V15.401C1.58333 15.1911 1.49993 14.9897 1.35146 14.8412C1.20299 14.6928 1.00163 14.6094 0.791667 14.6094C0.581704 14.6094 0.38034 14.6928 0.231874 14.8412C0.0834077 14.9897 0 15.1911 0 15.401V16.1927C0 17.0326 0.33363 17.838 0.927495 18.4319C1.52136 19.0257 2.32681 19.3594 3.16667 19.3594H3.95833C4.1683 19.3594 4.36966 19.276 4.51813 19.1275C4.66659 18.979 4.75 18.7777 4.75 18.5677C4.75 18.3577 4.66659 18.1564 4.51813 18.0079C4.36966 17.8594 4.1683 17.776 3.95833 17.776H3.16667Z" fill="#745EF9"/>
<path d="M0.791667 6.69336C1.00163 6.69336 1.20299 6.77677 1.35146 6.92523C1.49993 7.0737 1.58333 7.27506 1.58333 7.48503V12.235C1.58333 12.445 1.49993 12.6464 1.35146 12.7948C1.20299 12.9433 1.00163 13.0267 0.791667 13.0267C0.581704 13.0267 0.38034 12.9433 0.231874 12.7948C0.0834077 12.6464 0 12.445 0 12.235V7.48503C0 7.27506 0.0834077 7.0737 0.231874 6.92523C0.38034 6.77677 0.581704 6.69336 0.791667 6.69336Z" fill="#745EF9"/>
<path d="M7.12467 0.359375C6.91471 0.359375 6.71335 0.442783 6.56488 0.591249C6.41642 0.739715 6.33301 0.941079 6.33301 1.15104C6.33301 1.361 6.41642 1.56237 6.56488 1.71083C6.71335 1.8593 6.91471 1.94271 7.12467 1.94271H10.2913C10.5013 1.94271 10.7027 1.8593 10.8511 1.71083C10.9996 1.56237 11.083 1.361 11.083 1.15104C11.083 0.941079 10.9996 0.739715 10.8511 0.591249C10.7027 0.442783 10.5013 0.359375 10.2913 0.359375H7.12467Z" fill="#745EF9"/>
<path d="M6.33301 18.5671C6.33301 18.3571 6.41642 18.1557 6.56488 18.0073C6.71335 17.8588 6.91471 17.7754 7.12467 17.7754H10.2913C10.5013 17.7754 10.7027 17.8588 10.8511 18.0073C10.9996 18.1557 11.083 18.3571 11.083 18.5671C11.083 18.777 10.9996 18.9784 10.8511 19.1269C10.7027 19.2753 10.5013 19.3587 10.2913 19.3587H7.12467C6.91471 19.3587 6.71335 19.2753 6.56488 19.1269C6.41642 18.9784 6.33301 18.777 6.33301 18.5671Z" fill="#745EF9"/>
<path d="M15.8337 7.48438V0.359375H13.4587C13.2487 0.359375 13.0473 0.442783 12.8989 0.591249C12.7504 0.739715 12.667 0.941079 12.667 1.15104V18.5677C12.667 18.7777 12.7504 18.979 12.8989 19.1275C13.0473 19.276 13.2487 19.3594 13.4587 19.3594H22.167C23.0068 19.3594 23.8123 19.0257 24.4062 18.4319C25 17.838 25.3337 17.0326 25.3337 16.1927V9.85938H18.2087C17.5788 9.85938 16.9747 9.60915 16.5293 9.16375C16.0839 8.71836 15.8337 8.11426 15.8337 7.48438Z" fill="#745EF9"/>
<path d="M17.417 7.48629V0.453125C17.8002 0.563958 18.1532 0.769792 18.4398 1.05638L24.6386 7.25513C24.9252 7.54171 25.131 7.89479 25.2402 8.27796H18.2087C17.9987 8.27796 17.7973 8.19455 17.6489 8.04609C17.5004 7.89762 17.417 7.69625 17.417 7.48629Z" fill="#745EF9"/>
</svg>
