<svg width="19" height="18" viewBox="0 0 19 18" fill="none" xmlns="http://www.w3.org/2000/svg">
<path d="M1.8418 18C1.8418 18 0.341797 18 0.341797 16.5C0.341797 15 1.8418 10.5 9.3418 10.5C16.8418 10.5 18.3418 15 18.3418 16.5C18.3418 18 16.8418 18 16.8418 18H1.8418ZM9.3418 9C10.5353 9 11.6799 8.52589 12.5238 7.68198C13.3677 6.83807 13.8418 5.69347 13.8418 4.5C13.8418 3.30653 13.3677 2.16193 12.5238 1.31802C11.6799 0.474106 10.5353 0 9.3418 0C8.14832 0 7.00373 0.474106 6.15982 1.31802C5.3159 2.16193 4.8418 3.30653 4.8418 4.5C4.8418 5.69347 5.3159 6.83807 6.15982 7.68198C7.00373 8.52589 8.14832 9 9.3418 9Z" fill="#745EF9"/>
</svg>
