<svg width="20" height="22" viewBox="0 0 20 22" fill="none" xmlns="http://www.w3.org/2000/svg">
<path d="M11.7416 0V5.7C11.7416 6.20391 11.9418 6.68718 12.2981 7.0435C12.6544 7.39982 13.1377 7.6 13.6416 7.6H19.3416V18.3667C19.3416 18.8706 19.1414 19.3538 18.7851 19.7102C18.4288 20.0665 17.9455 20.2667 17.4416 20.2667H15.5416V13.9333C15.5416 13.2615 15.2747 12.6171 14.7996 12.142C14.3245 11.6669 13.6802 11.4 13.0083 11.4H11.7416V10.1333C11.7416 9.46145 11.4747 8.81709 10.9996 8.342C10.5245 7.8669 9.88015 7.6 9.20827 7.6H5.40827C4.96349 7.59942 4.52648 7.71654 4.1416 7.93947V1.9C4.1416 1.39609 4.34178 0.912816 4.6981 0.556497C5.05442 0.200178 5.53769 0 6.0416 0H11.7416Z" fill="#745EF9"/>
<path d="M13.0088 0.316406V5.69974C13.0088 5.86771 13.0755 6.0288 13.1943 6.14757C13.3131 6.26635 13.4742 6.33307 13.6421 6.33307H19.0255L13.0088 0.316406Z" fill="#745EF9"/>
<path d="M4.1418 12.6672V10.7672C4.1418 10.2633 4.34197 9.78 4.69829 9.42368C5.05461 9.06737 5.53789 8.86719 6.0418 8.86719H8.57513C9.07904 8.86719 9.56231 9.06737 9.91863 9.42368C10.275 9.78 10.4751 10.2633 10.4751 10.7672V12.6672H12.3751C12.879 12.6672 13.3623 12.8674 13.7186 13.2237C14.075 13.58 14.2751 14.0633 14.2751 14.5672V16.4672H10.4751V15.8339C10.4751 15.6659 10.4084 15.5048 10.2896 15.386C10.1709 15.2672 10.0098 15.2005 9.8418 15.2005C9.67383 15.2005 9.51274 15.2672 9.39396 15.386C9.27519 15.5048 9.20846 15.6659 9.20846 15.8339V16.4672H5.40846V15.8339C5.40846 15.6659 5.34174 15.5048 5.22296 15.386C5.10419 15.2672 4.9431 15.2005 4.77513 15.2005C4.60716 15.2005 4.44607 15.2672 4.3273 15.386C4.20852 15.5048 4.1418 15.6659 4.1418 15.8339V16.4672H0.341797V14.5672C0.341797 14.0633 0.541975 13.58 0.898294 13.2237C1.25461 12.8674 1.73789 12.6672 2.2418 12.6672H4.1418ZM5.40846 10.7672V12.6672H9.20846V10.7672C9.20846 10.5992 9.14174 10.4381 9.02296 10.3194C8.90419 10.2006 8.7431 10.1339 8.57513 10.1339H6.0418C5.87383 10.1339 5.71274 10.2006 5.59396 10.3194C5.47519 10.4381 5.40846 10.5992 5.40846 10.7672Z" fill="#745EF9"/>
<path d="M10.4751 17.7324H14.2751V19.6324C14.2751 20.1363 14.075 20.6196 13.7186 20.9759C13.3623 21.3322 12.879 21.5324 12.3751 21.5324H2.2418C1.73789 21.5324 1.25461 21.3322 0.898294 20.9759C0.541975 20.6196 0.341797 20.1363 0.341797 19.6324V17.7324H4.1418V18.3658C4.1418 18.5337 4.20852 18.6948 4.3273 18.8136C4.44607 18.9324 4.60716 18.9991 4.77513 18.9991C4.9431 18.9991 5.10419 18.9324 5.22296 18.8136C5.34174 18.6948 5.40846 18.5337 5.40846 18.3658V17.7324H9.20846V18.3658C9.20846 18.5337 9.27519 18.6948 9.39396 18.8136C9.51274 18.9324 9.67383 18.9991 9.8418 18.9991C10.0098 18.9991 10.1709 18.9324 10.2896 18.8136C10.4084 18.6948 10.4751 18.5337 10.4751 18.3658V17.7324Z" fill="#745EF9"/>
</svg>
