<svg width="24" height="25" viewBox="0 0 24 25" fill="none" xmlns="http://www.w3.org/2000/svg">
<path fill-rule="evenodd" clip-rule="evenodd" d="M11.8418 3C6.59521 3 2.3418 7.25341 2.3418 12.5C2.3418 17.7466 6.59521 22 11.8418 22C17.0884 22 21.3418 17.7466 21.3418 12.5C21.3418 7.25341 17.0884 3 11.8418 3ZM15.9596 10.8936C16.0354 10.807 16.0932 10.706 16.1294 10.5967C16.1656 10.4874 16.1796 10.3719 16.1706 10.2571C16.1615 10.1423 16.1296 10.0305 16.0767 9.9282C16.0238 9.82592 15.951 9.73525 15.8625 9.66152C15.774 9.5878 15.6717 9.53251 15.5616 9.49892C15.4514 9.46532 15.3357 9.4541 15.2211 9.4659C15.1066 9.4777 14.9955 9.51229 14.8945 9.56764C14.7935 9.62299 14.7046 9.69797 14.6331 9.78818L10.9194 14.2437L8.99784 12.3212C8.83496 12.1639 8.6168 12.0769 8.39036 12.0788C8.16392 12.0808 7.94731 12.1716 7.78718 12.3317C7.62706 12.4919 7.53623 12.7085 7.53426 12.9349C7.53229 13.1614 7.61934 13.3795 7.77666 13.5424L10.3676 16.1333C10.4524 16.2181 10.554 16.2843 10.6659 16.3277C10.7777 16.3711 10.8974 16.3906 11.0173 16.3852C11.1371 16.3798 11.2545 16.3494 11.362 16.2961C11.4694 16.2427 11.5646 16.1676 11.6414 16.0755L15.9596 10.8936Z" fill="#745EF9"/>
</svg>
