<svg width="25" height="25" viewBox="0 0 25 25" fill="none" xmlns="http://www.w3.org/2000/svg">
<g clip-path="url(#clip0)">
<path d="M23.1796 9.15568L14.9912 6.96008L13.5579 1.61298C13.438 1.16638 12.9584 0.906777 12.4876 1.03108L2.50396 3.70628C2.03316 3.83168 1.74936 4.29808 1.86926 4.74468L5.42226 18.0008C5.54216 18.4474 6.02066 18.7081 6.49036 18.5805L10.4647 17.5168L9.92346 19.5386C9.80356 19.9852 10.0874 20.4516 10.5582 20.5759L19.4792 22.9673C19.95 23.0938 20.4274 22.8342 20.5484 22.3854L23.8154 10.193C23.9342 9.74638 23.6504 9.27998 23.1796 9.15568ZM3.63806 4.99328L12.2511 2.68768L15.4389 14.5875L6.82586 16.8931L3.63806 4.99328ZM19.0876 21.3085L11.5922 19.2592L12.1818 17.057L16.4729 15.9053C16.9437 15.781 17.2297 15.3146 17.1087 14.868L15.4499 8.67828L21.9916 10.4724L19.0876 21.3085Z" fill="#745EF9" stroke="#745EF9"/>
</g>
<defs>
<clipPath id="clip0">
<rect width="24" height="24" fill="white" transform="translate(0.5 0.359375)"/>
</clipPath>
</defs>
</svg>
