<svg width="18" height="23" viewBox="0 0 18 23" fill="none" xmlns="http://www.w3.org/2000/svg">
<path d="M8.8418 0.636719C6.58827 0.639377 4.42781 1.53576 2.83433 3.12925C1.24085 4.72273 0.344464 6.88319 0.341806 9.13671C0.339107 10.9783 0.940654 12.7699 2.05417 14.2367C2.05417 14.2367 2.28599 14.5419 2.32385 14.586L8.8418 22.2731L15.3628 14.5821C15.3968 14.5412 15.6294 14.2367 15.6294 14.2367L15.6302 14.2344C16.7432 12.7682 17.3444 10.9774 17.3418 9.13671C17.3391 6.88319 16.4427 4.72273 14.8493 3.12925C13.2558 1.53576 11.0953 0.639377 8.8418 0.636719ZM9.61452 13.0003H8.06907V11.4549H9.61452V13.0003ZM9.61452 9.90944H8.06907V8.36398H9.61452V9.90944ZM12.7054 13.0003H11.16V6.81853H6.52362V13.0003H4.97817V6.81853C4.97857 6.40878 5.14153 6.01592 5.43127 5.72618C5.72101 5.43644 6.11386 5.27349 6.52362 5.27308H11.16C11.5697 5.27349 11.9626 5.43644 12.2523 5.72618C12.5421 6.01592 12.705 6.40878 12.7054 6.81853V13.0003Z" fill="#745EF9"/>
</svg>
