<svg width="196" height="54" viewBox="0 0 196 54" fill="none" xmlns="http://www.w3.org/2000/svg">
<path d="M63.7064 34.4793H69.9414V36.3848H61.3199V22.6507H63.7064V34.4793ZM71.1205 31.1873C71.1205 30.1874 71.3186 29.2882 71.7148 28.4895C72.111 27.6846 72.6675 27.0683 73.3844 26.6407C74.1013 26.2068 74.9251 25.9899 75.8558 25.9899C77.233 25.9899 78.3492 26.4332 79.2044 27.3199C80.0659 28.2066 80.5313 29.3825 80.6005 30.8477L80.6099 31.3854C80.6099 32.3916 80.4149 33.2908 80.0251 34.0832C79.6415 34.8755 79.0881 35.4887 78.3649 35.9226C77.648 36.3565 76.8179 36.5734 75.8746 36.5734C74.4346 36.5734 73.2806 36.0955 72.4128 35.1396C71.5513 34.1775 71.1205 32.8978 71.1205 31.3005V31.1873ZM73.4127 31.3854C73.4127 32.4356 73.6296 33.2594 74.0635 33.8568C74.4975 34.4479 75.1011 34.7435 75.8746 34.7435C76.6481 34.7435 77.2487 34.4416 77.6763 33.8379C78.1102 33.2342 78.3272 32.3507 78.3272 31.1873C78.3272 30.156 78.1039 29.3385 77.6574 28.7348C77.2172 28.1311 76.6167 27.8292 75.8558 27.8292C75.1074 27.8292 74.5132 28.128 74.073 28.7254C73.6328 29.3165 73.4127 30.2032 73.4127 31.3854ZM84.6754 26.1785L84.7414 27.3576C85.4961 26.4458 86.4865 25.9899 87.7128 25.9899C89.8383 25.9899 90.9199 27.2067 90.9576 29.6403V36.3848H88.6655V29.7724C88.6655 29.1247 88.524 28.6468 88.241 28.3386C87.9643 28.0242 87.5084 27.867 86.8732 27.867C85.9488 27.867 85.2602 28.2852 84.8075 29.1215V36.3848H82.5153V26.1785H84.6754ZM92.9008 31.2062C92.9008 29.6215 93.2718 28.3575 94.0138 27.4142C94.7622 26.4646 95.7526 25.9899 96.9852 25.9899C98.1485 25.9899 99.0635 26.3955 99.7301 27.2067L99.8339 26.1785H101.9V36.0735C101.9 37.4129 101.481 38.4694 100.645 39.2429C99.815 40.0164 98.6925 40.4031 97.2776 40.4031C96.5293 40.4031 95.7966 40.2459 95.0797 39.9315C94.3691 39.6233 93.8283 39.2177 93.4573 38.7147L94.5421 37.3375C95.2464 38.1738 96.1142 38.592 97.1455 38.592C97.9064 38.592 98.507 38.3845 98.9472 37.9695C99.3874 37.5607 99.6075 36.957 99.6075 36.1584V35.4698C98.9472 36.2055 98.0668 36.5734 96.9663 36.5734C95.7715 36.5734 94.7936 36.0986 94.0327 35.1491C93.2781 34.1995 92.9008 32.8852 92.9008 31.2062ZM95.1835 31.4043C95.1835 32.4293 95.391 33.2374 95.8061 33.8285C96.2274 34.4133 96.8091 34.7057 97.5511 34.7057C98.4755 34.7057 99.161 34.3096 99.6075 33.5172V29.0272C99.1736 28.2537 98.4944 27.867 97.57 27.867C96.8154 27.867 96.2274 28.1657 95.8061 28.7631C95.391 29.3605 95.1835 30.2409 95.1835 31.4043ZM110.361 36.3848C110.26 36.1898 110.172 35.8723 110.097 35.4321C109.367 36.193 108.474 36.5734 107.418 36.5734C106.393 36.5734 105.556 36.281 104.909 35.6962C104.261 35.1113 103.937 34.3882 103.937 33.5266C103.937 32.4387 104.34 31.6055 105.145 31.027C105.956 30.4421 107.113 30.1497 108.616 30.1497H110.021V29.48C110.021 28.9517 109.873 28.5304 109.578 28.216C109.282 27.8953 108.833 27.7349 108.229 27.7349C107.707 27.7349 107.279 27.867 106.946 28.1311C106.613 28.3889 106.446 28.7191 106.446 29.1215H104.154C104.154 28.5619 104.34 28.0399 104.711 27.5557C105.082 27.0652 105.585 26.6816 106.22 26.4049C106.861 26.1282 107.575 25.9899 108.361 25.9899C109.556 25.9899 110.509 26.2917 111.219 26.8954C111.93 27.4928 112.295 28.3355 112.313 29.4234V34.0266C112.313 34.9447 112.442 35.6773 112.7 36.2244V36.3848H110.361ZM107.842 34.734C108.295 34.734 108.72 34.624 109.116 34.4039C109.518 34.1838 109.82 33.8882 110.021 33.5172V31.5929H108.786C107.937 31.5929 107.298 31.7407 106.871 32.0363C106.443 32.3318 106.229 32.75 106.229 33.2908C106.229 33.731 106.374 34.0832 106.663 34.3473C106.959 34.6051 107.352 34.734 107.842 34.734ZM116.841 26.1785L116.907 27.3576C117.662 26.4458 118.652 25.9899 119.878 25.9899C122.004 25.9899 123.086 27.2067 123.123 29.6403V36.3848H120.831V29.7724C120.831 29.1247 120.69 28.6468 120.407 28.3386C120.13 28.0242 119.674 27.867 119.039 27.867C118.115 27.867 117.426 28.2852 116.973 29.1215V36.3848H114.681V26.1785H116.841ZM141.027 34.602C140.53 35.2497 139.841 35.7402 138.961 36.0735C138.081 36.4068 137.081 36.5734 135.961 36.5734C134.811 36.5734 133.792 36.3124 132.905 35.7905C132.018 35.2686 131.333 34.5234 130.849 33.5549C130.371 32.5802 130.122 31.4451 130.104 30.1497V29.0744C130.104 26.9992 130.6 25.3799 131.594 24.2165C132.588 23.0468 133.974 22.462 135.754 22.462C137.282 22.462 138.496 22.8393 139.395 23.5939C140.294 24.3486 140.835 25.4365 141.017 26.8577H138.678C138.414 25.2038 137.455 24.3769 135.801 24.3769C134.732 24.3769 133.918 24.7636 133.358 25.5371C132.805 26.3043 132.518 27.4331 132.5 28.9234V29.9799C132.5 31.464 132.811 32.6179 133.433 33.4417C134.062 34.2592 134.933 34.668 136.046 34.668C137.266 34.668 138.134 34.3913 138.65 33.8379V31.1496H135.82V29.3385H141.027V34.602ZM148.771 28.2726C148.469 28.2223 148.158 28.1971 147.837 28.1971C146.787 28.1971 146.08 28.5996 145.715 29.4045V36.3848H143.423V26.1785H145.611L145.668 27.3199C146.221 26.4332 146.988 25.9899 147.969 25.9899C148.296 25.9899 148.567 26.0339 148.78 26.1219L148.771 28.2726ZM149.45 31.1873C149.45 30.1874 149.648 29.2882 150.044 28.4895C150.441 27.6846 150.997 27.0683 151.714 26.6407C152.431 26.2068 153.255 25.9899 154.185 25.9899C155.563 25.9899 156.679 26.4332 157.534 27.3199C158.396 28.2066 158.861 29.3825 158.93 30.8477L158.94 31.3854C158.94 32.3916 158.745 33.2908 158.355 34.0832C157.971 34.8755 157.418 35.4887 156.695 35.9226C155.978 36.3565 155.148 36.5734 154.204 36.5734C152.764 36.5734 151.61 36.0955 150.743 35.1396C149.881 34.1775 149.45 32.8978 149.45 31.3005V31.1873ZM151.742 31.3854C151.742 32.4356 151.959 33.2594 152.393 33.8568C152.827 34.4479 153.431 34.7435 154.204 34.7435C154.978 34.7435 155.578 34.4416 156.006 33.8379C156.44 33.2342 156.657 32.3507 156.657 31.1873C156.657 30.156 156.434 29.3385 155.987 28.7348C155.547 28.1311 154.946 27.8292 154.185 27.8292C153.437 27.8292 152.843 28.128 152.403 28.7254C151.962 29.3165 151.742 30.2032 151.742 31.3854ZM167.061 35.3849C166.388 36.1772 165.432 36.5734 164.194 36.5734C163.087 36.5734 162.247 36.2496 161.675 35.6018C161.109 34.9541 160.826 34.0171 160.826 32.7909V26.1785H163.118V32.7626C163.118 34.058 163.656 34.7057 164.731 34.7057C165.844 34.7057 166.596 34.3064 166.986 33.5078V26.1785H169.278V36.3848H167.118L167.061 35.3849ZM180.55 31.3854C180.55 32.9638 180.192 34.2247 179.475 35.1679C178.758 36.1049 177.796 36.5734 176.588 36.5734C175.469 36.5734 174.573 36.2055 173.9 35.4698V40.3088H171.608V26.1785H173.721L173.815 27.2161C174.488 26.3986 175.403 25.9899 176.56 25.9899C177.805 25.9899 178.78 26.4552 179.484 27.3859C180.195 28.3103 180.55 29.5963 180.55 31.2439V31.3854ZM178.267 31.1873C178.267 30.1686 178.063 29.3605 177.654 28.7631C177.252 28.1657 176.673 27.867 175.919 27.867C174.982 27.867 174.309 28.2537 173.9 29.0272V33.5549C174.315 34.3473 174.994 34.7435 175.937 34.7435C176.667 34.7435 177.236 34.451 177.645 33.8662C178.06 33.2751 178.267 32.3821 178.267 31.1873Z" fill="#23242A"/>
<g clip-path="url(#clip0)">
<path d="M32.1799 38.2545C26.8858 41.1146 21.2925 42.1397 16.5514 41.5272C11.8086 40.9145 7.99679 38.6827 6.06033 35.0983C4.12387 31.5139 4.34669 27.1024 6.434 22.7997C8.52054 18.4987 12.4439 14.3824 17.7381 11.5223C23.0322 8.66222 28.6255 7.6371 33.3666 8.24961C38.1094 8.86235 41.9212 11.0941 43.8576 14.6786C45.7941 18.263 45.5713 22.6744 43.484 26.9771C41.3974 31.2782 37.474 35.3944 32.1799 38.2545Z" stroke="url(#paint0_linear)" stroke-width="1.90246"/>
<path d="M35.3834 42.444C30.6342 45.0098 25.6201 45.9273 21.3749 45.3789C17.128 44.8302 13.7289 42.8341 12.0043 39.6419C10.2797 36.4496 10.4734 32.5125 12.3425 28.6597C14.2108 24.8085 17.7267 21.1177 22.4759 18.552C27.2252 15.9863 32.2393 15.0687 36.4845 15.6172C40.7314 16.1658 44.1305 18.1619 45.8551 21.3542C47.5797 24.5465 47.386 28.4836 45.5169 32.3364C43.6486 36.1875 40.1327 39.8783 35.3834 42.444Z" stroke="url(#paint1_linear)" stroke-width="1.90246"/>
<path d="M16.4691 43.0298C13.6159 44.5712 10.6171 45.1145 8.09756 44.789C5.57626 44.4633 3.61303 43.2873 2.62559 41.4596C1.63815 39.6318 1.73076 37.3452 2.84038 35.0579C3.94923 32.7721 6.04745 30.5618 8.90065 29.0204C11.7538 27.479 14.7527 26.9357 17.2722 27.2612C19.7935 27.5869 21.7568 28.7629 22.7442 30.5906C23.7316 32.4184 23.639 34.705 22.5294 36.9923C21.4206 39.278 19.3223 41.4884 16.4691 43.0298Z" stroke="url(#paint2_linear)" stroke-width="1.90246"/>
<path d="M12.9163 38.1663C11.0639 39.167 9.13687 39.525 7.54212 39.3374C5.944 39.1495 4.76858 38.4348 4.19547 37.3739C3.62236 36.3131 3.66888 34.9382 4.38771 33.4986C5.10503 32.062 6.4607 30.6464 8.31315 29.6457C10.1656 28.6449 12.0926 28.287 13.6874 28.4745C15.2855 28.6624 16.4609 29.3772 17.034 30.438C17.6071 31.4988 17.5606 32.8737 16.8418 34.3134C16.1245 35.75 14.7688 37.1655 12.9163 38.1663Z" stroke="url(#paint3_linear)" stroke-width="1.90246"/>
</g>
<defs>
<linearGradient id="paint0_linear" x1="44.6945" y1="14.2264" x2="5.22342" y2="35.5504" gradientUnits="userSpaceOnUse">
<stop stop-color="#6542DC" stop-opacity="0"/>
<stop offset="0.337112" stop-color="#6542DC"/>
</linearGradient>
<linearGradient id="paint1_linear" x1="46.692" y1="20.9021" x2="11.1674" y2="40.094" gradientUnits="userSpaceOnUse">
<stop stop-color="#6542DC"/>
<stop offset="1" stop-color="#6542DC" stop-opacity="0"/>
</linearGradient>
<linearGradient id="paint2_linear" x1="23.5811" y1="30.1385" x2="1.78869" y2="41.9117" gradientUnits="userSpaceOnUse">
<stop stop-color="#6542DC"/>
<stop offset="1" stop-color="#6542DC" stop-opacity="0"/>
</linearGradient>
<linearGradient id="paint3_linear" x1="17.8709" y1="29.9859" x2="3.35857" y2="37.8261" gradientUnits="userSpaceOnUse">
<stop stop-color="#6542DC"/>
<stop offset="1" stop-color="#6542DC" stop-opacity="0"/>
</linearGradient>
<clipPath id="clip0">
<rect width="53" height="53" fill="white" transform="translate(0.425781 0.359375)"/>
</clipPath>
</defs>
</svg>
