<svg width="276" height="264" viewBox="0 0 276 264" fill="none" xmlns="http://www.w3.org/2000/svg">
<rect width="197" height="200" transform="translate(39.5742 31.9688)" fill="#F8F7FF"/>
<path opacity="0.76" d="M83.0742 122.969L110.574 150.469L153.074 107.969" stroke="#745EF9" stroke-width="13" stroke-linecap="round" stroke-linejoin="round"/>
<g filter="url(#filter0_f)">
<path fill-rule="evenodd" clip-rule="evenodd" d="M136.722 100.98C152.606 100.698 169.683 105.734 174.674 119.1C179.728 132.633 169.606 145.884 156.645 154.327C143.401 162.954 125.806 168.123 112.445 159.637C98.8843 151.025 97.433 134.249 103.178 120.369C108.26 108.09 121.966 101.242 136.722 100.98Z" fill="url(#paint0_linear)"/>
<path fill-rule="evenodd" clip-rule="evenodd" d="M136.722 100.98C152.606 100.698 169.683 105.734 174.674 119.1C179.728 132.633 169.606 145.884 156.645 154.327C143.401 162.954 125.806 168.123 112.445 159.637C98.8843 151.025 97.433 134.249 103.178 120.369C108.26 108.09 121.966 101.242 136.722 100.98Z" fill="url(#paint1_linear)"/>
</g>
<path d="M118.574 127.469L146.074 154.969L188.574 112.469" stroke="white" stroke-width="25" stroke-linecap="round" stroke-linejoin="round"/>
<circle cx="193.074" cy="195.469" r="23.5" stroke="#745EF9" stroke-opacity="0.8" stroke-width="2" stroke-linecap="round" stroke-linejoin="round" stroke-dasharray="1 9"/>
<circle cx="156.074" cy="67.4688" r="13.5" stroke="#745EF9" stroke-opacity="0.8" stroke-width="2" stroke-linecap="round" stroke-linejoin="round" stroke-dasharray="1 9"/>
<rect x="154.574" y="46.9688" width="21" height="21" fill="#FFF2D4"/>
<path d="M159.574 56.6158L164.427 61.4688L171.927 53.9688" stroke="black" stroke-width="2.29412" stroke-linecap="round" stroke-linejoin="round"/>
<rect x="87.5742" y="181.969" width="21" height="21" fill="#FFF2D4"/>
<path d="M92.5742 191.616L97.4272 196.469L104.927 188.969" stroke="black" stroke-width="2.29412" stroke-linecap="round" stroke-linejoin="round"/>
<defs>
<filter id="filter0_f" x="0" y="0.96875" width="276" height="263" filterUnits="userSpaceOnUse" color-interpolation-filters="sRGB">
<feFlood flood-opacity="0" result="BackgroundImageFix"/>
<feBlend mode="normal" in="SourceGraphic" in2="BackgroundImageFix" result="shape"/>
<feGaussianBlur stdDeviation="50" result="effect1_foregroundBlur"/>
</filter>
<linearGradient id="paint0_linear" x1="138" y1="100.969" x2="138" y2="163.969" gradientUnits="userSpaceOnUse">
<stop stop-color="#FF08AB"/>
<stop offset="1" stop-color="#F58A25" stop-opacity="0"/>
<stop offset="1" stop-color="#7061A3" stop-opacity="0"/>
</linearGradient>
<linearGradient id="paint1_linear" x1="138" y1="100.969" x2="138" y2="163.969" gradientUnits="userSpaceOnUse">
<stop stop-color="#745EF9"/>
<stop offset="1" stop-color="#745EF9" stop-opacity="0.46"/>
</linearGradient>
</defs>
</svg>
