<svg width="78" height="78" viewBox="0 0 78 78" fill="none" xmlns="http://www.w3.org/2000/svg">
<path d="M39 0L72.775 58.5H5.22501L39 0Z" fill="#4FCC64" fill-opacity="0.2"/>
<path d="M44.4897 21.7938H43.2268V18.0052C43.2268 11.9369 38.2899 7 32.2216 7C26.1534 7 21.2165 11.9369 21.2165 18.0052V21.7938H19.9536C17.7693 21.7938 15.9431 23.386 15.5309 25.4923H14.9021C14.4039 25.4923 14 25.8962 14 26.3943V30.7242C14 31.2223 14.4039 31.6263 14.9021 31.6263H15.4433V34.4227H14.9021C14.4039 34.4227 14 34.8266 14 35.3247V39.6546C14 40.1528 14.4039 40.5567 14.9021 40.5567H15.4433V43.3609H14.9021C14.4039 43.3609 14 43.7648 14 44.2629V48.5928C14 49.0909 14.4039 49.4949 14.9021 49.4949H15.5322C15.9475 51.5973 17.772 53.1856 19.9536 53.1856H44.4897C46.9767 53.1856 49 51.1217 49 48.5851V26.3943C49 23.8576 46.9767 21.7938 44.4897 21.7938ZM23.0206 18.0052C23.0206 12.9317 27.1482 8.80412 32.2216 8.80412C37.2951 8.80412 41.4227 12.9317 41.4227 18.0052V21.7938H38.8969V18.0051C38.8969 14.3244 35.9024 11.3299 32.2216 11.3299C28.5409 11.3299 25.5464 14.3244 25.5464 18.0051V21.7938H23.0206V18.0052ZM27.3505 21.7938V18.0051C27.3505 15.3192 29.5357 13.134 32.2216 13.134C34.9075 13.134 37.0928 15.3192 37.0928 18.0051V21.7938H27.3505ZM26.9897 27.2964V29.8222H23.5619V27.2964H26.9897ZM19.232 29.8222H15.8041V27.2964H19.232V29.8222ZM26.9897 36.2268V38.7526H23.5619V36.2268H26.9897ZM19.232 38.7526H15.8041V36.2268H19.232V38.7526ZM26.9897 45.165V47.6907H23.5619V45.165H26.9897ZM19.232 47.6907H15.8041V45.165H19.232V47.6907ZM47.1959 48.5851C47.1959 50.127 45.9819 51.3814 44.4897 51.3814H19.9536C18.7697 51.3814 17.7615 50.5913 17.3953 49.4949H27.8918C28.39 49.4949 28.7938 49.0909 28.7938 48.5928V44.2629C28.7938 43.7648 28.39 43.3609 27.8918 43.3609H17.2474V40.5567H27.8918C28.39 40.5567 28.7938 40.1528 28.7938 39.6546V35.3247C28.7938 34.8266 28.39 34.4227 27.8918 34.4227H17.2474V31.6263H27.8918C28.39 31.6263 28.7938 31.2223 28.7938 30.7242V26.3943C28.7938 25.8962 28.39 25.4923 27.8918 25.4923H17.3927C17.7568 24.3918 18.7669 23.5979 19.9536 23.5979H44.4897C45.9819 23.5979 47.1959 24.8523 47.1959 26.3943V48.5851Z" fill="black"/>
</svg>
