<svg width="78" height="78" viewBox="0 0 78 78" fill="none" xmlns="http://www.w3.org/2000/svg">
<path d="M62.6846 37.1631C62.1612 31.8983 59.8091 26.9349 56.0615 23.1871C52.8587 19.9845 48.9386 17.9264 44.8138 17.0113V14.1183C46.4985 13.6991 47.7508 12.1742 47.7508 10.3616C47.7508 8.22688 46.0142 6.49023 43.8795 6.49023H35.6813C33.5466 6.49023 31.81 8.22688 31.81 10.3616C31.81 12.1741 33.0622 13.699 34.7468 14.1183V17.0194C30.6347 17.9384 26.7276 19.9936 23.5339 23.1872C22.835 23.8861 22.1906 24.6193 21.6007 25.3813C21.5721 25.3791 21.5435 25.3769 21.5143 25.3769H13.4003C12.7716 25.3769 12.2617 25.8867 12.2617 26.5156C12.2617 27.1444 12.7716 27.6542 13.4003 27.6542H20.0513C19.2165 29.0519 18.5433 30.5197 18.0309 32.0307H5.63863C5.00988 32.0307 4.5 32.5404 4.5 33.1693C4.5 33.7982 5.00988 34.3079 5.63863 34.3079H17.3875C17.0593 35.7484 16.871 37.2144 16.8224 38.6845H11.7872C11.1585 38.6845 10.6486 39.1942 10.6486 39.8231C10.6486 40.452 11.1585 40.9617 11.7872 40.9617H16.8587C16.9548 42.4356 17.1918 43.9017 17.5697 45.3383H10.1932C9.56441 45.3383 9.05453 45.8481 9.05453 46.4769C9.05453 47.1058 9.56441 47.6156 10.1932 47.6156H18.2963C19.4133 50.5704 21.159 53.3399 23.5339 55.7149C27.2853 59.4662 32.2538 61.8189 37.5241 62.3395C38.2763 62.4138 39.029 62.4506 39.7807 62.4506C44.2239 62.4506 48.6106 61.1647 52.3328 58.7408C52.8597 58.3976 53.0088 57.6922 52.6656 57.1653C52.3224 56.6383 51.617 56.4893 51.0901 56.8324C42.9424 62.1381 32.0305 60.991 25.1442 54.1046C17.0642 46.0247 17.0642 32.8777 25.1442 24.7976C33.224 16.7178 46.371 16.7178 54.4511 24.7976C61.3283 31.6749 62.4817 42.5775 57.1936 50.7212C56.8511 51.2486 57.0011 51.9539 57.5284 52.2962C58.056 52.6387 58.761 52.4888 59.1034 51.9614C61.9288 47.6101 63.2007 42.3547 62.6846 37.1631ZM34.0872 10.3617C34.0872 9.48267 34.8023 8.76761 35.6813 8.76761H43.8795C44.7585 8.76761 45.4735 9.48267 45.4735 10.3617C45.4735 11.2407 44.7585 11.9558 43.8795 11.9558H43.6752H35.8855H35.6813C34.8023 11.9558 34.0872 11.2406 34.0872 10.3617ZM37.0241 16.6279V14.233H42.5366V16.6238C40.7061 16.4061 38.8542 16.4075 37.0241 16.6279Z" fill="black"/>
<path d="M55.2578 53.7703C54.9572 53.7703 54.6645 53.8921 54.4529 54.1039C54.2399 54.3157 54.1191 54.6094 54.1191 54.9089C54.1191 55.2083 54.2399 55.5021 54.4529 55.7139C54.6645 55.9268 54.9573 56.0475 55.2578 56.0475C55.5572 56.0475 55.8498 55.9268 56.0628 55.7139C56.2745 55.5021 56.3964 55.2083 56.3964 54.9089C56.3964 54.6094 56.2747 54.3157 56.0628 54.1039C55.8498 53.8921 55.5571 53.7703 55.2578 53.7703Z" fill="black"/>
<path d="M39.7963 21.7874C30.0567 21.7874 22.1328 29.7111 22.1328 39.4508C22.1328 49.1906 30.0567 57.1143 39.7963 57.1143C49.5359 57.1143 57.4598 49.1906 57.4598 39.4508C57.4598 29.7111 49.5359 21.7874 39.7963 21.7874ZM39.7963 54.837C31.3122 54.837 24.4101 47.9348 24.4101 39.4508C24.4101 30.9669 31.3122 24.0646 39.7963 24.0646C48.2804 24.0646 55.1825 30.9669 55.1825 39.4508C55.1825 47.9348 48.2804 54.837 39.7963 54.837Z" fill="black"/>
<path d="M46.9989 30.6379L41.3592 36.2774C40.8876 36.0443 40.3571 35.9125 39.7964 35.9125C39.2355 35.9125 38.7051 36.0443 38.2335 36.2774L35.7095 33.7534C35.2647 33.3088 34.544 33.3088 34.0991 33.7534C33.6545 34.1981 33.6545 34.9191 34.0991 35.3637L36.6231 37.8877C36.3898 38.3593 36.2582 38.8898 36.2582 39.4506C36.2582 41.4015 37.8453 42.9888 39.7964 42.9888C41.7474 42.9888 43.3345 41.4015 43.3345 39.4506C43.3345 38.8898 43.2028 38.3593 42.9696 37.8877L48.4437 32.4136L48.6091 32.2482C49.0538 31.8035 49.0538 31.0826 48.6091 30.6379C48.1645 30.1933 47.4437 30.1933 46.9989 30.6379ZM39.7964 40.7116C39.1011 40.7116 38.5354 40.146 38.5354 39.4507C38.5354 38.7555 39.1011 38.1898 39.7964 38.1898C40.4916 38.1898 41.0573 38.7555 41.0573 39.4507C41.0573 40.146 40.4916 40.7116 39.7964 40.7116Z" fill="black"/>
<path d="M51.9709 38.3259H50.916C50.2872 38.3259 49.7773 38.8357 49.7773 39.4645C49.7773 40.0934 50.2872 40.6032 50.916 40.6032H51.9709C52.5996 40.6032 53.1095 40.0934 53.1095 39.4645C53.1095 38.8357 52.5996 38.3259 51.9709 38.3259Z" fill="black"/>
<path d="M28.6778 38.2983H27.623C26.9942 38.2983 26.4844 38.8081 26.4844 39.437C26.4844 40.0658 26.9942 40.5756 27.623 40.5756H28.6778C29.3065 40.5756 29.8164 40.0658 29.8164 39.437C29.8164 38.8081 29.3065 38.2983 28.6778 38.2983Z" fill="black"/>
<path d="M39.8105 29.47C40.4392 29.47 40.9491 28.9602 40.9491 28.3314V27.2766C40.9491 26.6477 40.4392 26.1379 39.8105 26.1379C39.1817 26.1379 38.6719 26.6477 38.6719 27.2766V28.3314C38.6719 28.9602 39.1817 29.47 39.8105 29.47Z" fill="black"/>
<path d="M39.7831 49.4316C39.1544 49.4316 38.6445 49.9414 38.6445 50.5703V51.6251C38.6445 52.2539 39.1544 52.7637 39.7831 52.7637C40.4119 52.7637 40.9218 52.2539 40.9218 51.6251V50.5703C40.9218 49.9414 40.4119 49.4316 39.7831 49.4316Z" fill="black"/>
<path d="M5.63861 45.3379C5.33916 45.3379 5.0454 45.4597 4.83361 45.6715C4.62183 45.8833 4.5 46.177 4.5 46.4765C4.5 46.7771 4.62172 47.0697 4.83361 47.2815C5.04551 47.4933 5.33916 47.6151 5.63861 47.6151C5.93807 47.6151 6.23183 47.4933 6.4435 47.2815C6.65528 47.0697 6.77723 46.776 6.77723 46.4765C6.77723 46.177 6.6554 45.8833 6.4435 45.6715C6.23183 45.4597 5.93807 45.3379 5.63861 45.3379Z" fill="black"/>
<path d="M39 0L72.775 58.5H5.22501L39 0Z" fill="#4FCC64" fill-opacity="0.2"/>
</svg>
