<svg width="79" height="78" viewBox="0 0 79 78" fill="none" xmlns="http://www.w3.org/2000/svg">
<path d="M31.6195 29.1242C31.6195 29.6443 31.198 30.0658 30.6779 30.0658C30.1578 30.0658 29.7363 29.6443 29.7363 29.1242C29.7363 28.6041 30.1578 28.1826 30.6779 28.1826C31.198 28.1826 31.6195 28.6041 31.6195 29.1242Z" fill="black"/>
<path d="M39.1505 20.6499C39.6705 20.6499 40.0921 20.2284 40.0921 19.7083C40.0921 19.1882 39.6705 18.7667 39.1505 18.7667C35.1564 18.7667 31.5842 21.302 30.2623 25.0758C30.0902 25.5665 30.3487 26.1038 30.8394 26.2756C31.3271 26.4466 31.8663 26.1921 32.0396 25.6981C33.0974 22.6788 35.9549 20.6499 39.1505 20.6499Z" fill="black"/>
<path d="M17.5 27.2193C17.5 27.7391 17.9215 28.1609 18.4416 28.1609H22.208C22.7281 28.1609 23.1496 27.7391 23.1496 27.2193C23.1496 26.6992 22.7281 26.2994 22.208 26.2994H18.4416C17.9215 26.2994 17.5 26.6992 17.5 27.2193Z" fill="black"/>
<path d="M60.8137 27.2193C60.8137 26.6992 60.3921 26.2994 59.8721 26.2994H56.1057C55.5856 26.2994 55.1641 26.6992 55.1641 27.2193C55.1641 27.7391 55.5856 28.1609 56.1057 28.1609H59.8721C60.3921 28.1609 60.8137 27.7391 60.8137 27.2193Z" fill="black"/>
<path d="M21.688 38.3923L24.9494 36.5091C25.4 36.2491 25.5541 35.6731 25.294 35.2229C25.034 34.7723 24.4584 34.6178 24.0078 34.8782L20.7464 36.7614C20.2958 37.0215 20.1417 37.5971 20.4018 38.0477C20.6625 38.4993 21.2389 38.6513 21.688 38.3923Z" fill="black"/>
<path d="M56.6253 16.0465L53.3635 17.9296C52.9133 18.1897 52.7588 18.7657 53.0189 19.2159C53.2796 19.6679 53.856 19.8198 54.3051 19.5605L57.5669 17.6773C58.0171 17.4173 58.1715 16.8417 57.9115 16.3911C57.6511 15.9409 57.0755 15.7864 56.6253 16.0465Z" fill="black"/>
<path d="M20.4018 16.3909C20.1417 16.8415 20.2958 17.4171 20.7464 17.6772L24.0078 19.5604C24.4573 19.8197 25.0336 19.667 25.294 19.2157C25.5541 18.7655 25.4 18.1895 24.9494 17.9295L21.688 16.0463C21.2378 15.7866 20.6618 15.9407 20.4018 16.3909Z" fill="black"/>
<path d="M56.6253 38.3924C57.0744 38.6517 57.6507 38.4991 57.9115 38.0478C58.1715 37.5972 58.0171 37.0216 57.5669 36.7615L54.3051 34.8783C53.8549 34.6183 53.2789 34.7724 53.0189 35.223C52.7588 35.6732 52.9133 36.2492 53.3635 36.5092L56.6253 38.3924Z" fill="black"/>
<path d="M19.5709 62.8376C19.749 63.0722 20.0263 63.2098 20.3205 63.2098H57.9841C58.2783 63.2098 58.556 63.0722 58.7341 62.8376C58.9121 62.6033 58.9702 62.2991 58.8911 62.0155C58.8911 62.0155 56.6883 54.1083 56.6865 54.1024C56.2043 52.4947 54.8897 51.2566 53.2555 50.8715L42.5231 48.3469C43.9557 47.2766 44.8017 45.6199 44.8017 43.8129C44.8017 42.0812 45.6819 39.7934 47.191 38.6315C50.409 36.1517 52.4151 32.2496 52.3316 27.9227C52.1973 20.9342 46.3351 15.103 39.3467 15.0014C31.9853 14.894 25.9701 20.8176 25.9701 28.1827C25.9701 32.3449 27.8747 36.176 31.1949 38.6937C32.608 39.7644 33.5029 41.9804 33.5029 43.8129C33.5029 45.667 34.4007 47.3152 35.7848 48.3461C23.9564 51.129 32.2465 49.1785 25.0491 50.8715C23.4149 51.2566 22.1004 52.4943 21.6182 54.1024C21.6163 54.1083 19.4135 62.0155 19.4135 62.0155C19.3344 62.2991 19.3925 62.6033 19.5709 62.8376ZM39.1525 52.7408L36.7922 50.0436L39.1525 49.4882L41.5124 50.0436L39.1525 52.7408ZM34.7174 50.5317L37.7368 53.9825L33.9321 56.5189L31.7301 51.2346L34.7174 50.5317ZM43.5876 50.5317L46.5746 51.2346L44.3725 56.5189L40.5678 53.9825L43.5876 50.5317ZM42.9071 44.0953C42.7651 46.0212 41.1596 47.5793 39.1525 47.5793C37.1729 47.5793 35.5465 46.044 35.3982 44.0953H42.9071ZM32.3325 37.193C29.486 35.0343 27.8533 31.7501 27.8533 28.1827C27.8533 21.8832 32.9972 16.7916 39.3195 16.8846C45.2383 16.9707 50.3351 22.0421 50.4487 27.9587C50.5186 31.5813 48.9124 34.9276 46.042 37.1397C44.5031 38.3244 43.4662 40.2925 43.0844 42.2125H40.0941V34.0692L42.0303 32.201C42.4043 31.8402 42.415 31.244 42.0538 30.8696C41.693 30.4955 41.0967 30.4848 40.7227 30.846L39.1521 32.361L37.5819 30.846C37.2075 30.4848 36.6117 30.4955 36.2505 30.8696C35.8896 31.244 35.9003 31.8402 36.2744 32.201L38.2105 34.0692V42.2125H35.2272C34.8348 40.1748 33.749 38.2663 32.3325 37.193ZM23.4245 54.6354C23.7158 53.6743 24.5029 52.935 25.4806 52.7047L29.8722 51.6715L32.6338 58.2991C32.8618 58.8468 33.5334 59.0484 34.0252 58.7203L39.1525 55.3022L44.2794 58.7203C44.7712 59.0484 45.4428 58.8468 45.6709 58.2991L48.4324 51.6715L52.8241 52.7047C53.8017 52.935 54.5888 53.6743 54.8801 54.6354L56.7442 61.3266H21.5604L23.4245 54.6354Z" fill="black"/>
<path d="M39.5 0L73.275 58.5H5.72501L39.5 0Z" fill="#4FCC64" fill-opacity="0.2"/>
</svg>
