<svg width="78" height="78" viewBox="0 0 78 78" fill="none" xmlns="http://www.w3.org/2000/svg">
<path d="M39 0L72.775 58.5H5.22501L39 0Z" fill="#4FCC64" fill-opacity="0.2"/>
<path d="M52.6016 25.4219C52.6016 25.8854 52.9779 26.2617 53.4414 26.2617C53.905 26.2617 54.2812 25.8854 54.2812 25.4219C54.2812 24.9583 53.905 24.582 53.4414 24.582C52.9779 24.582 52.6016 24.9583 52.6016 25.4219Z" fill="black"/>
<path d="M55.9613 35.4995C55.9613 36.5752 55.8534 37.649 55.6408 38.6909C55.548 39.1453 55.8413 39.5888 56.2956 39.6817C56.3524 39.6935 56.4088 39.6991 56.4646 39.6991C56.8553 39.6991 57.2053 39.4245 57.2867 39.0269C57.5219 37.8744 57.641 36.6878 57.641 35.4995C57.641 32.855 57.0676 30.3102 55.9361 27.9357C55.7366 27.5171 55.2357 27.3393 54.8167 27.5387C54.3978 27.7382 54.2203 28.2395 54.4198 28.6584C55.4427 30.8053 55.9613 33.107 55.9613 35.4995Z" fill="black"/>
<path d="M43.6992 43.0586H42.8594V32.1406C42.8594 31.6767 42.4834 31.3008 42.0195 31.3008H35.3008C34.8369 31.3008 34.4609 31.6767 34.4609 32.1406V35.5C34.4609 35.9639 34.8369 36.3398 35.3008 36.3398H36.1406V43.0586H35.3008C34.8369 43.0586 34.4609 43.4346 34.4609 43.8984V47.2578C34.4609 47.7217 34.8369 48.0977 35.3008 48.0977H43.6992C44.1631 48.0977 44.5391 47.7217 44.5391 47.2578V43.8984C44.5391 43.4346 44.1631 43.0586 43.6992 43.0586ZM42.8594 46.418H36.1406V44.7383H36.9805C37.4444 44.7383 37.8203 44.3623 37.8203 43.8984V35.5C37.8203 35.0361 37.4444 34.6602 36.9805 34.6602H36.1406V32.9805H41.1797V43.8984C41.1797 44.3623 41.556 44.7383 42.0195 44.7383H42.8594V46.418Z" fill="black"/>
<path d="M39.5 29.6211C41.3522 29.6211 42.8594 28.114 42.8594 26.2617C42.8594 24.4095 41.3522 22.9023 39.5 22.9023C37.6478 22.9023 36.1406 24.4095 36.1406 26.2617C36.1406 28.114 37.6478 29.6211 39.5 29.6211ZM39.5 24.582C40.4261 24.582 41.1797 25.3356 41.1797 26.2617C41.1797 27.1878 40.4261 27.9414 39.5 27.9414C38.5739 27.9414 37.8203 27.1878 37.8203 26.2617C37.8203 25.3356 38.5739 24.582 39.5 24.582Z" fill="black"/>
<path d="M39.5 14C27.9122 14 18 23.8934 18 35.5C18 39.4647 19.1361 43.6809 21.0517 46.87L18.043 55.8948C17.9426 56.1962 18.021 56.5292 18.2461 56.754C18.4721 56.98 18.8054 57.0571 19.1056 56.9567L28.1303 53.9483C31.3191 55.8642 35.5354 57 39.5 57C51.0909 57 61 47.1053 61 35.5C61 23.9092 51.1056 14 39.5 14V14ZM39.5 55.3203C35.6968 55.3203 31.6544 54.198 28.6864 52.3182C28.4761 52.185 28.214 52.1499 27.9712 52.2309L20.1679 54.8322L22.7691 47.0288C22.8492 46.7893 22.817 46.5269 22.6818 46.3136C20.802 43.346 19.6797 39.3032 19.6797 35.5C19.6797 24.7562 28.7563 15.6797 39.5 15.6797C50.2438 15.6797 59.3204 24.7562 59.3204 35.5C59.3204 46.2438 50.2438 55.3203 39.5 55.3203Z" fill="black"/>
</svg>
