<svg width="78" height="78" viewBox="0 0 78 78" fill="none" xmlns="http://www.w3.org/2000/svg">
<path d="M39.0017 16.1915C38.4215 16.1915 37.9551 16.6588 37.9551 17.2381C37.9551 17.7773 38.3607 18.226 38.8969 18.2792C39.5176 18.3408 40.0482 17.8573 40.0482 17.2381C40.0482 16.6579 39.581 16.1915 39.0017 16.1915Z" fill="black"/>
<path d="M59.9524 18.2857C57.0641 18.2857 54.7143 15.9359 54.7143 13.0476C54.7143 12.4691 54.2452 12 53.6667 12H24.3333C23.7548 12 23.2857 12.4691 23.2857 13.0476C23.2857 15.9359 20.9359 18.2857 18.0476 18.2857C17.4691 18.2857 17 18.7548 17 19.3333V36.4294C17 49.7527 25.6842 61.6912 38.6991 65.594C38.7973 65.6233 38.8986 65.6381 39 65.6381C39.1014 65.6381 39.2029 65.6233 39.301 65.5939C52.034 61.7744 61 50.0442 61 36.4294V19.3333C61 18.7548 60.5309 18.2857 59.9524 18.2857ZM58.9048 36.4294C58.9048 48.943 50.9197 59.78 39 63.495C27.1753 59.8097 19.0952 48.8745 19.0952 36.4294V20.3064C22.3021 19.8456 24.8456 17.3021 25.3064 14.0952H52.6936C53.1544 17.3021 55.6979 19.8456 58.9048 20.3064V36.4294Z" fill="black"/>
<path d="M56.1831 21.6894C53.9984 20.7326 52.2683 19.0024 51.3115 16.8177C51.1445 16.4366 50.768 16.1904 50.3519 16.1904H43.1893C42.6108 16.1904 42.1417 16.6596 42.1417 17.238C42.1417 17.8165 42.6108 18.2857 43.1893 18.2857H49.6895C50.7963 20.4522 52.5486 22.2045 54.7152 23.3114V36.4294C54.7152 46.6817 48.5606 55.5278 39.0009 59.0688C29.4413 55.5277 23.2866 46.6817 23.2866 36.4294V23.3114C25.4532 22.2045 27.2055 20.4522 28.3124 18.2857H34.8125C35.391 18.2857 35.8602 17.8165 35.8602 17.238C35.8602 16.6596 35.391 16.1904 34.8125 16.1904H27.65C27.2339 16.1904 26.8573 16.4367 26.6904 16.8177C25.7336 19.0024 24.0034 20.7326 21.8187 21.6894C21.4377 21.8564 21.1914 22.233 21.1914 22.649V36.4294C21.1914 47.6612 28.1383 57.4502 38.6514 61.1706C38.7645 61.2106 38.8827 61.2306 39.0009 61.2306C39.1192 61.2306 39.2374 61.2106 39.3504 61.1706C49.8548 57.4533 56.8105 47.6703 56.8105 36.4294V22.649C56.8105 22.2329 56.5642 21.8564 56.1831 21.6894Z" fill="black"/>
<path d="M39.0008 27.2953C33.8019 27.2953 29.5723 31.5249 29.5723 36.7239C29.5723 41.9228 33.8019 46.1524 39.0008 46.1524C44.1998 46.1524 48.4294 41.9228 48.4294 36.7239C48.4294 31.5249 44.1998 27.2953 39.0008 27.2953ZM39.0008 44.0572C34.9572 44.0572 31.6675 40.7675 31.6675 36.7239C31.6675 32.6803 34.9572 29.3905 39.0008 29.3905C43.0444 29.3905 46.3342 32.6803 46.3342 36.7239C46.3342 40.7675 43.0444 44.0572 39.0008 44.0572Z" fill="black"/>
<path d="M43.9304 33.8878C43.5212 33.4788 42.8581 33.4788 42.4487 33.8878L37.9515 38.3851L36.5971 37.0308C36.1879 36.6218 35.5247 36.6218 35.1154 37.0308C34.7063 37.4399 34.7063 38.1032 35.1154 38.5124L37.2107 40.6076C37.4154 40.812 37.6833 40.9144 37.9515 40.9144C38.2197 40.9144 38.4877 40.812 38.6923 40.6075L43.9304 35.3694C44.3395 34.9604 44.3395 34.297 43.9304 33.8878Z" fill="black"/>
<path d="M39 0L72.775 58.5H5.22501L39 0Z" fill="#4FCC64" fill-opacity="0.2"/>
</svg>
