<svg width="79" height="78" viewBox="0 0 79 78" fill="none" xmlns="http://www.w3.org/2000/svg">
<path d="M64.3104 35.998C66.3017 34.5987 67.6203 32.2711 67.6203 29.6474C67.6203 25.3554 64.149 21.8841 59.8569 21.8841C55.5649 21.8841 52.0936 25.3554 52.0936 29.6474C52.0936 32.2711 53.3987 34.5987 55.4034 35.998C53.6947 36.59 52.1339 37.5049 50.8154 38.689C48.999 37.1417 46.8597 35.9577 44.5186 35.258C47.3575 33.5358 49.2681 30.4009 49.2681 26.8354C49.2681 21.3997 44.8684 17 39.4327 17C33.997 17 29.5973 21.4131 29.5973 26.8354C29.5973 30.4009 31.4945 33.5358 34.3469 35.258C32.0326 35.9577 29.9203 37.1282 28.1173 38.6486C26.7988 37.4915 25.2649 36.59 23.5831 36.0115C25.5744 34.6122 26.893 32.2845 26.893 29.6609C26.893 25.3688 23.4216 21.8975 19.1296 21.8975C14.8376 21.8975 11.3662 25.3688 11.3662 29.6609C11.3662 32.2845 12.6713 34.6122 14.6761 36.0115C9.33459 37.8548 5.5 42.9272 5.5 48.8876V49.7756C5.5 49.8025 5.52691 49.8294 5.55382 49.8294H22.0089C21.9147 50.5695 21.8609 51.3364 21.8609 52.1033V53.0182C21.8609 56.9739 25.0631 60.1761 29.0188 60.1761H49.8736C53.8292 60.1761 57.0315 56.9739 57.0315 53.0182V52.1033C57.0315 51.3364 56.9776 50.5695 56.8835 49.8294H73.4462C73.4731 49.8294 73.5 49.8025 73.5 49.7756V48.8876C73.4731 42.9137 69.652 37.8413 64.3104 35.998ZM54.2463 29.634C54.2463 26.5394 56.7624 24.0233 59.8569 24.0233C62.9515 24.0233 65.4676 26.5394 65.4676 29.634C65.4676 32.6882 63.0053 35.1773 59.9646 35.2446C59.9242 35.2446 59.8973 35.2446 59.8569 35.2446C59.8166 35.2446 59.7897 35.2446 59.7493 35.2446C56.6951 35.1907 54.2463 32.7016 54.2463 29.634ZM31.7232 26.8354C31.7232 22.5972 35.1676 19.1528 39.4058 19.1528C43.644 19.1528 47.0884 22.5972 47.0884 26.8354C47.0884 30.9256 43.8728 34.2758 39.8498 34.5046C39.7018 34.5046 39.5538 34.5046 39.4058 34.5046C39.2578 34.5046 39.1098 34.5046 38.9618 34.5046C34.9389 34.2758 31.7232 30.9256 31.7232 26.8354ZM13.4786 29.634C13.4786 26.5394 15.9947 24.0233 19.0892 24.0233C22.1838 24.0233 24.6998 26.5394 24.6998 29.634C24.6998 32.6882 22.2376 35.1773 19.1969 35.2446C19.1565 35.2446 19.1296 35.2446 19.0892 35.2446C19.0489 35.2446 19.022 35.2446 18.9816 35.2446C15.9408 35.1907 13.4786 32.7016 13.4786 29.634ZM22.3856 47.6632H7.67966C8.28512 41.9315 13.1288 37.4377 19.0085 37.3973C19.0354 37.3973 19.0623 37.3973 19.0892 37.3973C19.1161 37.3973 19.1431 37.3973 19.17 37.3973C21.9685 37.4108 24.5249 38.4468 26.5028 40.1286C24.5653 42.2275 23.1256 44.8108 22.3856 47.6632ZM54.8518 53.0182C54.8518 55.7764 52.6049 58.0233 49.8467 58.0233H28.9919C26.2337 58.0233 23.9867 55.7764 23.9867 53.0182V52.1033C23.9867 43.7479 30.6603 36.9129 38.9618 36.6708C39.1098 36.6842 39.2713 36.6842 39.4193 36.6842C39.5673 36.6842 39.7287 36.6842 39.8767 36.6708C48.1783 36.9129 54.8518 43.7479 54.8518 52.1033V53.0182ZM56.4529 47.6632C55.7129 44.8243 54.3002 42.2814 52.3761 40.1824C54.3674 38.4602 56.9507 37.4242 59.7762 37.3973C59.8031 37.3973 59.83 37.3973 59.8569 37.3973C59.8839 37.3973 59.9108 37.3973 59.9377 37.3973C65.8174 37.4377 70.6611 41.9315 71.2665 47.6632H56.4529Z" fill="black"/>
<path d="M39.5 0L73.275 58.5H5.72501L39.5 0Z" fill="#4FCC64" fill-opacity="0.2"/>
</svg>
