<svg width="78" height="78" viewBox="0 0 78 78" fill="none" xmlns="http://www.w3.org/2000/svg">
<path d="M38.8122 18.8618C39.3988 18.8618 39.8744 18.3863 39.8744 17.7996V13.0622C39.8744 12.4756 39.3988 12 38.8122 12C38.2256 12 37.75 12.4756 37.75 13.0622V17.7996C37.7501 18.3863 38.2257 18.8618 38.8122 18.8618Z" fill="black"/>
<path d="M64.7752 48.4906L62.8988 46.6195C62.2313 45.9528 61.3417 45.5856 60.3937 45.5856C59.7876 45.5856 59.2057 45.7364 58.6901 46.0189L55.1541 42.4872L55.3263 42.3152C56.7608 40.8778 56.7603 38.5422 55.3262 37.1098C54.8138 36.5963 54.1743 36.254 53.4773 36.1099C53.5732 35.7786 53.6237 35.4316 53.6237 35.0765C53.6237 34.0899 53.2405 33.1647 52.5467 32.4738C52.0341 31.9603 51.3948 31.618 50.6977 31.4739C50.7937 31.1426 50.8442 30.7958 50.8442 30.4405C50.8442 29.4538 50.4609 28.5287 49.766 27.8367C49.2412 27.3125 48.596 26.9807 47.9186 26.8395C48.281 25.59 47.9714 24.1842 46.9884 23.1996C46.1702 22.3848 45.0599 22.0347 43.9899 22.1481L36.9831 20.8219C35.9145 20.6192 34.58 20.4851 33.7376 21.2534C33.6844 21.302 33.6302 21.3578 33.5768 21.4199C32.2707 20.9438 30.7473 21.2273 29.7014 22.2721C29.0075 22.9651 28.6253 23.8899 28.6253 24.876C28.6253 25.2312 28.6756 25.5781 28.7715 25.9095C28.0752 26.0534 27.4365 26.3954 26.9258 26.9071C26.2305 27.5995 25.8471 28.5232 25.8464 29.5082C25.8461 29.8643 25.8966 30.2123 25.993 30.5445C25.2964 30.6882 24.6573 31.0295 24.145 31.5412C23.4497 32.2357 23.0669 33.161 23.0669 34.1466C23.0669 34.9016 23.2922 35.6207 23.7099 36.2282C23.1826 36.407 22.6995 36.7045 22.295 37.1086C20.8596 38.5422 20.8591 40.878 22.296 42.3174L22.4676 42.4883L18.9312 46.0182C17.617 45.3994 15.9977 45.6312 14.9132 46.7144L13.0356 48.5867C12.3678 49.2537 12.0001 50.1434 12 51.0919C12 52.0405 12.3678 52.9303 13.0356 53.5974L15.3788 55.9378C15.7938 56.3524 16.4664 56.3519 16.8809 55.9369C17.2955 55.5219 17.2951 54.8493 16.88 54.4348L14.5368 52.0945C14.2709 51.8288 14.1244 51.4727 14.1244 51.092C14.1244 50.7114 14.2709 50.3554 14.5362 50.0904L16.4139 48.218C16.883 47.7494 17.601 47.6795 18.1463 48.0055C18.1847 48.0632 18.2291 48.1181 18.2799 48.169C18.371 48.2603 18.4748 48.3302 18.5852 48.3813L29.3528 59.1332C29.404 59.2446 29.4742 59.3496 29.5659 59.4413C29.6551 59.5307 29.7569 59.5998 29.8649 59.6506C30.0926 59.908 30.2184 60.2369 30.2184 60.5877C30.2184 60.9684 30.0719 61.3244 29.8059 61.5901L27.9301 63.4636C27.3759 64.0154 26.4744 64.0153 25.9218 63.4653L23.5786 61.1219C23.1638 60.7071 22.4913 60.7071 22.0765 61.1219C21.6617 61.5367 21.6617 62.2092 22.0765 62.624L24.4214 64.9691C25.1116 65.6564 26.018 65.9999 26.9248 65.9999C27.8318 65.9999 28.7393 65.6559 29.4303 64.9679L31.3073 63.0932C31.9751 62.4261 32.3429 61.5364 32.3429 60.5877C32.3429 59.9107 32.1546 59.2641 31.8045 58.7066L35.7845 54.7315C35.7887 54.7272 35.793 54.7229 35.7973 54.7185C36.253 54.2474 37.5221 54.3356 38.7495 54.4208C39.6215 54.4814 40.5937 54.5488 41.5435 54.4394L45.9019 58.7926C45.6196 59.3074 45.4689 59.8885 45.4689 60.4937C45.4689 61.4413 45.8367 62.3306 46.5045 62.9976L48.3815 64.8724C49.0489 65.539 49.9386 65.9063 50.8865 65.9063C51.8344 65.9063 52.724 65.5391 53.3915 64.8724L64.7759 53.5017C65.4438 52.8348 65.8115 51.945 65.8115 50.9964C65.8114 50.048 65.4437 49.1582 64.7752 48.4906ZM36.5876 22.9091L41.1952 23.7812L38.4373 26.5381C38.0107 26.333 37.4259 25.9506 36.7845 25.337C35.9064 24.497 35.2784 23.5273 35.2212 22.9224C35.2211 22.9221 35.2211 22.9218 35.2211 22.9214C35.2211 22.9213 35.221 22.9212 35.221 22.9211C35.2169 22.8777 35.2158 22.843 35.2164 22.8165C35.3553 22.7827 35.7242 22.7453 36.5876 22.9091ZM31.2025 23.7751C31.7406 23.2375 32.5766 23.1755 33.1846 23.5873C33.5292 25.032 34.7616 26.3414 35.316 26.8719C35.7269 27.2651 37.0454 28.4439 38.3762 28.7679C38.5562 29.026 38.6542 29.3336 38.6542 29.6583C38.6542 30.0765 38.4934 30.4674 38.2003 30.7602C37.908 31.053 37.5164 31.2141 37.0975 31.2141C36.6785 31.2141 36.2869 31.053 35.9932 30.7588L35.9931 30.7587L35.9926 30.7582L31.2024 25.9767C30.9104 25.685 30.7495 25.2941 30.7495 24.876C30.7496 24.4578 30.9105 24.0668 31.2025 23.7751ZM28.427 28.4102C28.7193 28.1175 29.1104 27.9562 29.5287 27.9562C29.9475 27.9562 30.34 28.1178 30.6342 28.4116L34.4914 32.2611C35.0988 32.8695 35.0988 33.8594 34.4935 34.4657C34.1996 34.7583 33.8067 34.9195 33.387 34.9195C32.9673 34.9195 32.5744 34.7583 32.2818 34.4669L32.2817 34.4668L29.3554 31.5412C29.3509 31.5367 29.346 31.5325 29.3413 31.5278L28.4258 30.6128C28.1321 30.3194 27.9704 29.9276 27.9707 29.5098C27.9712 29.0933 28.1323 28.7036 28.427 28.4102ZM25.6462 33.0442C25.9387 32.7522 26.3307 32.5914 26.7503 32.5914C27.1663 32.5914 27.555 32.7499 27.8462 33.0369L30.7814 35.9707C31.0741 36.2622 31.2353 36.6528 31.2353 37.0704C31.2353 37.488 31.0741 37.8785 30.7802 38.1712C30.4879 38.4631 30.0963 38.624 29.6774 38.624C29.258 38.624 28.8651 38.4627 28.5723 38.1712L27.5083 37.1084C27.5081 37.1081 27.5077 37.1079 27.5075 37.1076L25.6463 35.2487C25.3529 34.9556 25.1913 34.5641 25.1913 34.1464C25.1913 33.7288 25.3529 33.3372 25.6462 33.0442ZM23.7963 38.6115C24.09 38.3181 24.4826 38.1565 24.9016 38.1565C25.3205 38.1565 25.713 38.318 26.0066 38.6112L27.0721 39.6755C27.3649 39.967 27.5261 40.3576 27.5261 40.7752C27.5261 41.1929 27.3648 41.5833 27.0699 41.8772C26.7777 42.1698 26.3861 42.3311 25.9671 42.3311C25.5481 42.3311 25.1565 42.17 24.8622 41.8751L24.7287 41.7422C24.7269 41.7404 24.7256 41.7385 24.7239 41.7368C24.7219 41.7349 24.7198 41.7332 24.7178 41.7313L23.7973 40.8145C23.1899 40.2058 23.1894 39.2177 23.7963 38.6115ZM45.4421 50.6833C45.0275 50.2682 44.3549 50.2679 43.94 50.6823L42.995 51.6262C42.097 52.5242 40.47 52.4111 38.8965 52.3019C37.1878 52.1832 35.4209 52.0606 34.2775 53.2345L30.3651 57.1421L20.5815 47.3728L24.0438 43.9167C24.6161 44.2675 25.2764 44.4556 25.9674 44.4556C26.9544 44.4556 27.88 44.0729 28.5714 43.3803C29.2674 42.6872 29.6508 41.7621 29.6508 40.7753C29.6508 40.7662 29.6501 40.7571 29.6501 40.7479C29.6593 40.748 29.6685 40.7485 29.6777 40.7485C30.6634 40.7485 31.5882 40.3671 32.2805 39.6756C32.9765 38.9825 33.3599 38.0573 33.3599 37.0706C33.3599 37.0615 33.3593 37.0524 33.3593 37.0432C33.3685 37.0432 33.3778 37.0438 33.3872 37.0438C34.3726 37.0438 35.298 36.6628 35.9949 35.9687C36.7184 35.244 37.0763 34.2899 37.0694 33.3379C37.0789 33.338 37.0884 33.3385 37.0979 33.3385C38.085 33.3384 39.0105 32.9559 39.7029 32.2622C40.3968 31.5692 40.779 30.6444 40.779 29.6583C40.779 28.9686 40.5915 28.3093 40.2418 27.7382L43.2765 24.7048C43.5026 24.4796 43.7815 24.3383 44.0737 24.28C44.1054 24.2766 44.1366 24.2715 44.1675 24.2654C44.6364 24.2008 45.1289 24.3455 45.4874 24.7026C46.0948 25.3111 46.0948 26.301 45.4897 26.9072L44.5654 27.8276C44.5624 27.8307 44.5591 27.8334 44.5561 27.8365L43.4916 28.8992C43.0764 29.3137 43.076 29.9863 43.4906 30.4013C43.9053 30.8164 44.5778 30.8167 44.9927 30.4022L45.9206 29.4756C45.9208 29.4754 45.921 29.4752 45.9212 29.475L46.0615 29.3352C46.6706 28.7317 47.6574 28.733 48.2658 29.3406C48.5586 29.6321 48.7199 30.0227 48.7199 30.4403C48.7199 30.8579 48.5586 31.2484 48.2635 31.5423L47.334 32.4737C47.3339 32.4738 47.3338 32.4739 47.3337 32.4741L46.2693 33.5342C45.8536 33.9481 45.8523 34.6207 46.2662 35.0362C46.6802 35.4519 47.3527 35.4532 47.7683 35.0393L48.8376 33.9744C49.1298 33.6816 49.5214 33.5204 49.9403 33.5204C50.3594 33.5204 50.7511 33.6816 51.0455 33.9765C51.3382 34.2681 51.4994 34.6587 51.4994 35.0763C51.4994 35.4939 51.3382 35.8844 51.0438 36.1776L49.1907 38.0315C48.776 38.4464 48.7761 39.1188 49.1909 39.5335C49.3983 39.7409 49.67 39.8445 49.9418 39.8445C50.2137 39.8445 50.4856 39.7407 50.693 39.5332L51.6012 38.6247C51.6063 38.6198 51.6119 38.6154 51.6171 38.6103C51.9094 38.3175 52.301 38.1563 52.7199 38.1563C53.1389 38.1563 53.5305 38.3175 53.8238 38.6113C54.4306 39.2175 54.4301 40.2057 53.8238 40.813L52.9004 41.7353C52.9001 41.7356 52.8997 41.7359 52.8994 41.7363C52.8991 41.7366 52.8988 41.737 52.8984 41.7373L51.4328 43.2011C51.0178 43.6157 51.0174 44.2883 51.4319 44.7033C51.6393 44.911 51.9115 45.0149 52.1835 45.0149C52.455 45.0149 52.7267 44.9113 52.9341 44.7043L53.651 43.9882L57.0868 47.4201L47.304 57.1909L43.7989 53.69C44.0433 53.5329 44.2771 53.3481 44.4966 53.1286L45.441 52.1853C45.8563 51.7709 45.8567 51.0983 45.4421 50.6833ZM63.2746 51.9987L51.8902 63.3693C51.6238 63.6353 51.2674 63.7818 50.8864 63.7818C50.5055 63.7818 50.149 63.6353 49.8826 63.3692L48.0055 61.4945C47.7395 61.2289 47.593 60.8735 47.593 60.4937C47.593 60.114 47.7395 59.7586 48.0055 59.4929L59.3899 48.1223C59.6564 47.8562 60.0127 47.7097 60.3938 47.7097C60.7748 47.7097 61.1312 47.8562 61.3983 48.1229L63.2747 49.9941C63.5407 50.2597 63.6872 50.6156 63.6872 50.9963C63.6871 51.3772 63.5406 51.7331 63.2746 51.9987Z" fill="black"/>
<path d="M24.7058 17.9663C24.9131 18.1732 25.1846 18.2766 25.4561 18.2766C25.7282 18.2766 26.0004 18.1726 26.2079 17.9647C26.6223 17.5495 26.6216 16.877 26.2064 16.4626L22.3359 12.5998C21.9208 12.1854 21.2482 12.186 20.8338 12.6013C20.4194 13.0165 20.4201 13.689 20.8353 14.1034L24.7058 17.9663Z" fill="black"/>
<path d="M52.1657 18.2766C52.4372 18.2766 52.7089 18.173 52.9163 17.966L56.7838 14.103C57.1989 13.6886 57.1993 13.016 56.7847 12.601C56.3702 12.1859 55.6977 12.1855 55.2826 12.6001L51.415 16.463C51 16.8775 50.9996 17.5501 51.4142 17.9651C51.6217 18.1728 51.8937 18.2766 52.1657 18.2766Z" fill="black"/>
<path d="M18.5313 57.6895C18.1201 58.1078 18.1257 58.7804 18.5441 59.1916L18.5472 59.1945C18.7536 59.3975 19.0216 59.4985 19.2895 59.4985C19.5644 59.4985 19.8394 59.3921 20.0477 59.1802C20.4589 58.7619 20.4517 58.0878 20.0334 57.6766C19.6152 57.2654 18.9427 57.2712 18.5313 57.6895Z" fill="black"/>
<path d="M48.0395 49.1531C48.2011 49.1531 48.365 49.1163 48.5188 49.0387C49.0426 48.7745 49.253 48.1358 48.9889 47.6121C48.7247 47.0883 48.0859 46.8778 47.5622 47.142L47.5563 47.1449C47.0326 47.4091 46.8251 48.0464 47.0892 48.5701C47.2757 48.9401 47.6507 49.1531 48.0395 49.1531Z" fill="black"/>
<path d="M39 0L72.775 58.5H5.22501L39 0Z" fill="#4FCC64" fill-opacity="0.2"/>
</svg>
