<svg width="78" height="78" viewBox="0 0 78 78" fill="none" xmlns="http://www.w3.org/2000/svg">
<path d="M52.6571 57H26.9064C25.3038 57 24 55.6962 24 54.0932V15.9068C24 14.3038 25.3038 13 26.9064 13H52.6571C54.2597 13 55.5636 14.3038 55.5636 15.9068V54.0932C55.5636 55.6962 54.2597 57 52.6571 57ZM26.9064 14.7188C26.2515 14.7188 25.7188 15.2515 25.7188 15.9068V54.0932C25.7188 54.7485 26.2515 55.2812 26.9064 55.2812H52.6571C53.3121 55.2812 53.8448 54.7485 53.8448 54.0932V15.9068C53.8448 15.2515 53.3121 14.7188 52.6571 14.7188H26.9064Z" fill="black"/>
<path d="M50.0996 28.7415C50.0439 28.7415 49.9872 28.7354 49.9321 28.724C49.877 28.7129 49.823 28.6965 49.7713 28.675C49.7189 28.6535 49.6693 28.627 49.6226 28.5961C49.5756 28.5652 49.5316 28.529 49.492 28.4897C49.3322 28.3296 49.2402 28.108 49.2402 27.8821C49.2402 27.826 49.2463 27.7693 49.2574 27.7136C49.2684 27.6595 49.2849 27.6051 49.3064 27.5528C49.3279 27.5014 49.3544 27.4514 49.3856 27.4051C49.4161 27.3577 49.4524 27.3138 49.492 27.2745C49.5316 27.2349 49.5753 27.1986 49.6226 27.1671C49.6689 27.1362 49.7189 27.1103 49.7713 27.0889C49.823 27.0674 49.877 27.0502 49.9318 27.0388C50.0429 27.0167 50.1563 27.0167 50.2678 27.0388C50.3222 27.0502 50.3762 27.0674 50.4286 27.0889C50.4803 27.1103 50.53 27.1362 50.5763 27.1671C50.624 27.1986 50.6676 27.2349 50.7072 27.2745C50.7468 27.3138 50.7827 27.3577 50.8146 27.4051C50.8455 27.4514 50.872 27.5014 50.8935 27.5528C50.915 27.6051 50.9315 27.6595 50.9425 27.7136C50.9539 27.7693 50.959 27.826 50.959 27.8821C50.959 28.108 50.867 28.3296 50.7072 28.4897C50.6676 28.529 50.6236 28.5652 50.5763 28.5961C50.53 28.627 50.4803 28.6535 50.4286 28.675C50.3762 28.6965 50.3218 28.7129 50.2678 28.724C50.2121 28.7354 50.1553 28.7415 50.0996 28.7415Z" fill="black"/>
<path d="M46.5396 28.741H29.4648C28.9902 28.741 28.6055 28.3563 28.6055 27.8816C28.6055 27.4069 28.9902 27.0222 29.4648 27.0222H46.5396C47.0142 27.0222 47.3989 27.4069 47.3989 27.8816C47.3989 28.3563 47.0142 28.741 46.5396 28.741Z" fill="black"/>
<path d="M50.1426 25.0312H29.4199C28.9456 25.0312 28.5605 24.6465 28.5605 24.1718V17.6335C28.5605 17.1589 28.9456 16.7742 29.4199 16.7742H50.1426C50.6173 16.7742 51.002 17.1589 51.002 17.6335V24.1718C51.002 24.6465 50.6173 25.0312 50.1426 25.0312ZM30.2793 23.3125H49.2832V18.4929H30.2793V23.3125Z" fill="black"/>
<path d="M37.9673 40.9278H29.4629C28.9882 40.9278 28.6035 40.5428 28.6035 40.0684V31.564C28.6035 31.0893 28.9882 30.7046 29.4629 30.7046H37.9673C38.4417 30.7046 38.8267 31.0893 38.8267 31.564V40.0684C38.8267 40.5428 38.4417 40.9278 37.9673 40.9278ZM30.3223 39.209H37.108V32.4233H30.3223V39.209Z" fill="black"/>
<path d="M50.0998 40.9278H41.5957C41.121 40.9278 40.7363 40.5428 40.7363 40.0684V31.564C40.7363 31.0893 41.121 30.7046 41.5957 30.7046H50.0998C50.5745 30.7046 50.9592 31.0893 50.9592 31.564V40.0684C50.9592 40.5428 50.5745 40.9278 50.0998 40.9278ZM42.4551 39.209H49.2404V32.4233H42.4551V39.209Z" fill="black"/>
<path d="M37.9673 53.0605H29.4629C28.9882 53.0605 28.6035 52.6758 28.6035 52.2011V43.697C28.6035 43.2224 28.9882 42.8376 29.4629 42.8376H37.9673C38.4417 42.8376 38.8267 43.2224 38.8267 43.697V52.2011C38.8267 52.6758 38.4417 53.0605 37.9673 53.0605ZM30.3223 51.3418H37.108V44.5564H30.3223V51.3418Z" fill="black"/>
<path d="M50.0998 53.0605H41.5957C41.121 53.0605 40.7363 52.6758 40.7363 52.2011V43.697C40.7363 43.2224 41.121 42.8376 41.5957 42.8376H50.0998C50.5745 42.8376 50.9592 43.2224 50.9592 43.697V52.2011C50.9592 52.6758 50.5745 53.0605 50.0998 53.0605ZM42.4551 51.3418H49.2404V44.5564H42.4551V51.3418Z" fill="black"/>
<path d="M35.3245 34.9566H34.5735V34.2053C34.5735 33.7307 34.1888 33.3459 33.7142 33.3459C33.2395 33.3459 32.8548 33.7307 32.8548 34.2053V34.9566H32.1035C31.6288 34.9566 31.2441 35.3413 31.2441 35.816C31.2441 36.2906 31.6288 36.6754 32.1035 36.6754H32.8548V37.4263C32.8548 37.901 33.2395 38.2857 33.7142 38.2857C34.1888 38.2857 34.5735 37.901 34.5735 37.4263V36.6754H35.3245C35.7992 36.6754 36.1839 36.2906 36.1839 35.816C36.1839 35.3413 35.7992 34.9566 35.3245 34.9566Z" fill="black"/>
<path d="M34.9304 47.9492L35.4615 47.4182C35.7971 47.0828 35.7971 46.5386 35.4615 46.2029C35.1261 45.8672 34.5819 45.8672 34.2462 46.2029L33.7152 46.734L33.1841 46.2029C32.8484 45.8672 32.3043 45.8672 31.9686 46.2029C31.6329 46.5383 31.6329 47.0825 31.9686 47.4182L32.4996 47.9492L31.9686 48.4806C31.6329 48.816 31.6329 49.3601 31.9686 49.6958C32.1364 49.8637 32.3563 49.9476 32.5762 49.9476C32.7961 49.9476 33.0163 49.8637 33.1838 49.6958L33.7148 49.1648L34.2462 49.6958C34.4138 49.8637 34.634 49.9476 34.8539 49.9476C35.0737 49.9476 35.2936 49.8637 35.4615 49.6958C35.7971 49.3601 35.7971 48.816 35.4615 48.4806L34.9304 47.9492Z" fill="black"/>
<path d="M47.4593 36.6755H44.2383C43.7636 36.6755 43.3789 36.2908 43.3789 35.8162C43.3789 35.3415 43.7636 34.9568 44.2383 34.9568H47.4593C47.9339 34.9568 48.3186 35.3415 48.3186 35.8162C48.3186 36.2908 47.9339 36.6755 47.4593 36.6755Z" fill="black"/>
<path d="M47.4593 47.418H44.2383C43.7636 47.418 43.3789 47.0333 43.3789 46.5586C43.3789 46.0839 43.7636 45.6992 44.2383 45.6992H47.4593C47.9339 45.6992 48.3186 46.0839 48.3186 46.5586C48.3186 47.0333 47.9339 47.418 47.4593 47.418Z" fill="black"/>
<path d="M47.4593 49.8242H44.2383C43.7636 49.8242 43.3789 49.4395 43.3789 48.9648C43.3789 48.4902 43.7636 48.1055 44.2383 48.1055H47.4593C47.9339 48.1055 48.3186 48.4902 48.3186 48.9648C48.3186 49.4395 47.9339 49.8242 47.4593 49.8242Z" fill="black"/>
<path d="M39 0L72.775 58.5H5.22501L39 0Z" fill="#4FCC64" fill-opacity="0.2"/>
</svg>
