<svg width="78" height="78" viewBox="0 0 78 78" fill="none" xmlns="http://www.w3.org/2000/svg">
<path d="M44.3439 69H34.2455C32.8891 69 31.7588 67.9822 31.6162 66.6323L31.1671 62.3449C31.1338 62.0252 30.9232 61.7484 30.6305 61.639C28.0741 60.6809 25.7076 59.313 23.5957 57.573C23.3529 57.3729 23.0065 57.3283 22.7131 57.4588L18.7707 59.2151C17.5308 59.7673 16.0841 59.2977 15.4054 58.1227L10.3561 49.3775C9.67756 48.2029 9.99375 46.7151 11.0918 45.917L14.5832 43.3825C14.8462 43.1912 14.9778 42.8765 14.9257 42.5617C14.7045 41.2238 14.5921 39.8571 14.5921 38.5C14.5921 37.1429 14.7043 35.7763 14.9257 34.438C14.9776 34.1235 14.8461 33.809 14.5825 33.6171L11.0922 31.0835C9.99375 30.2849 9.67756 28.7972 10.3561 27.6223L15.4052 18.8775C16.0841 17.7023 17.5309 17.2328 18.7706 17.7849L22.713 19.541C23.0067 19.672 23.353 19.6272 23.5956 19.4271C24.5296 18.6578 25.5253 17.9534 26.555 17.333C26.9777 17.0783 27.5268 17.2146 27.7814 17.6373C28.0361 18.06 27.8999 18.6091 27.4772 18.8637C26.522 19.439 25.5984 20.0927 24.7319 20.8063C23.9593 21.4431 22.9069 21.5839 21.9857 21.1735L18.0435 19.4174C17.6416 19.2383 17.1728 19.3906 16.9529 19.7712L11.9037 28.516C11.6839 28.8967 11.7866 29.3787 12.1426 29.6376L15.6329 32.1714C16.4472 32.7635 16.8517 33.7435 16.689 34.7294C16.4835 35.9718 16.3792 37.2403 16.3792 38.5C16.3792 39.7597 16.4835 41.0282 16.6889 42.2703C16.8517 43.2565 16.4472 44.2365 15.6335 44.8283L12.1421 47.3628C11.7867 47.6212 11.6839 48.1033 11.9037 48.4837L16.9529 57.2289C17.1727 57.6094 17.6415 57.7616 18.0434 57.5826L21.9857 55.8265C22.9069 55.4161 23.9593 55.5569 24.7322 56.1939C26.6912 57.808 28.8864 59.077 31.2564 59.9652C32.1788 60.3095 32.8418 61.171 32.9444 62.1595L33.3934 66.4454C33.4397 66.8826 33.8059 67.2129 34.2454 67.2129H44.3438C44.7833 67.2129 45.1497 66.8826 45.1959 66.4447L45.6449 62.1587C45.7475 61.1709 46.4105 60.3095 47.3339 59.9647C49.7028 59.0769 51.898 57.8079 53.8572 56.1937C54.6299 55.5566 55.6822 55.4159 56.6036 55.8264L60.5458 57.5825C60.9477 57.7616 61.4165 57.6094 61.6364 57.2287L66.6855 48.4839C66.9053 48.1032 66.8026 47.6212 66.4466 47.3623L62.9563 44.8285C62.142 44.2364 61.7375 43.2563 61.9002 42.2704C62.1057 41.028 62.21 39.7596 62.21 38.4999C62.21 37.2402 62.1057 35.9717 61.9003 34.7296C61.7375 33.7434 62.142 32.7634 62.9557 32.1716L66.4471 29.6371C66.8025 29.3787 66.9053 28.8966 66.6855 28.5161L61.6366 19.7711C61.4168 19.3904 60.9477 19.2384 60.5461 19.4174L56.6037 21.1735C55.6824 21.5838 54.63 21.4431 53.8573 20.8061C51.8981 19.1918 49.703 17.923 47.333 17.0348C46.4106 16.6905 45.7476 15.829 45.645 14.8405L45.196 10.5546C45.1498 10.1174 44.7834 9.78711 44.3439 9.78711H34.2455C33.806 9.78711 33.4397 10.1174 33.3934 10.5553L32.9444 14.8413C32.8418 15.8291 32.1788 16.6905 31.2555 17.0353C30.9951 17.1334 30.7589 17.2271 30.536 17.3204C30.0807 17.5108 29.5571 17.2962 29.3669 16.8408C29.1763 16.3856 29.391 15.8621 29.8464 15.6717C30.0888 15.5703 30.3443 15.469 30.6275 15.3622C30.9232 15.2517 31.1338 14.975 31.1669 14.6559L31.6162 10.3684C31.7588 9.01782 32.8891 8 34.2455 8H44.3439C45.7003 8 46.8306 9.01782 46.9732 10.3676L47.4224 14.655C47.4556 14.9748 47.6663 15.2516 47.959 15.3609C50.5154 16.3189 52.8818 17.6867 54.9938 19.4269C55.2366 19.6271 55.5829 19.6717 55.8765 19.541L59.8188 17.7849C61.0584 17.2326 62.5055 17.7023 63.1842 18.8774L68.2334 27.6225C68.9119 28.7971 68.5957 30.2849 67.4977 31.083L64.0063 33.6175C63.7432 33.8088 63.6117 34.1235 63.6637 34.4383C63.885 35.7762 63.9973 37.1429 63.9973 38.5C63.9973 39.8571 63.8851 41.2237 63.6637 42.562C63.6118 42.8765 63.7433 43.191 64.007 43.3829L67.4972 45.9166C68.5957 46.7152 68.9119 48.2029 68.2334 49.3778L63.1842 58.1225C62.5055 59.2978 61.0586 59.7673 59.8188 59.2151L55.8765 57.459C55.583 57.328 55.2366 57.3729 54.9939 57.5729C52.8819 59.313 50.5154 60.681 47.9599 61.6387C47.6661 61.7484 47.4555 62.0252 47.4224 62.3442L46.9731 66.6316C46.8306 67.9822 45.7003 69 44.3439 69Z" fill="black" stroke="black" stroke-width="0.3"/>
<path d="M48.3726 47.5953C47.4707 47.5953 46.5782 47.4633 45.7198 47.2031C45.2475 47.0599 44.9807 46.5609 45.124 46.0886C45.2672 45.6164 45.7664 45.3496 46.2384 45.4928C46.9285 45.702 47.6466 45.8082 48.3727 45.8082C50.3283 45.8082 52.1644 45.0489 53.543 43.6704C56.3939 40.8195 56.3939 36.1807 53.543 33.3298C50.6915 30.4794 46.0528 30.4794 43.2025 33.3298L39.9273 36.6049C39.5783 36.9539 39.0125 36.9539 38.6637 36.6049L35.3885 33.3298C32.5381 30.4794 27.8993 30.4794 25.0478 33.3299C23.6672 34.7117 22.9066 36.5479 22.9066 38.5001C22.9066 40.4523 23.6672 42.2885 25.0482 43.6707C26.4265 45.0489 28.2627 45.8082 30.2183 45.8082C32.1748 45.8082 34.0109 45.049 35.3884 43.6707L38.6638 40.3953C39.0128 40.0463 39.5786 40.0463 39.9274 40.3953L43.2026 43.6704C43.3147 43.7826 43.4268 43.888 43.5357 43.9835C43.9065 44.3092 43.943 44.8738 43.6174 45.2445C43.2917 45.6154 42.7271 45.652 42.3564 45.3264C42.2187 45.2054 42.0782 45.0734 41.939 44.9342L39.2952 42.2907L36.6519 44.934C34.9371 46.65 32.6521 47.5952 30.2179 47.5952C27.7851 47.5952 25.5001 46.65 23.784 44.934C22.0654 43.2143 21.1191 40.9294 21.1191 38.5001C21.1191 36.0708 22.0654 33.7859 23.7837 32.0664C27.3323 28.5191 33.1049 28.5192 36.6519 32.0661L39.2952 34.7095L41.9386 32.0661C45.4855 28.5192 51.258 28.5191 54.8064 32.066C58.3543 35.6138 58.3543 41.3864 54.8065 44.9342C53.0904 46.6501 50.8054 47.5953 48.3726 47.5953ZM30.2184 44.0227C28.7413 44.0227 27.3539 43.4488 26.3118 42.4067C25.2683 41.3633 24.6936 39.9759 24.6936 38.5002C24.6936 37.0245 25.2682 35.6371 26.3118 34.5936C27.3539 33.5515 28.7413 32.9777 30.2184 32.9777C31.6955 32.9777 33.0829 33.5516 34.125 34.5936L37.3997 37.8684C37.7487 38.2174 37.7487 38.7832 37.3997 39.132L34.125 42.4067C33.0829 43.4488 31.6955 44.0227 30.2184 44.0227ZM30.2184 34.7646C29.2187 34.7646 28.28 35.1526 27.5755 35.8571C26.8696 36.5631 26.4808 37.5017 26.4808 38.5001C26.4808 39.4985 26.8696 40.437 27.5755 41.143C28.2801 41.8476 29.2187 42.2356 30.2185 42.2356C31.2182 42.2356 32.1568 41.8476 32.8614 41.1431L35.5043 38.5001L32.8614 35.8571C32.1568 35.1526 31.2182 34.7646 30.2184 34.7646ZM48.3721 44.0223C46.9573 44.0223 45.5425 43.4837 44.4655 42.4068L41.1908 39.132C40.8418 38.7831 40.8418 38.2173 41.1908 37.8684L44.4655 34.5936C46.6196 32.4395 50.1246 32.4397 52.2787 34.5936C53.3221 35.637 53.8969 37.0244 53.8969 38.5002C53.8969 39.9759 53.3223 41.3633 52.2787 42.4068C51.2017 43.4837 49.7869 44.0223 48.3721 44.0223ZM43.0863 38.5001L45.7292 41.1431C47.1865 42.6003 49.5576 42.6003 51.015 41.1431C51.7209 40.4371 52.1096 39.4985 52.1096 38.5001C52.1096 37.5017 51.7209 36.5631 51.015 35.8572C49.5578 34.4 47.1865 34.3999 45.7291 35.8572L43.0863 38.5001ZM51.6468 41.7749H51.648H51.6468Z" fill="black" stroke="black" stroke-width="0.3"/>
<path d="M49.4295 28.4694C49.2119 28.4694 48.9938 28.3904 48.8217 28.2308C46.2241 25.8194 42.8405 24.4913 39.2944 24.4913C35.7483 24.4913 32.3647 25.8194 29.7671 28.2308C29.4055 28.5665 28.8401 28.5456 28.5043 28.1839C28.1686 27.8221 28.1895 27.2568 28.5513 26.9211C31.4805 24.2018 35.2958 22.7042 39.2944 22.7042C43.293 22.7042 47.1084 24.2018 50.0376 26.9211C50.3993 27.2568 50.4202 27.8221 50.0845 28.1839C49.9085 28.3734 49.6694 28.4694 49.4295 28.4694Z" fill="black" stroke="black" stroke-width="0.3"/>
<path d="M39.2944 54.2956C35.2957 54.2956 31.4805 52.798 28.5513 50.0787C28.1895 49.743 28.1686 49.1777 28.5043 48.816C28.8399 48.4542 29.4054 48.4332 29.7671 48.769C32.3647 51.1804 35.7482 52.5085 39.2944 52.5085C42.8406 52.5085 46.2242 51.1805 48.8217 48.769C49.1834 48.4333 49.7488 48.4542 50.0845 48.816C50.4202 49.1777 50.3993 49.743 50.0376 50.0787C47.1084 52.798 43.2931 54.2956 39.2944 54.2956Z" fill="black" stroke="black" stroke-width="0.3"/>
<path d="M39 0L72.775 58.5H5.22501L39 0Z" fill="#4FCC64" fill-opacity="0.2"/>
</svg>
