<svg width="78" height="78" viewBox="0 0 78 78" fill="none" xmlns="http://www.w3.org/2000/svg">
<path d="M34.0833 65C21.9375 65 12 55.0625 12 42.9167C12 30.7709 21.9375 20.8334 34.0833 20.8334C46.2291 20.8334 56.1666 30.7709 56.1666 42.9167C56.1666 55.0625 46.2291 65 34.0833 65ZM34.0833 23.0417C23.0417 23.0417 14.2083 31.875 14.2083 42.9167C14.2083 53.9583 23.0417 62.7917 34.0833 62.7917C45.125 62.7917 53.9583 53.9583 53.9583 42.9167C53.9583 31.875 45.125 23.0417 34.0833 23.0417Z" fill="black"/>
<path d="M34.0846 57.2707C26.1346 57.2707 19.7305 50.8665 19.7305 42.9165C19.7305 34.9665 26.1346 28.5624 34.0846 28.5624C42.0346 28.5624 48.4388 34.9665 48.4388 42.9165C48.4388 50.8665 42.0346 57.2707 34.0846 57.2707ZM34.0846 30.7707C27.4596 30.7707 21.9388 36.2915 21.9388 42.9165C21.9388 49.5415 27.4596 55.0623 34.0846 55.0623C40.7096 55.0623 46.2304 49.5415 46.2304 42.9165C46.2304 36.2915 40.7096 30.7707 34.0846 30.7707Z" fill="black"/>
<path d="M34.084 49.5419C30.3298 49.5419 27.459 46.671 27.459 42.9169C27.459 39.1627 30.3298 36.2919 34.084 36.2919C37.8381 36.2919 40.709 39.1627 40.709 42.9169C40.709 46.671 37.8381 49.5419 34.084 49.5419ZM34.084 38.5002C31.6548 38.5002 29.6673 40.4877 29.6673 42.9169C29.6673 45.346 31.6548 47.3335 34.084 47.3335C36.5131 47.3335 38.5006 45.346 38.5006 42.9169C38.5006 40.4877 36.5131 38.5002 34.084 38.5002Z" fill="black"/>
<path d="M34.0837 44.0206C33.8629 44.0206 33.4212 44.0206 33.2004 43.7998C32.7587 43.3581 32.7587 42.6956 33.2004 42.254L49.7629 25.6915C50.2045 25.2498 50.867 25.2498 51.3087 25.6915C51.7504 26.1331 51.7504 26.7956 51.3087 27.2373L34.7462 43.7998C34.7462 44.0206 34.3046 44.0206 34.0837 44.0206Z" fill="black"/>
<path d="M56.168 27.4583H50.6471C49.9846 27.4583 49.543 27.0167 49.543 26.3542V20.8333C49.543 20.6125 49.7638 20.1708 49.7638 19.95L57.493 12.2208C57.9346 12 58.3763 12 58.818 12C59.2596 12.2208 59.4805 12.6625 59.4805 13.1042V17.5208H63.8971C64.3388 17.5208 64.7805 17.7417 65.0013 18.1833C65.0013 18.625 65.0013 19.0667 64.7805 19.5083L57.0513 27.2375C56.8305 27.2375 56.3888 27.4583 56.168 27.4583ZM51.7513 25.25H55.7263L61.2471 19.7292H58.3763C57.7138 19.7292 57.2721 19.2875 57.2721 18.625V15.7542L51.7513 21.275V25.25Z" fill="black"/>
<path d="M39 0L72.775 58.5H5.22501L39 0Z" fill="#4FCC64" fill-opacity="0.2"/>
</svg>
