<svg width="78" height="78" viewBox="0 0 78 78" fill="none" xmlns="http://www.w3.org/2000/svg">
<path d="M64.9135 25.3243C64.7345 24.6586 64.2978 24.0912 63.7003 23.7471C63.1023 23.4014 62.3914 23.3079 61.7245 23.4869C61.0584 23.6663 60.4909 24.1026 60.1469 24.7001L59.7135 25.4542C59.3018 25.2177 58.7758 25.3569 58.535 25.7665L56.3336 29.5188L55.5795 29.0855C55.3798 28.97 55.1419 28.9387 54.9194 28.9987C54.6963 29.0593 54.5068 29.2057 54.3921 29.4063C54.1572 29.8206 54.3002 30.347 54.7128 30.5848L55.4669 31.0181L48.1003 43.7841L46.2802 48.6464L45.4135 50.2668C44.9061 51.1495 44.9603 52.2468 45.5523 53.075L43.6023 55.4668L43.0564 54.0978C42.8101 53.4876 42.2401 53.0695 41.5846 53.0183C40.9287 52.9667 40.3003 53.2908 39.9622 53.8549L39.6503 54.3834L39.3557 50.9168C39.288 50.0967 38.6528 49.4374 37.8361 49.3383C37.019 49.2397 36.2454 49.7293 35.9843 50.5097L33.8523 56.9056C33.7034 57.358 33.9471 57.8455 34.3982 57.9978C34.4829 58.0372 34.5738 58.0609 34.6669 58.0668C35.0393 58.0681 35.3711 57.8306 35.4904 57.4777L37.6135 51.0818L37.9169 54.6001C37.9796 55.3508 38.5191 55.975 39.2529 56.1451C39.9867 56.3153 40.7459 55.9919 41.1322 55.3458L41.453 54.8168L41.9904 56.1777C42.2185 56.7511 42.7344 57.1603 43.345 57.2513C43.9557 57.3423 44.5684 57.1015 44.9544 56.6195L46.9738 54.0631C47.1972 54.1215 47.4274 54.1507 47.6585 54.1499C48.5874 54.157 49.4498 53.6679 49.9204 52.8668L50.787 51.4195L54.0891 47.4069L61.5336 34.4848L62.2877 34.9181C62.4887 35.0333 62.6351 35.2233 62.6948 35.4471C62.7549 35.6693 62.7236 35.9063 62.6085 36.1056L59.1418 42.1117C59.0111 42.3089 58.9666 42.551 59.0191 42.782C59.0716 43.0127 59.2159 43.212 59.419 43.3334C59.6187 43.4494 59.8566 43.4807 60.0792 43.4206C60.3022 43.3601 60.4917 43.2137 60.6064 43.0131L64.0731 37.007C64.4188 36.409 64.5124 35.6981 64.3329 35.0311C64.1535 34.3651 63.7172 33.7976 63.1197 33.4535L62.3656 33.0202L64.5322 29.2675C64.7688 28.8557 64.6296 28.3301 64.2204 28.0889L64.6537 27.3348C65.0087 26.7276 65.1027 26.0022 64.9135 25.3243ZM61.6462 25.5668C61.7609 25.3662 61.9513 25.2194 62.1751 25.1597C62.3977 25.1047 62.633 25.1356 62.8336 25.2464C63.0346 25.3611 63.181 25.5515 63.2411 25.775C63.2961 25.9976 63.2652 26.2329 63.1544 26.4334L62.721 27.1875L61.2128 26.3209L61.6462 25.5668ZM49.8336 49.7645L49.4003 49.5131L48.1176 48.7675L49.3482 45.4743L52.0781 47.0515L49.8336 49.7645ZM47.2336 52.2688C46.8676 52.0137 46.755 51.5228 46.9738 51.1334L47.4071 50.3798L48.9149 51.2464L48.4816 51.9916C48.3601 52.2024 48.1561 52.3522 47.9187 52.4051C47.6813 52.4576 47.4329 52.4085 47.2336 52.2688ZM53.0663 45.6305L50.0676 43.8971L57.001 31.8848L59.9996 33.6181L53.0663 45.6305ZM60.8663 32.1188L57.8676 30.3855L59.601 27.3869L62.5996 29.1202L60.8663 32.1188Z" fill="black"/>
<path d="M26.6766 51.8353L23.609 54.8949L21.7715 53.0575C21.4334 52.7215 20.8875 52.7215 20.5494 53.0575C20.3852 53.2204 20.293 53.4417 20.293 53.6728C20.293 53.9038 20.3852 54.1256 20.5494 54.2881L22.3868 56.1255C22.7118 56.448 23.1511 56.6287 23.609 56.6282C24.0694 56.6308 24.5125 56.4501 24.8396 56.1255L27.8987 53.0575C28.1933 52.7134 28.1734 52.201 27.8535 51.881C27.5331 51.5607 27.0206 51.5408 26.6766 51.8353Z" fill="black"/>
<path d="M16.4668 54.1666C16.4668 58.2354 19.765 61.5333 23.8335 61.5333C27.9019 61.5333 31.2001 58.2354 31.2001 54.1666C31.2001 53.688 30.8121 53.2999 30.3335 53.2999C29.8549 53.2999 29.4668 53.688 29.4668 54.1666C29.4668 57.2778 26.9447 59.7999 23.8335 59.7999C20.7223 59.7999 18.2001 57.2778 18.2001 54.1666C18.2001 51.0554 20.7223 48.5333 23.8335 48.5333C25.0531 48.5299 26.2401 48.9256 27.2134 49.6602C27.5964 49.9475 28.1397 49.8697 28.4266 49.4867C28.714 49.1037 28.6365 48.5608 28.2535 48.2734C26.0213 46.5993 23.0345 46.3302 20.539 47.5777C18.0431 48.8257 16.4668 51.3766 16.4668 54.1666Z" fill="black"/>
<path d="M44.2008 19.9333C44.6794 19.9333 45.0674 19.5457 45.0674 19.0666C45.0674 18.588 44.6794 18.2 44.2008 18.2H21.6674C21.1888 18.2 20.8008 18.588 20.8008 19.0666V22.5333C20.8008 23.0123 21.1888 23.4 21.6674 23.4H44.2008C44.6794 23.4 45.0674 23.0123 45.0674 22.5333C45.0674 22.0547 44.6794 21.6666 44.2008 21.6666H22.5341V19.9333H44.2008Z" fill="black"/>
<path d="M24.2671 25.1334C23.7884 25.1334 23.4004 25.5215 23.4004 26.0001C23.4004 26.4791 23.7884 26.8668 24.2671 26.8668H41.6004C42.079 26.8668 42.4671 26.4791 42.4671 26.0001C42.4671 25.5215 42.079 25.1334 41.6004 25.1334H24.2671Z" fill="black"/>
<path d="M46.8005 31.1998H27.7339C27.2552 31.1998 26.8672 31.5879 26.8672 32.0665C26.8672 32.5455 27.2552 32.9332 27.7339 32.9332H46.8005C47.2791 32.9332 47.6672 32.5455 47.6672 32.0665C47.6672 31.5879 47.2791 31.1998 46.8005 31.1998Z" fill="black"/>
<path d="M38.1331 37.2666C38.1331 36.788 37.745 36.3999 37.2664 36.3999H19.9331C19.4545 36.3999 19.0664 36.788 19.0664 37.2666C19.0664 37.7456 19.4545 38.1332 19.9331 38.1332H37.2664C37.745 38.1332 38.1331 37.7456 38.1331 37.2666Z" fill="black"/>
<path d="M46.7986 36.3999H40.7319C40.2533 36.3999 39.8652 36.788 39.8652 37.2666C39.8652 37.7456 40.2533 38.1332 40.7319 38.1332H46.7986C47.2772 38.1332 47.6652 37.7456 47.6652 37.2666C47.6652 36.788 47.2772 36.3999 46.7986 36.3999Z" fill="black"/>
<path d="M28.5997 42.4667C29.0784 42.4667 29.4664 42.0791 29.4664 41.6001C29.4664 41.1215 29.0784 40.7334 28.5997 40.7334H19.9331C19.4545 40.7334 19.0664 41.1215 19.0664 41.6001C19.0664 42.0791 19.4545 42.4667 19.9331 42.4667H28.5997Z" fill="black"/>
<path d="M32.0659 42.4667H38.1326C38.6112 42.4667 38.9992 42.0791 38.9992 41.6001C38.9992 41.1215 38.6112 40.7334 38.1326 40.7334H32.0659C31.5873 40.7334 31.1992 41.1215 31.1992 41.6001C31.1992 42.0791 31.5873 42.4667 32.0659 42.4667Z" fill="black"/>
<path d="M52 52.8667C51.5214 52.8667 51.1333 53.2547 51.1333 53.7333V62.4C51.1333 62.879 50.7453 63.2667 50.2667 63.2667H15.6C15.1214 63.2667 14.7333 62.879 14.7333 62.4V15.6C14.7333 15.1214 15.1214 14.7333 15.6 14.7333H50.2667C50.7453 14.7333 51.1333 15.1214 51.1333 15.6V31.8762C51.1333 32.3549 51.5214 32.7429 52 32.7429C52.4786 32.7429 52.8667 32.3549 52.8667 31.8762V15.6C52.8667 14.1642 51.7025 13 50.2667 13H15.6C14.1642 13 13 14.1642 13 15.6V62.4C13 63.8363 14.1642 65 15.6 65H50.2667C51.7025 65 52.8667 63.8363 52.8667 62.4V53.7333C52.8667 53.2547 52.4786 52.8667 52 52.8667Z" fill="black"/>
<path d="M39 0L72.775 58.5H5.22501L39 0Z" fill="#4FCC64" fill-opacity="0.2"/>
</svg>
